<svg id="Group_5878" data-name="Group 5878" xmlns="http://www.w3.org/2000/svg" width="177.575" height="47.575" viewBox="0 0 177.575 47.575">
  <path id="path3176" d="M-38.129,102.191c-2.03-.007-3.131.035-2.766.112,1.67.355,1.628.065,1.558,9.527-.067,9.033-.061,8.971-1.188,9.144-.311.048.05.113.805.145s2.467.13,3.8.211c3.917.237,4.47.227,5.975-.092a9.96,9.96,0,0,0,7.52-11.983,9.2,9.2,0,0,0-4.311-5.856c-1.94-.969-2.844-1.087-9.078-1.182-.864-.013-1.641-.024-2.317-.026Zm3.387.581a11.233,11.233,0,0,1,7.757,2.832,10.019,10.019,0,0,1,1.736,10.966,7.669,7.669,0,0,1-3.862,3.526c-2.235.872-6.763.736-7.731-.231-.168-.168-.238-2.666-.238-8.517v-8.279l1.162-.191a8.833,8.833,0,0,1,1.175-.106Z" transform="translate(85.014 -101.639)" fill="#fafafa"/>
  <path id="path3172" d="M47.875,137.437c-1.416-.43-1.467-.514-1.467-2.435a5.066,5.066,0,0,1,.211-1.906c.127-.078.212.192.212.674,0,1.8,1.536,3.023,3.8,3.023a3.28,3.28,0,0,0,3.041-1.327,3.845,3.845,0,0,0,.556-3.295c-.263-.975-1-1.786-4.27-4.722-2.166-1.942-2.92-3.224-2.92-4.965,0-2.832,1.8-4.564,4.754-4.579,2.329-.011,3.965.266,3.819.647a8.948,8.948,0,0,0-.143,1.726c-.02,1.343-.03,1.37-.217.574-.352-1.5-1.445-2.229-3.354-2.229-2.161,0-3.378,1.073-3.379,2.979,0,1.286.7,2.307,2.746,4,3.428,2.834,4.273,3.859,4.658,5.657a5.007,5.007,0,0,1-2.822,5.762,5.284,5.284,0,0,1-3,.6,12.168,12.168,0,0,1-2.231-.182Z" transform="translate(68.815 -117.727)" fill="#fafafa"/>
  <path id="path3170" d="M65.019,137.31c-1.2-.382-1.281-.618-1.031-2.844.1-.871.191-1.306.207-.965a3.5,3.5,0,0,0,1.846,2.877,4.936,4.936,0,0,0,4.459-.227,3.576,3.576,0,0,0,1.329-2.875c0-1.429-.508-2.263-2.4-3.947-3.886-3.452-4.61-4.4-4.867-6.377a4.324,4.324,0,0,1,.845-3.3c1.083-1.562,3.073-2.05,6.478-1.587l1.215.165-.014,1.622c-.012,1.313-.055,1.522-.229,1.094-.791-1.946-1.5-2.38-3.708-2.28-1.348.061-1.6.14-2.169.689a3.279,3.279,0,0,0-.075,4.554,28.639,28.639,0,0,0,2.609,2.322c3.082,2.5,4.009,3.9,4.009,6.072a5.069,5.069,0,0,1-2.7,4.638,4.821,4.821,0,0,1-2.889.631A9.217,9.217,0,0,1,65.019,137.31Z" transform="translate(65.58 -117.726)" fill="#fafafa"/>
  <path id="path3158" d="M-56.069,133.574c-2.061-2.124-5.341-5.637-7.289-7.807s-3.62-3.952-3.715-3.961c-.217-.021.038,11.684.292,13.383a4.368,4.368,0,0,0,.4,1.464,2.91,2.91,0,0,0,1.115.36c.557.091-.23.146-2.056.145-1.627,0-2.625-.06-2.218-.132,1.209-.214,1.242-.493,1.256-10.423.009-6.962.067-8.792.276-8.71.145.057,3.584,3.714,7.642,8.126s7.409,7.991,7.447,7.953-.009-3.369-.105-7.4c-.2-8.186-.118-7.823-1.738-8.141-.718-.141-.244-.185,2.019-.186,1.9,0,2.705.058,2.252.165a2.522,2.522,0,0,0-.951.411c-.176.176-.261,2.824-.3,9.424-.045,7.044-.119,9.181-.317,9.186a43.559,43.559,0,0,1-4-3.856Z" transform="translate(90.331 -117.725)" fill="#fafafa"/>
  <path id="path3156" d="M12.144,137.258c-1.336-.07-2.171-.146-1.856-.169,1.092-.08,1.117-.285,1.117-9.409v-8.416l-.5-.4a2.43,2.43,0,0,0-1.162-.45c-.45-.031,8.873-.285,9.936-.271.02,0-.032.713-.115,1.585-.127,1.339-.176,1.481-.312.919-.3-1.236-.754-1.438-3.433-1.523l-2.408-.076v7.651h2.6a7.68,7.68,0,0,0,2.849-.25c.412-.412.463-.126.3,1.634-.144,1.514-.176,1.6-.32.889a1.65,1.65,0,0,0-.543-.995,13.018,13.018,0,0,0-2.649-.352l-2.265-.146.07,4.014c.052,3,.143,4.1.358,4.362.467.562,1.789.8,3.53.646,1.826-.166,2.287-.445,2.748-1.668l.318-.845-.113,1.33c-.186,2.2-.136,2.163-3.135,2.114-1.419-.023-3.674-.1-5.01-.169Z" transform="translate(75.616 -117.771)" fill="#fafafa"/>
  <path id="path3154" d="M30.3,137.258c-1.336-.07-2.171-.146-1.856-.169,1.092-.08,1.117-.285,1.117-9.409v-8.416l-.5-.4a2.43,2.43,0,0,0-1.162-.45c-.45-.031,8.873-.285,9.936-.271.02,0-.032.713-.115,1.585-.128,1.339-.176,1.481-.312.919-.3-1.257-.75-1.448-3.381-1.448H31.671l-.058,3.75-.058,3.75H34a11.948,11.948,0,0,0,2.875-.228c.235-.126.466-.189.515-.141a8.949,8.949,0,0,1-.058,1.76c-.138,1.578-.157,1.628-.339.876a1.77,1.77,0,0,0-.564-.995,13.085,13.085,0,0,0-2.619-.344l-2.248-.145.012,3.57c.014,4.33.168,4.933,1.357,5.322,1.089.357,3.968.133,4.566-.355a3.362,3.362,0,0,0,.737-1.187l.318-.845-.113,1.33c-.186,2.2-.136,2.163-3.135,2.114-1.419-.023-3.674-.1-5.01-.169Z" transform="translate(72.251 -117.771)" fill="#fafafa"/>
  <path id="path3152" d="M83.465,137.262c-1.336-.07-2.18-.146-1.874-.169,1.133-.086,1.13-.066,1.2-9.159l.062-8.419-.528-.528a2.083,2.083,0,0,0-1.224-.575c-.383-.026,1.681-.1,4.585-.158s5.307-.1,5.339-.089a10.5,10.5,0,0,1-.085,1.549L90.8,121.24l-.271-.788a2.331,2.331,0,0,0-.549-.962,8.472,8.472,0,0,0-3.553-.357l-1.585.066-.058,3.75-.058,3.75h2.448a11.945,11.945,0,0,0,2.875-.228c.235-.126.475-.18.534-.121a7.375,7.375,0,0,1-.067,1.76c-.107,1.017-.2,1.387-.244.962-.1-1.026-.668-1.275-3.265-1.443l-2.271-.147.012,3.57a22.486,22.486,0,0,0,.264,4.309c.348,1.02,1.353,1.34,3.6,1.144,1.91-.167,2.59-.584,2.9-1.78.149-.575.17-.418.095.714a4.932,4.932,0,0,1-.339,1.743c-.26.313-2.851.34-7.8.081Z" transform="translate(62.395 -117.775)" fill="#fafafa"/>
  <path id="path3150" d="M113.28,133.813c-2-2.023-5.345-5.564-7.438-7.87s-3.856-4.192-3.918-4.192c-.176,0,.166,12.891.367,13.811.223,1.024.414,1.214,1.416,1.408.5.1-.27.152-2.049.146-1.569-.005-2.543-.048-2.166-.095a1.266,1.266,0,0,0,.951-.547c.2-.345.281-2.778.33-9.625l.065-9.163.542.5c.3.275,3.678,3.9,7.511,8.053s7.03,7.553,7.1,7.553c.346,0-.106-14.394-.468-14.886a2.434,2.434,0,0,0-1.193-.516c-.743-.145-.328-.187,1.9-.191,2,0,2.663.051,2.219.184-1.178.351-1.16.213-1.183,9.481-.012,4.713-.1,8.807-.189,9.1-.159.5-.359.334-3.8-3.149Z" transform="translate(58.99 -117.687)" fill="#fafafa"/>
  <path id="path3146" d="M-86.183,101.673c-.262.023-.756,1.333-3.413,8.649-1.57,4.322-3.028,8.237-3.235,8.7a2.681,2.681,0,0,1-2.073,1.8c-.488.095.342.157,2.165.159,1.922,0,2.709-.056,2.245-.165-.847-.2-1.108-.547-.951-1.268a42.573,42.573,0,0,1,2.066-5.968,24.828,24.828,0,0,1,5.566.013,21.737,21.737,0,0,1,1.505,3.426c.915,2.392,1.2,3.367,1.056,3.638-.181.343-.012.37,2.4.35,2.091-.017,2.431-.06,1.756-.218-1.7-.4-1.858-.692-5.849-11.131-1.63-4.263-3.041-7.829-3.136-7.929-.034-.035-.062-.063-.1-.059Zm-.449,3.79a70.605,70.605,0,0,1,2.654,7.17,10.819,10.819,0,0,1-2.6.158h-2.614l1.182-3.7A18.48,18.48,0,0,1-86.632,105.462Z" transform="translate(95.042 -101.543)" fill="#fafafa"/>
  <path id="path3142" d="M-12.008,102.175c-1.541.009-2.292.056-1.921.132a2.114,2.114,0,0,1,1.083.522c.6.827.68,16.189.086,17.489a1.038,1.038,0,0,1-.918.654,10.965,10.965,0,0,0,2.509.086c1.743,0,2.745-.056,2.225-.125-1.368-.183-1.475-.516-1.479-4.509l-.007-3.327h3.6l1,1.413a41.882,41.882,0,0,0,4.945,6c.636.453.948.51,3.03.541,1.569.023,2.015-.01,1.373-.112-1.9-.3-2.863-1.147-6.318-5.513l-2.278-2.878.733-.839c3.153-3.605,2.99-7.5-.376-9.052-.858-.4-1.393-.439-5.493-.475-.677-.006-1.275-.01-1.789-.007Zm3.512.568c2.825.014,4.576,2.2,4.364,5.678a4.329,4.329,0,0,1-1.505,3.453,5.544,5.544,0,0,1-3.42.462c-.232-.055-.636-.149-.9-.2-.475-.1-.475-.107-.475-4.615v-4.509l.66-.132a6.351,6.351,0,0,1,1.274-.132Z" transform="translate(80.022 -101.636)" fill="#fafafa"/>
  <path id="path3168" d="M179.123,101.648a10.148,10.148,0,0,0-5.843,1.743,11.228,11.228,0,0,0-3.354,4.324c-2.156,5.7.658,11.866,6.127,13.435a15.415,15.415,0,0,0,6.78-.3,10.286,10.286,0,0,0,5.744-6.226,13,13,0,0,0-.007-6.985,9.572,9.572,0,0,0-2.773-3.935A10.772,10.772,0,0,0,179.123,101.648Zm-.951.805c.3,0,.647,0,1.07.02a5.585,5.585,0,0,1,3.143.7c3.449,1.887,5.168,6.573,4.159,11.329A7.08,7.08,0,0,1,182.517,120a5.059,5.059,0,0,1-2.852.588,11.3,11.3,0,0,1-2.113-.178,8.937,8.937,0,0,1-5.816-6.945c-1.032-4.868.732-9.271,4.252-10.6a5.437,5.437,0,0,1,2.185-.409Z" transform="translate(-138.646 -73.862)" fill="#fafafa"/>
  <path id="path3164" d="M229.7,101.648a10.148,10.148,0,0,0-5.843,1.743,11.227,11.227,0,0,0-3.354,4.324c-2.156,5.7.658,11.866,6.127,13.435a15.415,15.415,0,0,0,6.78-.3,10.286,10.286,0,0,0,5.744-6.226,13,13,0,0,0-.007-6.985,9.573,9.573,0,0,0-2.773-3.935A10.772,10.772,0,0,0,229.7,101.648Zm-.951.805c.3,0,.647,0,1.07.02a5.585,5.585,0,0,1,3.143.7c3.449,1.887,5.167,6.573,4.159,11.329A7.08,7.08,0,0,1,233.09,120a5.059,5.059,0,0,1-2.852.588,11.3,11.3,0,0,1-2.113-.178,8.936,8.936,0,0,1-5.817-6.945c-1.032-4.868.732-9.271,4.252-10.6a5.437,5.437,0,0,1,2.185-.409Z" transform="translate(-148.02 -73.862)" fill="#fafafa"/>
  <path id="path3160" d="M252.82,137.45c-.053-.145-1.007-3.306-2.119-7.025-2.862-9.571-3.231-10.724-3.577-11.175a3.022,3.022,0,0,0-1.318-.672c-.936-.252-.77-.27,2.264-.254a13.637,13.637,0,0,1,2.709.1c-.945.145-1.107.526-.828,1.946.264,1.341,3.587,13.373,3.734,13.52a.11.11,0,0,0,.164,0c.041-.048,1.323-3.457,2.849-7.575,2.628-7.093,3.04-8.063,3.309-7.794.062.062,1.307,3.525,2.766,7.7s2.693,7.623,2.742,7.672a.129.129,0,0,0,.182,0c.285-.285,4.133-13.637,4.133-14.339s-.079-.858-.475-.943l-.9-.191a11.82,11.82,0,0,1,2.43-.092c1.668,0,2.581.062,2.2.153a4.157,4.157,0,0,0-.9.31c-.546.337-1.36,2.468-3.921,10.265-1.47,4.474-2.766,8.276-2.881,8.451-.182.277-.245.269-.5-.057a49.732,49.732,0,0,1-1.782-4.648c-.823-2.35-1.988-5.682-2.589-7.4a11.373,11.373,0,0,0-1.264-2.958c-.094.095-1.371,3.4-2.838,7.342s-2.759,7.342-2.872,7.553c-.238.444-.583.5-.723.119Z" transform="translate(-152.755 -90.128)" fill="#fafafa"/>
  <path id="path3148" d="M320.663,137.3a15.77,15.77,0,0,1,1.82-3.222c5.6-8.6,9.317-14.38,9.418-14.644.093-.243-.314-.294-2.286-.287-1.32.005-3.387.091-4.593.191-2.028.168-2.241.228-2.812.8a4.641,4.641,0,0,0-.913,1.446c-.364,1.023-.382.682-.078-1.5l.236-1.69,6.577.071c3.618.039,6.6.1,6.638.131s-2.51,4.023-5.651,8.867-5.712,8.849-5.712,8.9c0,.146,8.529.11,9.277-.04a2.981,2.981,0,0,0,2.054-1.959c.072-.359.224-.653.339-.653.208,0,.163.425-.284,2.694l-.218,1.109h-6.839C323.156,137.517,320.751,137.442,320.663,137.3Z" transform="translate(-166.724 -90.143)" fill="#fafafa"/>
  <path id="path3138" d="M143.425,137.107c1.137-.243,1.161-.441,1.165-9.441,0-6.277-.06-8.336-.261-8.6a2.315,2.315,0,0,0-1.109-.547c-.641-.148-.078-.195,2.324-.194,2.083,0,2.919.059,2.44.172-1.2.283-1.278.544-1.278,4.368v3.446h11.2V122.86c0-2.424-.078-3.552-.264-3.805a2.418,2.418,0,0,0-1.215-.545c-.724-.141-.194-.187,2.218-.191,2.187,0,2.973.054,2.535.184a2,2,0,0,0-.9.55c-.382.522-.375,16.634.008,17.393.2.406.484.557,1.212.655.52.07-.48.127-2.223.127a12.77,12.77,0,0,1-2.6-.086c1.065-.163,1.119-.407,1.192-5.375l.068-4.616H146.706v4.194c0,5.394.039,5.513,1.9,5.806a14.1,14.1,0,0,1-2.641.087c-1.743,0-2.886-.057-2.541-.131Z" transform="translate(-133.783 -90.128)" fill="#fafafa"/>
  <path id="path3136" d="M200.1,102.126c-2.391.014-3.695.086-3.215.178,1.588.307,1.519-.128,1.519,9.256,0,9.061-.021,9.237-1.109,9.4a10.8,10.8,0,0,0,2.482.092,13.028,13.028,0,0,0,2.535-.079c-1.268-.2-1.445-.3-1.67-.951a21.338,21.338,0,0,1-.231-3.809v-3.143l1.849.059,1.849.059,1.056,1.459c2.542,3.512,4.341,5.615,5.163,6.034a5.47,5.47,0,0,0,2.911.4c1.808-.022,1.938-.048,1.043-.2a5.577,5.577,0,0,1-1.809-.687,34.579,34.579,0,0,1-5.13-5.645l-1.591-2.014.924-1.05c2.551-2.9,2.84-5.941.759-7.969-1.217-1.186-2.494-1.429-7.335-1.4Zm2.469.621a3.932,3.932,0,0,1,3.592,2.284,4.8,4.8,0,0,1,.588,2.859c0,1.948-.494,3.254-1.518,4a5.318,5.318,0,0,1-3.024.469,8.087,8.087,0,0,0-1-.218l-.792-.132v-9.038l.951-.145A6.818,6.818,0,0,1,202.573,102.747Z" transform="translate(-143.761 -73.951)" fill="#fafafa"/>
  <path id="path3132" d="M284.7,137.145c1.072-.165,1.13-.656,1.128-9.6,0-7.639-.028-8.195-.392-8.6a1.97,1.97,0,0,0-1.054-.514,9.436,9.436,0,0,1,2.4-.1c1.929-.008,2.8.05,2.357.155a2.518,2.518,0,0,0-.951.412c-.177.177-.245,2.6-.245,8.768,0,8.007.024,8.55.392,8.957a2.1,2.1,0,0,0,1.162.515c.423.045-.609.083-2.293.085a11.783,11.783,0,0,1-2.5-.082Z" transform="translate(-159.984 -90.131)" fill="#fafafa"/>
  <path id="path3128" d="M301.409,137.075a1.567,1.567,0,0,0,.951-.646c.33-.5.365-1.351.365-8.912v-8.354l-2.666.031c-2.923.034-3.372.168-4,1.2-.4.648-.41.653-.391.145a11.2,11.2,0,0,1,.267-1.584c.227-.967.292-1.047.772-.951.288.058,3.733.106,7.655.106h7.13l-.012,1.585c-.011,1.505-.025,1.548-.264.848-.352-1.029-.97-1.25-3.938-1.409l-2.569-.138.064,8.567c.06,8,.09,8.6.456,9a2.1,2.1,0,0,0,1.162.515c.423.045-.656.083-2.4.085a12.133,12.133,0,0,1-2.584-.085Z" transform="translate(-162.089 -90.064)" fill="#fafafa"/>
</svg>
