<svg id="Group_5881" data-name="Group 5881" xmlns="http://www.w3.org/2000/svg" width="141.242" height="28.426" viewBox="0 0 141.242 28.426">
  <path id="Path_3151" data-name="Path 3151" d="M624.477-483.562c-.094.456-.176.914-.283,1.367a6.651,6.651,0,0,1-6.173,5.469,11.649,11.649,0,0,1-6.711-.975c-.642-.32-1.224-.76-1.91-1.192l2.171-2.953a7.509,7.509,0,0,0,3.341,1.862,6.9,6.9,0,0,0,3.147-.016,3.287,3.287,0,0,0,2.615-2.572,14.746,14.746,0,0,0,.261-2.91,6.1,6.1,0,0,1-3.2,1.8,6.955,6.955,0,0,1-8.547-6.659,8.309,8.309,0,0,1,1.053-4.629,6.819,6.819,0,0,1,8.782-2.591,14.292,14.292,0,0,1,2.068,1.589v-1.93h3.384Zm-3.38-7.3a3.931,3.931,0,0,0-4.178-4.158,4.019,4.019,0,0,0-4.193,4.186,4.092,4.092,0,0,0,4.168,4.114A3.955,3.955,0,0,0,621.1-490.863Z" transform="translate(-483.235 505.04)" fill="#fafafa"/>
  <path id="Path_3156" data-name="Path 3156" d="M-459.761-531.314v-20.825c.171-.015.321-.04.472-.04,2.59,0,5.182-.067,7.769.029a10.524,10.524,0,0,1,3.31.674,4.586,4.586,0,0,1,2.99,4.615A4.577,4.577,0,0,1-448.4-542.5c-.108.042-.217.079-.384.139a1.082,1.082,0,0,0,.227.121,5.045,5.045,0,0,1,4.148,6.021,5.178,5.178,0,0,1-3.235,4.1,10.353,10.353,0,0,1-4.126.829c-2.55.031-5.1.011-7.652.01C-459.519-531.287-459.614-531.3-459.761-531.314Zm3.752-9.259v6.044c1.487,0,2.932.027,4.375-.014a5.822,5.822,0,0,0,1.608-.3,2.644,2.644,0,0,0,1.947-2.857,2.347,2.347,0,0,0-2.19-2.545C-452.156-540.484-454.075-540.474-456.009-540.573Zm-.014-3.162c1.46,0,2.851.019,4.241-.012a3.622,3.622,0,0,0,1.139-.265,2.355,2.355,0,0,0,1.682-2.416,2.263,2.263,0,0,0-1.844-2.279c-1.709-.482-3.456-.22-5.218-.276Z" transform="translate(459.761 552.632)" fill="#fafafa"/>
  <path id="Path_3157" data-name="Path 3157" d="M39.268-483.82h-3.5v-14.1h3.271v2.02a4.934,4.934,0,0,1,4.5-2.408,4.357,4.357,0,0,1,4.358,2.569c.082-.106.129-.162.17-.221a5.5,5.5,0,0,1,6.655-1.98,4.463,4.463,0,0,1,2.687,3.336,5.269,5.269,0,0,1,.209,1.212c.017,3.171.01,6.342.01,9.559h-3.5v-.624c0-2.409,0-4.818,0-7.227a8.3,8.3,0,0,0-.1-1.284,2.216,2.216,0,0,0-1.8-2.066,2.811,2.811,0,0,0-3.041,1.042,4.278,4.278,0,0,0-.716,2.616q0,3.437,0,6.874v.675H44.919v-.648q0-3.731,0-7.462c0-.157,0-.313,0-.47-.032-1.447-.643-2.383-1.715-2.632a2.991,2.991,0,0,0-3.488,1.522,5.294,5.294,0,0,0-.428,1.981c-.05,2.369-.02,4.739-.02,7.109Z" transform="translate(22.612 505.13)" fill="#fafafa"/>
  <path id="Path_3158" data-name="Path 3158" d="M246.363-555.828h3.52v8.87c.1-.022.146-.018.165-.038a6.237,6.237,0,0,1,7.069-1.579c2.674.931,4,3.047,4.406,5.748a8.274,8.274,0,0,1-.772,5.087,6.849,6.849,0,0,1-8.881,3.021,5.61,5.61,0,0,1-1.174-.769,12.171,12.171,0,0,1-1-1.063v2.022h-3.333Zm11.692,14.243a4.083,4.083,0,0,0-4.163-4.228,4.082,4.082,0,0,0-4.131,4.258,4.1,4.1,0,0,0,4.162,4.235A4.1,4.1,0,0,0,258.055-541.585Z" transform="translate(-163.165 555.83)" fill="#fafafa"/>
  <path id="Path_3159" data-name="Path 3159" d="M-258.232-490.531a7.346,7.346,0,0,1,7.729-7.418,7.354,7.354,0,0,1,7.692,7.46,7.356,7.356,0,0,1-7.734,7.417A7.339,7.339,0,0,1-258.232-490.531Zm3.549.034a4.123,4.123,0,0,0,4.172,4.238,4.13,4.13,0,0,0,4.148-4.264,4.114,4.114,0,0,0-4.174-4.232A4.111,4.111,0,0,0-254.683-490.5Z" transform="translate(281.976 504.771)" fill="#fafafa"/>
  <path id="Path_3160" data-name="Path 3160" d="M-98.512-490.457c-.019,4.294-3.277,7.4-7.751,7.385a7.351,7.351,0,0,1-7.659-7.491,7.358,7.358,0,0,1,7.766-7.385A7.322,7.322,0,0,1-98.512-490.457Zm-11.846-.027a4.1,4.1,0,0,0,4.176,4.224,4.1,4.1,0,0,0,4.123-4.277,4.09,4.09,0,0,0-4.176-4.217A4.087,4.087,0,0,0-110.359-490.484Z" transform="translate(154.668 504.772)" fill="#fafafa"/>
  <path id="Path_3161" data-name="Path 3161" d="M403.489-489.494h-10.9a3.465,3.465,0,0,0,2.187,3.02c2.156.826,3.944.141,5.436-1.571l2.528,1.907a7.464,7.464,0,0,1-5.143,2.805,7.513,7.513,0,0,1-8.13-4.843,7.148,7.148,0,0,1,1.672-7.774,7.5,7.5,0,0,1,7.945-1.826,5.934,5.934,0,0,1,4.048,4.917C403.349-491.793,403.369-490.689,403.489-489.494Zm-3.7-2.7A3.157,3.157,0,0,0,396.5-495.5a3.447,3.447,0,0,0-3.849,3.312Z" transform="translate(-288.992 504.996)" fill="#fafafa"/>
  <path id="Path_3162" data-name="Path 3162" d="M-308.017-555.849h3.48v21.307h-3.48Z" transform="translate(325.893 555.849)" fill="#fafafa"/>
  <path id="Path_3163" data-name="Path 3163" d="M540.011-494.383a17.988,17.988,0,0,0-1.944-.175,3.471,3.471,0,0,0-3.574,3.625c-.015,2.27,0,4.54,0,6.81v.664h-3.527v-14.084h3.517v2.237c.169-.28.248-.418.334-.553a4.565,4.565,0,0,1,4.68-2.009c.356.068.542.183.527.6C539.988-496.314,540.011-495.356,540.011-494.383Z" transform="translate(-414.236 504.77)" fill="#fafafa"/>
</svg>
