<svg xmlns="http://www.w3.org/2000/svg" width="80" height="80"><defs><style>.b{fill:#fff}</style></defs><path fill="none" d="M0 0h80v80H0z"/><path class="b" d="M59.9 40a3.3 3.3 0 0 0 3.3 3.3h6.6A3.3 3.3 0 0 0 73 40a3.3 3.3 0 0 0-3.3-3.3h-6.6a3.3 3.3 0 0 0-3.3 3.3ZM55.2 56a3.2 3.2 0 0 0 .7 4.5l5.3 4a3.2 3.2 0 0 0 4.6-.7 3.2 3.2 0 0 0-.7-4.6l-5.3-4a3.3 3.3 0 0 0-4.6.7ZM65.8 16.2a3.2 3.2 0 0 0-4.6-.7l-5.3 4a3.2 3.2 0 0 0-.6 4.6 3.2 3.2 0 0 0 4.6.7l5.3-4a3.3 3.3 0 0 0 .6-4.6ZM26.8 30H13.5A6.6 6.6 0 0 0 7 36.8v6.6a6.6 6.6 0 0 0 6.6 6.6h3.3v10a3.3 3.3 0 0 0 3.3 3.3 3.3 3.3 0 0 0 3.4-3.3v-10h3.3l16.5 10V20ZM51.6 40a14.8 14.8 0 0 0-5-11v22a14.7 14.7 0 0 0 5-11Z"/></svg>