<svg xmlns="http://www.w3.org/2000/svg" width="48" height="48" viewBox="0 0 48 48"><g transform="translate(4958 2279.576)"><rect width="48" height="48" rx="8" transform="translate(-4958 -2279.576)" fill="#56a8f7" opacity="0.08"/><g transform="translate(-4950 -2271.576)"><path d="M25.667,9.333H22.333V6.667A2.675,2.675,0,0,0,19.667,4h-16A2.675,2.675,0,0,0,1,6.667v12a2.675,2.675,0,0,0,2.667,2.667,4,4,0,0,0,8,0h8a4,4,0,0,0,8,0H29A1.337,1.337,0,0,0,30.333,20V15.56a2.683,2.683,0,0,0-.533-1.6L26.733,9.867a1.352,1.352,0,0,0-1.067-.533Zm-18,13.333A1.333,1.333,0,1,1,9,21.333,1.337,1.337,0,0,1,7.667,22.667Zm18-11.333,2.613,3.333H22.333V11.333Zm-2,11.333A1.333,1.333,0,1,1,25,21.333,1.337,1.337,0,0,1,23.667,22.667Z" transform="translate(0.333 1.333)" fill="#56a8f7"/><path d="M0,0H32V32H0Z" fill="none"/></g></g></svg>