<svg xmlns="http://www.w3.org/2000/svg" width="48" height="48" viewBox="0 0 48 48"><g transform="translate(4958 2279.576)"><rect width="48" height="48" rx="8" transform="translate(-4958 -2279.576)" fill="#56a8f7" opacity="0.08"/><g transform="translate(-4950 -2271.576)"><rect width="32" height="32" fill="none"/><g transform="translate(2.667 2.666)"><path d="M25.773,9.333,22.747,6.307a7.138,7.138,0,0,1,.427-1.533,1.993,1.993,0,0,0,.12-1.16A2.074,2.074,0,0,0,21.2,2,6.674,6.674,0,0,0,16,4.667H9.333A7.329,7.329,0,0,0,2,12c0,3,1.827,9.973,2.773,13.387a2.672,2.672,0,0,0,2.573,1.947H10a2.675,2.675,0,0,0,2.667-2.667h2.667A2.675,2.675,0,0,0,18,27.333h2.68a2.684,2.684,0,0,0,2.56-1.907l1.667-5.547,2.853-.96a1.334,1.334,0,0,0,.907-1.267V10.667a1.337,1.337,0,0,0-1.333-1.333Zm-10.44,2h-4A1.337,1.337,0,0,1,10,10h0a1.337,1.337,0,0,1,1.333-1.333h4A1.337,1.337,0,0,1,16.667,10h0A1.337,1.337,0,0,1,15.333,11.333ZM20.667,14A1.333,1.333,0,1,1,22,12.667,1.337,1.337,0,0,1,20.667,14Z" transform="translate(-2 -2)" fill="#56a8f7"/></g></g></g></svg>