<svg id="Group_5880" data-name="Group 5880" xmlns="http://www.w3.org/2000/svg" width="261.826" height="26.163" viewBox="0 0 261.826 26.163">
  <rect id="Rectangle_968" data-name="Rectangle 968" width="26.163" height="6.541" transform="translate(0 0)" fill="#fafafa" opacity="0.8"/>
  <rect id="Rectangle_969" data-name="Rectangle 969" width="26.163" height="6.541" transform="translate(0 6.541)" fill="#fafafa" opacity="0.4"/>
  <rect id="Rectangle_970" data-name="Rectangle 970" width="26.163" height="6.541" transform="translate(0 13.081)" fill="#fafafa" opacity="0.6"/>
  <rect id="Rectangle_971" data-name="Rectangle 971" width="26.163" height="6.541" transform="translate(0 19.622)" fill="#fafafa"/>
  <path id="Path_3139" data-name="Path 3139" d="M-417.822,505.282v4.36h5.946v1.982h-5.946v6.343H-420.2V503.3h9.91v1.982h-7.532Z" transform="translate(467.37 -497.552)" fill="#fafafa"/>
  <path id="Path_3140" data-name="Path 3140" d="M-404.375,503.3a4.087,4.087,0,0,1,2.577.595c.793.793,1.387,1.784,1.387,6.739s-.595,5.946-1.387,6.739a3.718,3.718,0,0,1-2.577.595h-4.361a4.087,4.087,0,0,1-2.577-.595c-.793-.793-1.388-1.784-1.388-6.739s.595-5.946,1.388-6.739a3.718,3.718,0,0,1,2.577-.595Zm-5.351,12.487c.2.2.4.2,1.189.2h3.964c.793,0,.991,0,1.189-.2s.595-.793.595-5.153c0-4.162-.4-4.955-.595-5.153s-.4-.2-1.189-.2h-3.964c-.793,0-.991,0-1.189.2s-.595.793-.595,5.153C-410.123,514.8-409.925,515.589-409.727,515.787Z" transform="translate(474.738 -497.552)" fill="#fafafa"/>
  <path id="Path_3141" data-name="Path 3141" d="M-391.31,511.823c0,3.766-.4,4.361-1.189,5.153-.793.595-1.784.793-3.766.793h-2.18c-1.982,0-2.973-.2-3.766-.793-.793-.793-1.189-1.586-1.189-5.153V503.3h2.378v9.117c0,2.576.2,2.973.595,3.171.2.2.595.4,2.378.4h1.387c1.586,0,1.982,0,2.378-.4s.4-.4.4-3.171V503.3h2.379v8.523Z" transform="translate(483.87 -497.552)" fill="#fafafa"/>
  <path id="Path_3142" data-name="Path 3142" d="M-381.513,518.065h-2.577a1.413,1.413,0,0,1-1.189-.595l-5.946-10.9h-.4v11.5H-394V503.4h2.775a1.413,1.413,0,0,1,1.189.595l5.748,10.307h.4V503.2h2.378Z" transform="translate(493.1 -497.65)" fill="#fafafa"/>
  <path id="Path_3143" data-name="Path 3143" d="M-377.561,503.3c1.784,0,2.973.2,3.766.991.991.793,1.586,2.775,1.586,6.343s-.4,5.351-1.586,6.342c-.793.793-1.784.991-3.766.991H-384.3V503.3h6.739Zm1.784,2.378c-.4-.4-.991-.4-1.784-.4h-4.162v10.7h4.162c.991,0,1.387,0,1.784-.4.595-.595.793-1.586.793-4.757C-374.786,507.264-375.183,506.273-375.777,505.678Z" transform="translate(502.626 -497.552)" fill="#fafafa"/>
  <path id="Path_3144" data-name="Path 3144" d="M-364.7,517.967h-10.5V503.3h10.5v1.982h-8.126v3.964h6.739v1.982h-6.739v4.559h8.126Z" transform="translate(511.564 -497.552)" fill="#fafafa"/>
  <path id="Path_3145" data-name="Path 3145" d="M-358.475,512.121c-.2-.2-.793-.2-1.586-.2h-4.361v6.144H-366.8V503.4h8.325a3.189,3.189,0,0,1,2.18.594c.594.595.991,1.387.991,3.568,0,2.577-.793,3.369-2.577,3.568h0c1.586.2,2.18.595,2.379,2.775,0,1.982.2,3.369.2,4.162h-2.379a22.832,22.832,0,0,1-.2-3.964C-358.079,512.716-358.277,512.319-358.475,512.121Zm-.793-2.18a4.034,4.034,0,0,0,.991-.2c.2-.2.4-.595.4-2.18s-.2-1.982-.4-2.18-.4-.2-.991-.2h-5.153v4.757h5.153Z" transform="translate(519.81 -497.454)" fill="#fafafa"/>
  <path id="Path_3146" data-name="Path 3146" d="M-347.3,517.274a3.443,3.443,0,0,1-2.378.595h-5.153a3.444,3.444,0,0,1-2.378-.595c-.595-.595-.793-1.387-.793-3.964h2.379a10.913,10.913,0,0,0,.2,2.379c.2.2.4.2.991.2h4.36c.595,0,.793,0,.991-.2s.2-.793.2-1.982c0-.991,0-1.387-.2-1.586s-.4-.2-.991-.2l-4.757-.4a3.831,3.831,0,0,1-2.18-.793c-.595-.595-.793-1.189-.793-3.171s.2-2.775.991-3.568a3.444,3.444,0,0,1,2.378-.594h4.757a3.444,3.444,0,0,1,2.378.594c.595.595.793,1.189.793,3.964h-2.378a6.293,6.293,0,0,0-.2-2.18c-.2-.2-.4-.2-.991-.2h-3.964c-.595,0-.793,0-.991.2s-.2.793-.2,1.982c0,.991,0,1.387.2,1.585s.4.2.991.2l4.757.4a2.47,2.47,0,0,1,2.18.793c.595.595.793,1.189.793,3.369C-346.306,515.689-346.5,516.481-347.3,517.274Z" transform="translate(528.455 -497.454)" fill="#fafafa"/>
  <path id="Path_3147" data-name="Path 3147" d="M-342.521,505.282v4.36h5.946v1.982h-5.946v6.343H-344.9V503.3h9.91v1.982h-7.532Z" transform="translate(541.318 -497.552)" fill="#fafafa"/>
  <path id="Path_3148" data-name="Path 3148" d="M-325.01,511.823c0,3.766-.4,4.361-1.189,5.153-.793.595-1.784.793-3.766.793h-2.18c-1.982,0-2.973-.2-3.766-.793-.793-.793-1.189-1.586-1.189-5.153V503.3h2.378v9.117c0,2.576.2,2.973.595,3.171.2.2.595.4,2.378.4h1.388c1.586,0,1.982,0,2.379-.4s.4-.4.4-3.171V503.3h2.378v8.523Z" transform="translate(548.979 -497.552)" fill="#fafafa"/>
  <path id="Path_3149" data-name="Path 3149" d="M-315.213,518.065h-2.577a1.413,1.413,0,0,1-1.189-.595l-5.946-10.9h-.4v11.5H-327.7V503.4h2.775a1.413,1.413,0,0,1,1.189.595l5.748,10.307h.4V503.2h2.378Z" transform="translate(558.209 -497.65)" fill="#fafafa"/>
  <path id="Path_3150" data-name="Path 3150" d="M-311.261,503.3c1.784,0,2.973.2,3.766.991.991.793,1.586,2.775,1.586,6.343s-.4,5.351-1.586,6.342c-.793.793-1.784.991-3.766.991H-318V503.3h6.739Zm1.784,2.378c-.4-.4-.991-.4-1.784-.4h-4.162v10.7h4.162c.991,0,1.388,0,1.784-.4.595-.595.793-1.586.793-4.757C-308.684,507.264-308.883,506.273-309.477,505.678Z" transform="translate(567.735 -497.552)" fill="#fafafa"/>
</svg>
