<svg id="Group_5877" data-name="Group 5877" xmlns="http://www.w3.org/2000/svg" width="132.499" height="41.671" viewBox="0 0 132.499 41.671">
  <path id="Path_3716" data-name="Path 3716" d="M186.6,395.664v4.459h10.658a9.451,9.451,0,0,1-2.429,5.619A10.912,10.912,0,0,1,186.6,409a11.855,11.855,0,0,1,0-23.709,11.333,11.333,0,0,1,8.03,3.19l3.135-3.136a15.394,15.394,0,0,0-11.165-4.531,16.315,16.315,0,1,0,0,32.626,14.95,14.95,0,0,0,11.383-4.568c2.936-2.936,3.861-7.087,3.861-10.422a14.332,14.332,0,0,0-.236-2.792Z" transform="translate(-170.054 -380.819)" fill="#fafafa"/>
  <path id="Path_3717" data-name="Path 3717" d="M247.154,402.427a10.531,10.531,0,1,0,10.567,10.531A10.377,10.377,0,0,0,247.154,402.427Zm0,16.911a6.4,6.4,0,1,1,5.945-6.38A6.091,6.091,0,0,1,247.154,419.338Z" transform="translate(-202.039 -391.207)" fill="#fafafa"/>
  <path id="Path_3718" data-name="Path 3718" d="M342.3,404.783h-.163a7.3,7.3,0,0,0-5.547-2.356c-5.256,0-9.842,4.585-9.842,10.531,0,5.909,4.586,10.531,9.842,10.531a7.192,7.192,0,0,0,5.547-2.393h.163v1.468c0,4.024-2.157,6.181-5.619,6.181a5.84,5.84,0,0,1-5.311-3.752l-4.024,1.668a10.033,10.033,0,0,0,9.335,6.217c5.419,0,10.005-3.19,10.005-10.966V402.971H342.3Zm-5.311,14.555c-3.19,0-5.619-2.719-5.619-6.38,0-3.716,2.429-6.38,5.619-6.38,3.154,0,5.619,2.719,5.619,6.417C342.631,416.674,340.148,419.338,336.994,419.338Z" transform="translate(-245.384 -391.207)" fill="#fafafa"/>
  <path id="Path_3719" data-name="Path 3719" d="M292.534,402.427A10.531,10.531,0,1,0,303.1,412.958,10.377,10.377,0,0,0,292.534,402.427Zm0,16.911a6.4,6.4,0,1,1,5.945-6.38A6.091,6.091,0,0,1,292.534,419.338Z" transform="translate(-223.856 -391.207)" fill="#fafafa"/>
  <path id="Path_3720" data-name="Path 3720" d="M372.132,381.657h4.549V413.5h-4.549Z" transform="translate(-267.201 -381.222)" fill="#fafafa"/>
  <path id="Path_3721" data-name="Path 3721" d="M398.281,419.338a5.36,5.36,0,0,1-5.111-3.19l14.084-5.818-.471-1.2c-.87-2.356-3.553-6.706-9.009-6.706-5.419,0-9.933,4.259-9.933,10.531a10.294,10.294,0,0,0,10.441,10.531,10.508,10.508,0,0,0,8.773-4.658l-3.589-2.393a6.031,6.031,0,0,1-5.184,2.9Zm-.327-12.96a4.164,4.164,0,0,1,3.988,2.32l-9.516,3.933C392.426,408.209,395.561,406.379,397.954,406.379Z" transform="translate(-274.754 -391.207)" fill="#fafafa"/>
</svg>
