<svg xmlns="http://www.w3.org/2000/svg" width="40" height="40"><g transform="translate(-185 -2407)"><rect width="40" height="40" rx="8" transform="translate(185 2407)" fill="rgba(248,101,103,0.08)"/><path d="M189 2411h32v32h-32z" fill="none"/><path d="M198.973 2425.783c-2.512-.653-3.32-1.328-3.32-2.379 0-1.206 1.118-2.047 2.988-2.047 1.571 0 2.357.6 2.645 1.549a1.024 1.024 0 00.963.775h.332a1.049 1.049 0 001-1.405 4.422 4.422 0 00-3.275-2.811v-.764a1.66 1.66 0 10-3.32 0v.73c-2.152.465-3.878 1.859-3.878 3.995 0 2.556 2.114 3.829 5.2 4.57 2.766.664 3.32 1.638 3.32 2.667 0 .764-.542 1.981-2.988 1.981-1.826 0-2.766-.653-3.132-1.582a1.089 1.089 0 00-1-.741h-.3a1.055 1.055 0 00-.985 1.439 4.978 4.978 0 003.762 2.8v.741a1.66 1.66 0 103.32 0v-.719c2.158-.409 3.873-1.66 3.873-3.928 0-3.143-2.689-4.216-5.2-4.869z" fill="#f86567"/><path d="M211.691 2425.783c-2.512-.653-3.32-1.328-3.32-2.379 0-1.206 1.118-2.047 2.988-2.047 1.571 0 2.357.6 2.645 1.549a1.024 1.024 0 00.963.775h.332a1.049 1.049 0 001-1.405 4.422 4.422 0 00-3.275-2.811v-.764a1.66 1.66 0 10-3.32 0v.73c-2.152.465-3.878 1.859-3.878 3.995 0 2.556 2.114 3.829 5.2 4.57 2.766.664 3.32 1.638 3.32 2.667 0 .764-.542 1.981-2.988 1.981-1.826 0-2.766-.653-3.132-1.582a1.089 1.089 0 00-1-.741h-.3a1.055 1.055 0 00-.985 1.439 4.978 4.978 0 003.762 2.8v.741a1.66 1.66 0 103.32 0v-.719c2.158-.409 3.873-1.66 3.873-3.928 0-3.143-2.689-4.216-5.2-4.869z" fill="#f86567" opacity=".32"/></g></svg>