<svg xmlns="http://www.w3.org/2000/svg" width="40" height="40"><g transform="translate(-185 -2407)"><rect width="40" height="40" rx="8" transform="translate(185 2407)" fill="rgba(102,204,128,0.08)"/><path d="M189 2411h32v32h-32z" fill="none"/><path d="M203.92 2412.813l-9.333 4.147a2.678 2.678 0 00-1.587 2.436v6.267c0 7.4 5.12 14.32 12 16 6.88-1.68 12-8.6 12-16v-6.267a2.678 2.678 0 00-1.587-2.44l-9.333-4.142a2.651 2.651 0 00-2.16 0zm-2.533 19.907l-3.454-3.453a1.33 1.33 0 011.88-1.88l2.52 2.507 7.84-7.84a1.33 1.33 0 011.88 1.88l-8.787 8.787a1.328 1.328 0 01-1.88 0z" fill="#66cc80"/></g></svg>