<svg xmlns="http://www.w3.org/2000/svg" width="40" height="40"><g transform="translate(-185 -2407)"><rect width="40" height="40" rx="8" transform="translate(185 2407)" fill="rgba(255,207,63,0.08)"/><path fill="none" d="M189 2411h32v32h-32z"/><path fill="none" d="M189 2411h32v32h-32z"/><path d="M211.666 2424.907V2415a1.337 1.337 0 00-1.333-1.333h-10.667a1.337 1.337 0 00-1.333 1.333v9.907a1.32 1.32 0 00.653 1.147l5.573 3.347-1.32 3.12-2.96.253a.668.668 0 00-.4 1.173l2.254 1.947-.68 2.907a.669.669 0 001 .72l2.547-1.547 2.547 1.533a.669.669 0 001-.72l-.68-2.907 2.253-1.947a.671.671 0 00-.387-1.173l-2.96-.253-1.32-3.12 5.573-3.347a1.283 1.283 0 00.64-1.133zm-5.333 2.4l-1.333.8-1.333-.8V2415h2.666z" fill="#ffcf3f"/></g></svg>