<svg xmlns="http://www.w3.org/2000/svg" width="40" height="40"><g transform="translate(-185 -2407)"><rect width="40" height="40" rx="8" transform="translate(185 2407)" fill="rgba(65,191,173,0.08)"/><path d="M189 2411h32v32h-32z" fill="none"/><path d="M214.333 2415h-5.573a3.984 3.984 0 00-7.52 0h-5.573a2.675 2.675 0 00-2.667 2.666v18.667a2.675 2.675 0 002.667 2.667h18.666a2.675 2.675 0 002.667-2.667v-18.667a2.675 2.675 0 00-2.667-2.666zm-9.333 0a1.333 1.333 0 11-1.333 1.333A1.337 1.337 0 01205 2415zm-3.613 17.72l-3.454-3.454a1.33 1.33 0 011.88-1.88l2.52 2.507 7.84-7.84a1.33 1.33 0 011.88 1.88l-8.787 8.787a1.328 1.328 0 01-1.88 0z" fill="#41bfad"/></g></svg>