<svg xmlns="http://www.w3.org/2000/svg" width="40" height="40"><g transform="translate(-185 -2407)"><rect width="40" height="40" rx="8" transform="translate(185 2407)" fill="rgba(138,98,214,0.08)"/><path d="M189 2411h32v32h-32z" fill="none"/><path d="M214.333 2415H213v-1.334a1.333 1.333 0 00-2.667 0V2415h-10.666v-1.334a1.333 1.333 0 10-2.667 0V2415h-1.333a2.655 2.655 0 00-2.654 2.666l-.013 18.667a2.666 2.666 0 002.667 2.667h18.666a2.675 2.675 0 002.667-2.667v-18.667a2.675 2.675 0 00-2.667-2.666zM213 2436.333h-16a1.337 1.337 0 01-1.333-1.333v-13.334h18.666V2435a1.337 1.337 0 01-1.333 1.333zm-13.333-12h4a1.337 1.337 0 011.333 1.333v4a1.337 1.337 0 01-1.333 1.333h-4a1.337 1.337 0 01-1.333-1.333v-4a1.337 1.337 0 011.333-1.333z" fill="#8a62d6"/></g></svg>