<svg xmlns="http://www.w3.org/2000/svg" width="40" height="40"><g transform="translate(-185 -2407)"><rect width="40" height="40" rx="8" transform="translate(185 2407)" fill="rgba(61,190,248,0.08)"/><path d="M189 2411h32v32h-32z" fill="none"/><path d="M205 2413.667A13.333 13.333 0 10218.334 2427 13.338 13.338 0 00205 2413.667zm4.813 8.453a2.573 2.573 0 11-2.573 2.573 2.566 2.566 0 012.573-2.573zm-8-2.107a3.147 3.147 0 11-3.146 3.147 3.152 3.152 0 013.147-3.146zm0 12.173v5a10.676 10.676 0 01-6.853-6.613c1.4-1.493 4.893-2.253 6.853-2.253a13.563 13.563 0 012.533.293c-2.186 1.161-2.532 2.694-2.532 3.574zm3.187 5.481a9.134 9.134 0 01-1.053-.053v-5.427c0-1.893 3.92-2.84 5.867-2.84a9.453 9.453 0 015.12 1.533 10.692 10.692 0 01-9.934 6.787z" fill="#3dbef8"/></g></svg>