<svg xmlns="http://www.w3.org/2000/svg" width="40" height="40"><g transform="translate(-185 -2407)"><rect width="40" height="40" rx="8" transform="translate(185 2407)" fill="rgba(255,174,59,0.08)"/><path d="M189 2411h32v32h-32z" fill="none"/><path d="M200.6 2432.2l-5.2-5.2 5.2-5.2a1.32 1.32 0 00-1.866-1.864l-6.12 6.12a1.328 1.328 0 000 1.88l6.12 6.133a1.32 1.32 0 001.867-1.867zm8.8 0l5.2-5.2-5.2-5.2a1.32 1.32 0 011.867-1.864l6.12 6.12a1.328 1.328 0 010 1.88l-6.12 6.133a1.32 1.32 0 01-1.867-1.867z" fill="#ffae3b"/></g></svg>