<svg id="Group_5879" data-name="Group 5879" xmlns="http://www.w3.org/2000/svg" width="257.188" height="23.787" viewBox="0 0 257.188 23.787">
  <path id="Path_3123" data-name="Path 3123" d="M212.78,235.179h-2.83l-6.338,5.333v-5.333h-2.276v11.65h2.276v-3.774l2.379-1.887,4.943,5.661h2.954l-6.256-7.179Z" transform="translate(-164.859 -229.263)" fill="#fafafa"/>
  <path id="Path_3124" data-name="Path 3124" d="M261.289,235.179h-2.277v11.65h9.866V244.8h-7.589Z" transform="translate(-205.388 -229.263)" fill="#fafafa"/>
  <path id="Path_3125" data-name="Path 3125" d="M309.044,241.763H313.8v-2.01h-4.759V237.21H316.9v-2.031H306.767v11.65h10.6V244.8h-8.327Z" transform="translate(-238.942 -229.263)" fill="#fafafa"/>
  <rect id="Rectangle_966" data-name="Rectangle 966" width="2.277" height="11.65" transform="translate(84.13 5.916)" fill="#fafafa"/>
  <path id="Path_3126" data-name="Path 3126" d="M401.442,243.116h-.021l-6.974-7.938h-2.01v11.65h2.277v-7.938h.021l6.974,7.938h2.01v-11.65h-2.277Z" transform="translate(-299.138 -229.263)" fill="#fafafa"/>
  <path id="Path_3127" data-name="Path 3127" d="M455.83,241.763h4.759v-2.01H455.83V237.21h7.855v-2.031H453.553v11.65h10.6V244.8H455.83Z" transform="translate(-342.081 -229.263)" fill="#fafafa"/>
  <path id="Path_3128" data-name="Path 3128" d="M519.939,238.83a3.373,3.373,0,0,0-.985-2.359,4.855,4.855,0,0,0-3.713-1.292h-6.85v11.65h2.277V242.5h4.225l2.626,4.328h2.625l-2.913-4.656A3.608,3.608,0,0,0,519.939,238.83Zm-4.369,1.662h-4.9V237.21h4.574a2.441,2.441,0,0,1,2.01.657,1.472,1.472,0,0,1,.41.984A1.93,1.93,0,0,1,515.57,240.491Z" transform="translate(-380.614 -229.263)" fill="#fafafa"/>
  <path id="Path_3129" data-name="Path 3129" d="M594.009,235.179H587.1v11.65h2.276V242.5h4.574a4.819,4.819,0,0,0,3.692-1.251,3.274,3.274,0,0,0,1-2.4,3.359,3.359,0,0,0-.984-2.42A4.859,4.859,0,0,0,594.009,235.179Zm1.907,4.718a2.61,2.61,0,0,1-1.969.595h-4.574V237.21h4.636a2.535,2.535,0,0,1,1.969.636,1.463,1.463,0,0,1,.39,1.005A1.479,1.479,0,0,1,595.916,239.9Z" transform="translate(-435.916 -229.263)" fill="#fafafa"/>
  <path id="Path_3130" data-name="Path 3130" d="M644.567,241.807h4.759V239.8h-4.759v-2.543h7.856v-2.031H642.291v11.65h10.6v-2.031h-8.327Z" transform="translate(-474.699 -229.294)" fill="#fafafa"/>
  <path id="Path_3131" data-name="Path 3131" d="M708.675,238.873a3.373,3.373,0,0,0-.985-2.359,4.854,4.854,0,0,0-3.712-1.292h-6.851v11.65H699.4v-4.328h4.225l2.625,4.328h2.626l-2.912-4.656A3.608,3.608,0,0,0,708.675,238.873Zm-4.369,1.662h-4.9v-3.282h4.574a2.441,2.441,0,0,1,2.01.657,1.471,1.471,0,0,1,.411.985A1.931,1.931,0,0,1,704.307,240.534Z" transform="translate(-513.233 -229.293)" fill="#fafafa"/>
  <path id="Path_3132" data-name="Path 3132" d="M767.267,235.222h-2.831l-6.337,5.333v-5.333h-2.277v11.65H758.1V243.1l2.379-1.887,4.943,5.661h2.954l-6.256-7.179Z" transform="translate(-554.474 -229.293)" fill="#fafafa"/>
  <rect id="Rectangle_967" data-name="Rectangle 967" width="2.276" height="11.65" transform="translate(218.492 5.929)" fill="#fafafa"/>
  <path id="Path_3133" data-name="Path 3133" d="M853.313,243.16h-.021l-6.974-7.938h-2.01v11.65h2.277v-7.938h.021l6.974,7.938h2.01v-11.65h-2.277Z" transform="translate(-616.651 -229.293)" fill="#fafafa"/>
  <path id="Path_3134" data-name="Path 3134" d="M908.621,238.623c-1.846-.123-3.63-.164-3.63-1.292,0-1.107,1.21-1.5,2.667-1.5a7.467,7.467,0,0,1,4.594,1.313l1.395-1.579a10.735,10.735,0,0,0-5.907-1.722c-2.3,0-5.046.841-5.046,3.691,0,2.892,3.159,3.1,5.928,3.3,2.195.164,3.466.492,3.466,1.8,0,1.169-1.374,1.682-3.138,1.682a8.441,8.441,0,0,1-5.558-2.092l-1.374,1.579a10.268,10.268,0,0,0,6.892,2.5c2.974,0,5.477-1.108,5.477-3.979C914.385,238.992,910.857,238.766,908.621,238.623Z" transform="translate(-657.197 -228.325)" fill="#fafafa"/>
  <path id="Path_3135" data-name="Path 3135" d="M80.646,215.283a1.982,1.982,0,0,0-1.982,1.982v9.912l11.894-11.894Z" transform="translate(-78.664 -215.283)" fill="#fafafa"/>
  <path id="Path_3136" data-name="Path 3136" d="M78.664,265.194a1.982,1.982,0,0,0,1.982,1.982h9.912L78.664,255.283Z" transform="translate(-78.664 -243.389)" fill="#fafafa"/>
  <path id="Path_3137" data-name="Path 3137" d="M118.664,257.265v9.912l11.894-11.894h-9.912A1.982,1.982,0,0,0,118.664,257.265Z" transform="translate(-106.771 -243.389)" fill="#fafafa"/>
  <path id="Path_3138" data-name="Path 3138" d="M128.575,215.283h-9.911l11.894,11.894v-9.912A1.982,1.982,0,0,0,128.575,215.283Z" transform="translate(-106.771 -215.283)" fill="#fafafa"/>
</svg>
