<svg xmlns="http://www.w3.org/2000/svg" width="48" height="48" viewBox="0 0 48 48"><g transform="translate(4958 2279.576)"><rect width="48" height="48" rx="8" transform="translate(-4958 -2279.576)" fill="#56a8f7" opacity="0.08"/><g transform="translate(-4950 -2271.576)"><path d="M0,0H32V32H0Z" fill="none"/><path d="M27.88,14.773l-12-12A2.65,2.65,0,0,0,14,2H4.667A2.675,2.675,0,0,0,2,4.667V14a2.661,2.661,0,0,0,.787,1.893l12,12a2.65,2.65,0,0,0,1.88.773,2.607,2.607,0,0,0,1.88-.787l9.333-9.333a2.607,2.607,0,0,0,.787-1.88A2.693,2.693,0,0,0,27.88,14.773ZM6.667,8.667a2,2,0,1,1,2-2A2,2,0,0,1,6.667,8.667Z" transform="translate(0.667 0.667)" fill="#56a8f7"/></g></g></svg>