<svg id="format_quote_black_24dp" xmlns="http://www.w3.org/2000/svg" width="40" height="40" viewBox="0 0 40 40">
  <path id="Path_9394" data-name="Path 9394" d="M0,0H40V40H0Z" fill="none"/>
  <path id="Path_9395" data-name="Path 9395" d="M9.283,23.667a2.23,2.23,0,0,0,2-1.233L13.65,17.7A3.29,3.29,0,0,0,14,16.217V8.667A1.672,1.672,0,0,0,12.333,7H5.667A1.672,1.672,0,0,0,4,8.667v6.667A1.672,1.672,0,0,0,5.667,17H9L7.283,20.433A2.231,2.231,0,0,0,9.283,23.667Zm16.667,0a2.23,2.23,0,0,0,2-1.233L30.317,17.7a3.29,3.29,0,0,0,.35-1.483V8.667A1.672,1.672,0,0,0,29,7H22.333a1.672,1.672,0,0,0-1.667,1.667v6.667A1.672,1.672,0,0,0,22.333,17h3.333L23.95,20.433A2.231,2.231,0,0,0,25.95,23.667Z" transform="translate(2.667 4.667)" fill="#fff"/>
</svg>
