<svg xmlns="http://www.w3.org/2000/svg" xmlns:xlink="http://www.w3.org/1999/xlink" viewBox="0 0 516.259 406.887"><defs><linearGradient id="a" x1="-63.776" y1="-12.24" x2="-63.524" y2="-12.026" gradientUnits="objectBoundingBox"><stop offset="0" stop-color="#5a9fd4"/><stop offset="1" stop-color="#306998"/></linearGradient><linearGradient id="b" x1="-63.646" y1="-12.148" x2="-63.735" y2="-12.273" gradientUnits="objectBoundingBox"><stop offset="0" stop-color="#ffd43b"/><stop offset="1" stop-color="#ffe873"/></linearGradient><linearGradient id="c" x1="-8.108" y1="-20.669" x2="-8.109" y2="-20.669" gradientUnits="objectBoundingBox"><stop offset="0" stop-color="#fb7655"/><stop offset=".41" stop-color="#e42b1e"/><stop offset=".99" stop-color="#900"/><stop offset="1" stop-color="#900"/></linearGradient><linearGradient id="d" x1="-29.621" y1="-38.182" x2="-29.623" y2="-38.182" gradientUnits="objectBoundingBox"><stop offset="0" stop-color="#871101"/><stop offset=".99" stop-color="#911209"/><stop offset="1" stop-color="#911209"/></linearGradient><linearGradient id="e" x1="-8.741" y1="-198.017" x2="-8.742" y2="-198.007" xlink:href="#d"/><linearGradient id="f" x1="-24.67" y1="-44.225" x2="-24.67" y2="-44.226" gradientUnits="objectBoundingBox"><stop offset="0" stop-color="#fff"/><stop offset=".23" stop-color="#e57252"/><stop offset=".46" stop-color="#de3b20"/><stop offset=".99" stop-color="#a60003"/><stop offset="1" stop-color="#a60003"/></linearGradient><linearGradient id="g" x1="-15.859" y1="-39.524" x2="-15.859" y2="-39.525" gradientUnits="objectBoundingBox"><stop offset="0" stop-color="#fff"/><stop offset=".23" stop-color="#e4714e"/><stop offset=".56" stop-color="#be1a0d"/><stop offset=".99" stop-color="#a80d00"/><stop offset="1" stop-color="#a80d00"/></linearGradient><linearGradient id="h" x1="-18.599" y1="-62.793" x2="-18.599" y2="-62.795" gradientUnits="objectBoundingBox"><stop offset="0" stop-color="#fff"/><stop offset=".18" stop-color="#e46342"/><stop offset=".4" stop-color="#c82410"/><stop offset=".99" stop-color="#a80d00"/><stop offset="1" stop-color="#a80d00"/></linearGradient><linearGradient id="i" x1="-24.655" y1="-171.738" x2="-24.654" y2="-171.734" gradientUnits="objectBoundingBox"><stop offset="0" stop-color="#fff"/><stop offset=".54" stop-color="#c81f11"/><stop offset=".99" stop-color="#bf0905"/><stop offset="1" stop-color="#bf0905"/></linearGradient><linearGradient id="j" x1="-87.138" y1="-58.781" x2="-87.137" y2="-58.781" gradientUnits="objectBoundingBox"><stop offset="0" stop-color="#fff"/><stop offset=".31" stop-color="#de4024"/><stop offset=".99" stop-color="#bf190b"/><stop offset="1" stop-color="#bf190b"/></linearGradient><linearGradient id="k" x1="-10.124" y1="-26.268" x2="-10.123" y2="-26.267" gradientUnits="objectBoundingBox"><stop offset="0" stop-color="#bd0012"/><stop offset=".07" stop-color="#fff"/><stop offset=".17" stop-color="#fff"/><stop offset=".27" stop-color="#c82f1c"/><stop offset=".33" stop-color="#820c01"/><stop offset=".46" stop-color="#a31601"/><stop offset=".72" stop-color="#b31301"/><stop offset=".99" stop-color="#e82609"/><stop offset="1" stop-color="#e82609"/></linearGradient><linearGradient id="l" x1="-12.959" y1="-44.081" x2="-12.959" y2="-44.081" gradientUnits="objectBoundingBox"><stop offset="0" stop-color="#8c0c01"/><stop offset=".54" stop-color="#990c00"/><stop offset=".99" stop-color="#a80d0e"/><stop offset="1" stop-color="#a80d0e"/></linearGradient><linearGradient id="m" x1="-18.668" y1="-39.993" x2="-18.669" y2="-39.992" gradientUnits="objectBoundingBox"><stop offset="0" stop-color="#7e110b"/><stop offset=".99" stop-color="#9e0c00"/><stop offset="1" stop-color="#9e0c00"/></linearGradient><linearGradient id="n" x1="-22.302" y1="-50.723" x2="-22.302" y2="-50.723" gradientUnits="objectBoundingBox"><stop offset="0" stop-color="#79130d"/><stop offset=".99" stop-color="#9e120b"/><stop offset="1" stop-color="#9e120b"/></linearGradient><linearGradient id="q" x1="-39.919" y1="-53.088" x2="-39.921" y2="-53.087" gradientUnits="objectBoundingBox"><stop offset="0" stop-color="#8b2114"/><stop offset=".43" stop-color="#9e100a"/><stop offset=".99" stop-color="#b3100c"/><stop offset="1" stop-color="#b3100c"/></linearGradient><linearGradient id="r" x1="-22.76" y1="-127.652" x2="-22.759" y2="-127.654" gradientUnits="objectBoundingBox"><stop offset="0" stop-color="#b31000"/><stop offset=".44" stop-color="#910f08"/><stop offset=".99" stop-color="#791c12"/><stop offset="1" stop-color="#791c12"/></linearGradient><linearGradient id="s" x1="-8.603" y1="-1.811" x2="-8.414" y2="-.74" gradientUnits="objectBoundingBox"><stop offset="0" stop-color="#faae42"/><stop offset="1" stop-color="#ef3e31"/></linearGradient><linearGradient id="t" x1=".598" y1="1.212" x2=".436" y2=".253" gradientUnits="objectBoundingBox"><stop offset="0" stop-color="#e39f3a"/><stop offset="1" stop-color="#d33929"/></linearGradient><linearGradient id="u" y1=".5" x2="1" y2=".5" gradientUnits="objectBoundingBox"><stop offset="0" stop-color="#ff8438"/><stop offset=".189" stop-color="#fd9656"/><stop offset=".598" stop-color="#f9c4a3"/><stop offset="1" stop-color="#f5f5f5"/></linearGradient><linearGradient id="v" x1=".5" y1="1" x2=".5" gradientUnits="objectBoundingBox"><stop offset="0" stop-color="#f5f5f5"/><stop offset=".063" stop-color="#f5f0de"/><stop offset=".261" stop-color="#f8e39b"/><stop offset=".449" stop-color="#fad864"/><stop offset=".622" stop-color="#fcd039"/><stop offset=".777" stop-color="#fdca1a"/><stop offset=".908" stop-color="#fec607"/><stop offset="1" stop-color="#ffc501"/></linearGradient><linearGradient id="w" x1="-1.22" y1=".5" x2="2.22" y2=".5" gradientUnits="objectBoundingBox"><stop offset="0" stop-color="#f5f5f5"/><stop offset=".307" stop-color="#dfebf7"/><stop offset=".738" stop-color="#c6e0fa"/><stop offset="1" stop-color="#bddcfc"/></linearGradient><linearGradient id="x" y1=".5" x2="1" y2=".5" gradientUnits="objectBoundingBox"><stop offset="0" stop-color="#f5f5f5"/><stop offset=".194" stop-color="#f7d9c6"/><stop offset=".472" stop-color="#fab489"/><stop offset=".71" stop-color="#fd9a5d"/><stop offset=".893" stop-color="#fe8a42"/><stop offset="1" stop-color="#ff8438"/></linearGradient><linearGradient id="y" x1="0" y1=".5" x2="1" y2=".5" xlink:href="#w"/><linearGradient id="z" y1=".5" x2="1" y2=".5" gradientUnits="objectBoundingBox"><stop offset="0" stop-color="#f5f5f5"/><stop offset="1" stop-color="#bf3af0"/></linearGradient><linearGradient id="aa" x1="0" y1=".5" x2="1" y2=".5" xlink:href="#v"/><linearGradient id="ab" x1=".5" y1=".562" x2=".5" y2="1.303" gradientUnits="objectBoundingBox"><stop offset="0" stop-color="#c3c3c3"/><stop offset=".192" stop-color="#d0d0d0"/><stop offset=".552" stop-color="#f4f4f4"/><stop offset=".559" stop-color="#f5f5f5"/></linearGradient><linearGradient id="ad" x1=".5" y1=".872" x2=".5" y2="-.126" gradientUnits="objectBoundingBox"><stop offset="0" stop-color="#fa215a"/><stop offset="1" stop-color="#bf3af0"/></linearGradient><linearGradient id="ae" y1="1.849" y2=".206" xlink:href="#v"/><linearGradient id="af" y1="1.193" y2="-1.28" xlink:href="#v"/><linearGradient id="ag" x1=".5" y1="2.298" x2=".5" y2=".278" xlink:href="#x"/><linearGradient id="ah" x1=".5" y1="1.869" x2=".5" y2="-1.17" xlink:href="#x"/><linearGradient id="ai" x1=".5" y1="2.237" x2=".5" y2=".347" xlink:href="#w"/><linearGradient id="aj" x1=".5" y1="1.777" x2=".5" y2="-1.067" gradientUnits="objectBoundingBox"><stop offset="0" stop-color="#f5f5f5"/><stop offset=".156" stop-color="#e9eff6"/><stop offset=".571" stop-color="#cfe4fa"/><stop offset=".739" stop-color="#c6e0fa"/><stop offset="1" stop-color="#bddcfc"/></linearGradient><linearGradient id="ak" x1=".5" y1="1.965" x2=".5" y2=".241" xlink:href="#z"/><linearGradient id="al" x1=".5" y1="1.368" x2=".5" y2="-1.227" xlink:href="#z"/><radialGradient id="o" cx=".32" cy=".402" r="1.331" gradientTransform="matrix(.523 0 0 -.523 -9 -132.313)" gradientUnits="objectBoundingBox"><stop offset="0" stop-color="#a80d00"/><stop offset=".99" stop-color="#7e0e08"/><stop offset="1" stop-color="#7e0e08"/></radialGradient><radialGradient id="p" cx=".135" cy=".409" r="1.135" gradientTransform="matrix(.778 0 0 -.778 -3.816 -100.687)" gradientUnits="objectBoundingBox"><stop offset="0" stop-color="#a30c00"/><stop offset=".99" stop-color="#800e08"/><stop offset="1" stop-color="#800e08"/></radialGradient><clipPath id="ac"><circle class="a" cx="113.764" cy="113.764" r="113.764"/></clipPath><style>.a,.ao,.bk{fill:none}.aq,.b{fill:#f5f5f5}.ao,.aq,.bk{stroke-linecap:round;stroke-linejoin:round}.ao,.aq{stroke-width:3px}.e{fill:#c3c3c3}.f{fill:#53c1de}.i{fill:#b3b3b3}.n{fill:#5382a1}.o{fill:#e76f00}.x{fill:#fff}.ai{fill:#00546b}.an{fill:#8cc84b}.ao,.aq,.bk{stroke:#1e1e1e}.ay{fill:#1e1e1e}.bd{fill:#ef712b}.be{fill:#ff8438}.bk{stroke-width:2px}</style></defs><rect class="b" width="156.024" height="126.225" rx="8.955" transform="translate(360.235 186.786)"/><rect class="b" width="160.955" height="132.536" rx="9.319" transform="translate(0 184.695)"/><rect class="b" width="198.977" height="176.804" rx="10.625" transform="translate(15.914)"/><path stroke-width="3" stroke-linejoin="round" stroke-linecap="round" stroke="#c3c3c3" fill="none" d="M51.303 154.654h120.755"/><path d="M60.633 81.187l1.474 4.537a.424.424 0 00.4.293h4.771a.425.425 0 01.249.768l-3.86 2.8a.425.425 0 00-.154.475l1.474 4.537a.425.425 0 01-.654.475l-3.86-2.8a.424.424 0 00-.5 0l-3.86 2.8a.425.425 0 01-.654-.475l1.474-4.537a.425.425 0 00-.154-.475l-3.86-2.8a.425.425 0 01.249-.768h4.782a.424.424 0 00.4-.293l1.474-4.537a.425.425 0 01.809 0zm25.725 0l1.474 4.537a.424.424 0 00.4.293h4.771a.425.425 0 01.25.768l-3.86 2.8a.424.424 0 00-.154.475l1.474 4.537a.425.425 0 01-.653.475l-3.86-2.8a.425.425 0 00-.5 0l-3.859 2.8a.425.425 0 01-.654-.475l1.474-4.537a.424.424 0 00-.154-.475l-3.86-2.8a.425.425 0 01.25-.768h4.771a.424.424 0 00.4-.293l1.474-4.537a.425.425 0 01.816 0zm25.726 0l1.474 4.537a.424.424 0 00.4.293h4.771a.425.425 0 01.249.768l-3.86 2.8a.425.425 0 00-.154.475l1.474 4.537a.425.425 0 01-.654.475l-3.86-2.8a.424.424 0 00-.5 0l-3.86 2.8a.425.425 0 01-.654-.475l1.474-4.537a.424.424 0 00-.154-.475l-3.86-2.8a.425.425 0 01.249-.768h4.771a.424.424 0 00.4-.293l1.474-4.537a.425.425 0 01.82 0zm25.722 0l1.474 4.537a.424.424 0 00.4.293h4.771a.425.425 0 01.25.768l-3.86 2.8a.424.424 0 00-.154.475l1.474 4.537a.425.425 0 01-.654.475l-3.859-2.8a.425.425 0 00-.5 0l-3.859 2.8a.425.425 0 01-.654-.475l1.474-4.537a.424.424 0 00-.154-.475l-3.86-2.8a.425.425 0 01.25-.768h4.771a.424.424 0 00.4-.293l1.474-4.537a.425.425 0 01.816 0z" fill="#ffc501"/><path class="e" d="M163.535 81.187l1.474 4.537a.424.424 0 00.4.293h4.771a.425.425 0 01.249.768l-3.86 2.8a.425.425 0 00-.154.475l1.474 4.537a.425.425 0 01-.654.475l-3.86-2.8a.425.425 0 00-.5 0l-3.86 2.8a.425.425 0 01-.654-.475l1.474-4.537a.425.425 0 00-.154-.475l-3.86-2.8a.425.425 0 01.249-.768h4.771a.424.424 0 00.4-.293l1.474-4.537a.425.425 0 01.82 0z"/><g transform="translate(226.869 .207)"><rect class="b" width="260.398" height="176.597" rx="13.683"/><path class="f" d="M112.779 83.3q-.472-.162-.976-.307c.055-.225.106-.448.151-.666.739-3.586.256-6.476-1.394-7.427-1.581-.912-4.169.039-6.781 2.312q-.377.328-.755.693-.252-.241-.5-.464c-2.738-2.431-5.483-3.456-7.13-2.5-1.58.915-2.049 3.631-1.383 7.03q.1.493.224 1c-.388.111-.763.228-1.122.353-3.21 1.119-5.26 2.873-5.26 4.692 0 1.879 2.2 3.763 5.544 4.906q.4.135.82.256-.137.553-.238 1.083c-.634 3.34-.139 5.992 1.437 6.9 1.628.939 4.36-.026 7.02-2.352q.315-.276.632-.583.412.4.82.748c2.577 2.218 5.121 3.113 6.7 2.2 1.626-.941 2.155-3.79 1.468-7.256q-.079-.4-.182-.811c.192-.057.38-.115.564-.176 3.476-1.152 5.737-3.014 5.737-4.918-.005-1.82-2.122-3.585-5.396-4.713zm-8.15-5.11c2.239-1.948 4.331-2.717 5.284-2.167 1.015.585 1.41 2.947.772 6.043-.041.2-.087.4-.137.6a31.091 31.091 0 00-4.054-.64 30.484 30.484 0 00-2.563-3.2q.35-.333.698-.633zm-7.14 9.86a36.465 36.465 0 012.76-4.784 38.528 38.528 0 015.526 0c.5.74.991 1.521 1.461 2.332s.912 1.635 1.307 2.433a41.198 41.198 0 01-2.755 4.801c-.9.064-1.829.1-2.776.1s-1.862-.03-2.745-.087a36.779 36.779 0 01-1.482-2.35 35.884 35.884 0 01-1.296-2.445zm-.687 1.523q.407.786.86 1.569.461.8.952 1.557a27.445 27.445 0 01-2.795-.449c.268-.864.598-1.763.983-2.677zm0-3.046a28.46 28.46 0 01-.963-2.624 29.033 29.033 0 012.749-.471q-.477.744-.93 1.527-.45.78-.858 1.568zm11.562 4.606q.463-.8.879-1.606a27.377 27.377 0 011.021 2.666 27.533 27.533 0 01-2.828.482q.468-.748.928-1.542zm.867-4.605q-.412-.783-.872-1.578-.45-.778-.922-1.516c.968.122 1.894.284 2.765.483a27.553 27.553 0 01-.972 2.611zm-6.206-6.772a27.534 27.534 0 011.784 2.154q-.89-.043-1.8-.043c-.6 0-1.2.014-1.785.042a28.557 28.557 0 011.8-2.153zm-6.984-3.7c1.014-.587 3.257.251 5.621 2.349q.226.2.455.42a30.971 30.971 0 00-2.583 3.2 31.569 31.569 0 00-4.046.629 19.179 19.179 0 01-.209-.934c-.57-2.911-.191-5.108.761-5.659zm-1.477 15.878q-.387-.111-.748-.234a10.972 10.972 0 01-3.536-1.879 2.676 2.676 0 01-1.131-1.8c0-1.1 1.646-2.513 4.391-3.47.333-.116.682-.226 1.043-.328a31.084 31.084 0 001.478 3.829 31.593 31.593 0 00-1.497 3.882zm7.02 5.9a10.976 10.976 0 01-3.394 2.125 2.676 2.676 0 01-2.126.081c-.957-.552-1.354-2.681-.812-5.537q.094-.491.221-1.007a30.516 30.516 0 004.086.592 31.612 31.612 0 002.6 3.215q-.295.284-.578.535zm1.479-1.464a30.027 30.027 0 01-1.825-2.183q.871.034 1.774.034.927 0 1.83-.041a27.57 27.57 0 01-1.778 2.194zm7.865 1.8a2.676 2.676 0 01-.993 1.882c-.955.553-3-.166-5.2-2.062q-.379-.326-.763-.7a30.423 30.423 0 002.542-3.226 30.2 30.2 0 004.106-.633c.062.249.117.495.164.734a10.97 10.97 0 01.141 4.011zm1.1-6.469q-.249.083-.509.159a30.294 30.294 0 00-1.535-3.841 30.332 30.332 0 001.475-3.785q.466.135.9.284c2.805.966 4.517 2.394 4.517 3.494-.002 1.181-1.85 2.701-4.852 3.695z"/><path class="f" d="M103.009 90.727a2.707 2.707 0 10-2.707-2.707 2.708 2.708 0 002.707 2.707z"/><path d="M710.429 138.9a18.188 18.188 0 00-3.048.261c-2.7.477-3.189 1.475-3.189 3.315v2.431h6.379v.81H701.8a3.983 3.983 0 00-3.985 3.234 11.922 11.922 0 000 6.483c.453 1.889 1.536 3.234 3.39 3.234h2.195v-2.914a4.054 4.054 0 013.985-3.963h6.371a3.213 3.213 0 003.189-3.241v-6.074a3.561 3.561 0 00-3.189-3.316 19.9 19.9 0 00-3.323-.26zm-3.449 1.955a1.216 1.216 0 11-1.2 1.219 1.21 1.21 0 011.2-1.219z" transform="translate(-553.757 -65.545)" fill="url(#a)"/><path d="M723.8 151.777v2.832a4.091 4.091 0 01-3.985 4.044h-6.371a3.254 3.254 0 00-3.189 3.242v6.074c0 1.729 1.5 2.746 3.189 3.241a10.67 10.67 0 006.371 0c1.606-.465 3.189-1.4 3.189-3.241v-2.431h-6.371v-.81h9.56c1.854 0 2.545-1.293 3.189-3.234a10.945 10.945 0 000-6.483c-.458-1.845-1.333-3.234-3.189-3.234zm-3.584 15.382a1.216 1.216 0 11-1.2 1.212 1.2 1.2 0 011.202-1.212z" transform="translate(-559.821 -71.599)" fill="url(#b)"/><path class="i" d="M103.85 120.006l-13.471 4.741 2.129 17.649 11.357 6.242 11.415-6.326 2.127-17.648z"/><path d="M116.063 125.683l-12.245-4.176v25.639l10.262-5.68 1.983-15.784z" fill="#a6120d"/><path d="M91.891 125.758l1.824 15.784 10.1 5.6v-25.635l-11.928 4.251z" fill="#dd1b16"/><path d="M107.189 135.157l-3.371 1.576h-3.553l-1.67 4.177-3.106.057 8.329-18.528 3.371 12.718zm-.326-.794l-3.022-5.983-2.48 5.88h2.457l3.045.1z" fill="#f2f2f2"/><path class="i" d="M103.818 122.438l.022 5.941 2.813 5.885h-2.829l-.006 2.465h3.912l1.828 4.235 2.972.055-8.712-18.584z"/><path d="M54.875 93.42a1.083 1.083 0 111.083-1.083 1.085 1.085 0 01-1.083 1.083m-11.97 0a1.083 1.083 0 111.083-1.083 1.084 1.084 0 01-1.083 1.083m12.359-6.524l2.165-3.749a.45.45 0 00-.78-.45l-2.192 3.8a13.6 13.6 0 00-11.133 0l-2.192-3.8a.45.45 0 00-.78.45l2.164 3.749a12.78 12.78 0 00-6.63 10.23h26.008a12.781 12.781 0 00-6.631-10.23" fill="#3ddb85"/><path class="n" d="M45.265 49.687s-1.074.624.764.836a16.071 16.071 0 005.818-.247 10.1 10.1 0 001.546.755c-5.5 2.357-12.448-.137-8.128-1.344m-.672-3.076s-1.2.891.634 1.082a22.694 22.694 0 007.506-.361 3.328 3.328 0 001.157.7c-6.65 1.945-14.057.154-9.3-1.426"/><path class="o" d="M50.255 41.392a2.058 2.058 0 01-.356 2.964s3.441-1.776 1.861-4c-1.476-2.075-2.608-3.105 3.52-6.659 0 0-9.618 2.4-5.024 7.7"/><path class="n" d="M57.532 51.962s.794.655-.875 1.161c-3.175.962-13.214 1.253-16 .039-1-.436.878-1.041 1.469-1.168a3.81 3.81 0 01.969-.109c-1.115-.785-7.206 1.542-3.094 2.209 11.214 1.818 20.442-.819 17.533-2.131m-11.753-8.539s-5.106 1.213-1.808 1.653a38.352 38.352 0 006.754-.072c2.113-.178 4.235-.557 4.235-.557a8.95 8.95 0 00-1.284.687c-5.186 1.364-15.2.729-12.319-.666a9.659 9.659 0 014.422-1.045m9.16 5.12c5.271-2.739 2.834-5.371 1.133-5.017a3.945 3.945 0 00-.6.162.962.962 0 01.451-.347c3.365-1.183 5.953 3.49-1.086 5.34a.461.461 0 00.106-.138"/><path class="o" d="M51.762 27.959s2.919 2.92-2.769 7.411c-4.561 3.6-1.04 5.656 0 8-2.662-2.4-4.616-4.517-3.305-6.485 1.924-2.889 7.254-4.289 6.076-8.928"/><path class="n" d="M46.295 55.965c5.06.324 12.829-.18 13.013-2.573 0 0-.354.907-4.181 1.629a41.6 41.6 0 01-12.8.2s.647.535 3.972.748"/><path d="M522.461 254.294l-14.372 8.534 18.609-1.263 1.433-18.764-5.671 11.493z" transform="translate(-464.726 -114.415)" fill="url(#c)"/><path d="M537.993 268.4l-1.6-11.04-4.357 5.753 5.956 5.287z" transform="translate(-475.99 -121.264)" fill="url(#d)"/><path d="M526.805 277.39l-11.718-.92-6.881 2.171 18.6-1.252z" transform="translate(-464.781 -130.252)" fill="url(#e)"/><path d="M505.117 272.057l2.927-9.59-6.442 1.378 3.514 8.212z" transform="translate(-461.674 -123.666)" fill="url(#f)"/><path d="M522.8 258.915l-2.7-10.551-7.708 7.226 10.4 3.325z" transform="translate(-466.751 -117.032)" fill="url(#g)"/><path d="M536.5 243.359l-7.287-5.951-2.029 6.56 9.315-.609z" transform="translate(-473.71 -111.878)" fill="url(#h)"/><path d="M532.136 233.374l-4.286 2.368-2.7-2.4 6.989.032z" transform="translate(-472.749 -109.966)" fill="url(#i)"/><path d="M498.4 264.77l1.8-3.274-1.452-3.9z" transform="translate(-460.169 -121.374)" fill="url(#j)"/><path class="x" d="M38.479 136.093l1.461 4.145 6.349-1.425 7.248-6.736 2.046-6.5-3.221-2.274-5.476 2.05c-1.726 1.6-5.073 4.779-5.194 4.839s-2.211 4.013-3.213 5.9z"/><path d="M504.552 239.122c3.739-3.707 8.56-5.9 10.409-4.031s-.112 6.4-3.851 10.108-8.5 6.017-10.348 4.151.051-6.522 3.79-10.227z" transform="translate(-460.942 -110.469)" fill="url(#k)"/><path d="M508.238 272.022l2.9-9.621 9.646 3.1c-3.488 3.27-7.366 6.035-12.55 6.522z" transform="translate(-464.796 -123.635)" fill="url(#l)"/><path d="M527.323 249.191L529.8 259c2.913-3.063 5.528-6.356 6.808-10.43l-9.285.621z" transform="translate(-473.773 -117.129)" fill="url(#m)"/><path d="M538.334 241.49c.991-2.991 1.22-7.281-3.454-8.078l-3.834 2.118z" transform="translate(-475.524 -109.999)" fill="url(#n)"/><path d="M38.231 143.353c.137 4.936 3.7 5.01 5.215 5.053l-3.5-8.184z" fill="#9e1209"/><path d="M527.349 249.227c2.239 1.376 6.751 4.139 6.842 4.19a15.783 15.783 0 002.354-4.8z" transform="translate(-473.785 -117.149)" fill="url(#o)"/><path d="M513.714 262.4l3.883 7.491a25.094 25.094 0 005.741-4.387l-9.623-3.1z" transform="translate(-467.371 -123.635)" fill="url(#p)"/><path d="M501.116 265.167l-.55 6.551c1.038 1.418 2.466 1.541 3.964 1.431-1.084-2.698-3.249-8.092-3.414-7.982z" transform="translate(-461.187 -124.935)" fill="url(#q)"/><path d="M531 235.542l7.713 1.083a4.214 4.214 0 00-3.831-3.222L531 235.542z" transform="translate(-475.504 -109.994)" fill="url(#r)"/><path d="M223.947 85.191l-13.105-13.1a1.934 1.934 0 00-2.734 0l-2.721 2.722 3.452 3.452a2.3 2.3 0 012.907 2.927l3.328 3.327a2.3 2.3 0 11-1.378 1.3l-3.1-3.1v8.165a2.3 2.3 0 11-1.891-.067v-8.241a2.3 2.3 0 01-1.249-3.017l-3.4-3.4-8.987 8.986a1.933 1.933 0 000 2.734l13.106 13.105a1.934 1.934 0 002.734 0l13.038-13.06a1.934 1.934 0 000-2.735" fill="#de4c36"/><path class="ai" d="M220.783 51.546a8.435 8.435 0 00-3.534.51c-.273.109-.71.11-.747.455.146.146.164.383.291.583a4.265 4.265 0 00.948 1.111c.382.291.765.583 1.166.838.71.437 1.512.692 2.2 1.13.4.255.8.583 1.2.856.2.146.328.383.583.473v-.055c-.128-.164-.164-.4-.292-.583-.182-.182-.365-.346-.547-.529a8.63 8.63 0 00-1.894-1.84c-.583-.4-1.858-.947-2.095-1.621l-.037-.037a7.375 7.375 0 001.257-.291c.62-.164 1.184-.128 1.822-.291.291-.073.583-.164.874-.255v-.164c-.328-.328-.565-.765-.911-1.075a24.3 24.3 0 00-3.006-2.24c-.565-.364-1.293-.6-1.894-.911-.219-.11-.583-.164-.711-.346a7.355 7.355 0 01-.747-1.4c-.528-1-1.038-2.113-1.494-3.17a19.529 19.529 0 00-.929-2.077 18.362 18.362 0 00-7.05-6.813 8.775 8.775 0 00-2.332-.747c-.455-.018-.911-.055-1.366-.073a7.284 7.284 0 01-.838-.638c-1.038-.656-3.716-2.077-4.481-.2-.492 1.184.729 2.349 1.148 2.951a8.565 8.565 0 01.929 1.366c.128.31.164.638.292.965a21.834 21.834 0 00.947 2.441 8.838 8.838 0 00.674 1.13c.146.2.4.291.456.619a5.219 5.219 0 00-.419 1.366 8.024 8.024 0 00.529 6.12c.291.455.984 1.458 1.912 1.075.82-.328.638-1.366.874-2.277.055-.219.019-.364.128-.51v.037c.255.51.51 1 .747 1.512a10.412 10.412 0 002.368 2.441c.437.328.783.892 1.33 1.093v-.055h-.036a2.017 2.017 0 00-.419-.364 8.914 8.914 0 01-.948-1.093 23.488 23.488 0 01-2.04-3.315c-.291-.565-.547-1.184-.783-1.749-.11-.219-.11-.547-.291-.656a6.844 6.844 0 00-.874 1.238 10.24 10.24 0 00-.51 2.751c-.073.019-.037 0-.073.037-.583-.146-.783-.747-1-1.257a7.878 7.878 0 01-.164-4.864c.128-.382.674-1.585.456-1.949-.11-.346-.474-.547-.674-.82a7.328 7.328 0 01-.656-1.166c-.437-1.02-.656-2.15-1.13-3.17a9.7 9.7 0 00-.91-1.4 9.021 9.021 0 01-1-1.421c-.091-.2-.219-.529-.073-.747a.289.289 0 01.255-.237c.237-.2.911.055 1.148.164a9.322 9.322 0 011.8.911c.255.182.528.528.856.619h.383c.583.128 1.238.037 1.785.2a11.621 11.621 0 012.623 1.257 16.165 16.165 0 015.684 6.23c.218.419.309.8.51 1.239.383.892.856 1.8 1.239 2.678a12.012 12.012 0 001.293 2.441c.273.382 1.367.583 1.858.783a12.888 12.888 0 011.257.51c.619.382 1.239.82 1.821 1.239.292.218 1.2.674 1.257 1.038z"/><path class="ai" d="M202.201 35.717a2.882 2.882 0 00-.746.091v.037h.036a5.917 5.917 0 00.583.747c.146.291.273.583.419.874l.036-.037a1.028 1.028 0 00.382-.911 4.072 4.072 0 01-.219-.382c-.109-.182-.346-.273-.492-.419z"/><path d="M160.286 122.231l-3.506 6.072-3.506-6.072h-11.673l15.179 26.291 15.179-26.291z" fill="#4dba87"/><path d="M160.286 122.231l-3.506 6.072-3.506-6.072h-5.6l9.107 15.774 9.107-15.774z" fill="#435466"/><g transform="translate(198.784 130.717)"><circle class="ai" cx="2.072" cy="2.072" r="2.072"/><circle class="ai" cx="2.072" cy="2.072" r="2.072" transform="translate(7.165)"/><circle class="ai" cx="2.072" cy="2.072" r="2.072" transform="translate(14.329)"/></g><path class="a" d="M86.874 28.106h29v29h-29z"/><path d="M6.081 0h14.292A6.022 6.022 0 0122.4.343a5.725 5.725 0 013.687 4.5 6.956 6.956 0 01.07 1.119V19.9a6.533 6.533 0 01-.111 1.327 5.735 5.735 0 01-3.88 4.315 6.057 6.057 0 01-1.8.263c-.272 0-14.321 0-14.534-.01a5.749 5.749 0 01-2.9-.958 5.826 5.826 0 01-1.971-2.253 5.687 5.687 0 01-.574-2.51V5.737a5.354 5.354 0 01.534-2.47A5.724 5.724 0 012.864 1 5.644 5.644 0 015.758.02 1.68 1.68 0 016.081 0z" transform="translate(88.08 29.816)" fill="url(#s)"/><path d="M21.769 21.113a3.94 3.94 0 00-.3-.413 4.281 4.281 0 00-.866-.787 2.654 2.654 0 00-1.36-.463 2.464 2.464 0 00-1.008.161 6.567 6.567 0 00-.937.433c-.353.181-.705.363-1.079.515a8.1 8.1 0 01-1.381.424 8.972 8.972 0 01-1.794.141 12.12 12.12 0 01-3.185-.484 12.045 12.045 0 01-2.59-1.119A13.355 13.355 0 015.261 18.1a14.66 14.66 0 01-1.431-1.424 16.29 16.29 0 01-.866-1.109 4.7 4.7 0 01-.3-.474L0 12.22v-6.5A5.709 5.709 0 015.7 0h5.09l3.769 3.831C23.071 9.618 20.319 16 20.319 16s2.418 2.723 1.45 5.113z" transform="translate(88.426 29.816)" fill="url(#t)"/><path class="x" d="M103.01 33.647c8.507 5.787 5.755 12.17 5.755 12.17s2.422 2.73 1.441 5.118a3.507 3.507 0 00-2.671-1.674c-1.611 0-2.559 1.674-5.805 1.674a12.807 12.807 0 01-10.643-6.036c6.511 4.285 10.956 1.25 10.956 1.25-2.933-1.706-9.171-9.851-9.171-9.851 5.432 4.628 7.781 5.848 7.781 5.848-1.4-1.159-5.331-6.824-5.331-6.824a92.237 92.237 0 009.393 7.633c1.772-4.922-1.705-9.308-1.705-9.308z"/><path class="a" d="M141.448 29.244h28.533v28.533h-28.533z"/><path class="an" d="M154.652 29.549a2.392 2.392 0 012.336 0l10.672 6.026a2.2 2.2 0 011.112 1.891V49.56a2.22 2.22 0 01-1.2 1.933l-10.631 6a2.325 2.325 0 01-2.362-.066q-1.594-.924-3.189-1.845a1.878 1.878 0 01-.615-.446c.136-.178.378-.205.575-.285a7.445 7.445 0 001.258-.588.293.293 0 01.327.02c.909.521 1.809 1.057 2.721 1.573.194.112.391-.037.557-.129q5.217-2.949 10.438-5.89a.345.345 0 00.19-.34V37.525a.374.374 0 00-.223-.373q-5.3-2.983-10.594-5.974a.368.368 0 00-.416 0q-5.298 2.982-10.593 5.974a.369.369 0 00-.224.371v11.965a.338.338 0 00.192.335l2.829 1.6a2.186 2.186 0 001.769.237 1.337 1.337 0 00.87-1.255q.007-5.948 0-11.894a.3.3 0 01.325-.3c.453 0 .906-.006 1.359 0a.314.314 0 01.3.363v11.969a3.032 3.032 0 01-1.423 2.734 4.369 4.369 0 01-3.906-.107c-1.034-.517-2.025-1.128-3.044-1.681a2.215 2.215 0 01-1.19-1.929V37.467a2.2 2.2 0 011.15-1.915z"/><path class="an" d="M157.744 37.922a8.387 8.387 0 014.591.7 3.472 3.472 0 011.694 3 .325.325 0 01-.357.239c-.446 0-.9.006-1.345 0a.347.347 0 01-.325-.336 2.051 2.051 0 00-.981-1.415 5.808 5.808 0 00-2.688-.384 3.649 3.649 0 00-1.924.479 1.219 1.219 0 00-.406 1.362c.144.342.535.453.862.555 1.863.487 3.834.439 5.664 1.08a2.666 2.666 0 011.756 1.561 3.336 3.336 0 01-.565 3.182 4.458 4.458 0 01-2.394 1.29 11.5 11.5 0 01-3.614.153 5.7 5.7 0 01-3.179-1.2 3.336 3.336 0 01-1.07-2.631.3.3 0 01.33-.268h1.354a.317.317 0 01.324.313 2.051 2.051 0 00.764 1.441 5.8 5.8 0 003.121.568 4.238 4.238 0 002.558-.624 1.413 1.413 0 00.384-1.35c-.11-.4-.527-.585-.885-.706-1.839-.581-3.834-.371-5.656-1.028a2.752 2.752 0 01-1.738-1.516 3.1 3.1 0 01.62-3.228 5 5 0 013.1-1.248z"/></g><path class="ao" d="M73.9 220.786v6.33m0 21.001v5.179m0 17.106v6.419m-3.347-37.054h-19.25m58.026 19.496V246.01l-6.243-6.243H86.977M40.7 243.131v14.311l6.243 6.243h12.555"/><rect width="39.443" height="12.279" rx="6.14" transform="translate(54.178 209.855)" fill="url(#u)"/><path class="aq" d="M65.217 239.767l8.683-8.683 8.682 8.683-8.682 8.683z"/><path transform="rotate(-90 140.234 105.674)" fill="url(#v)" d="M0 0h12.279v12.279H0z"/><rect width="12.279" height="42.251" rx="6.14" transform="rotate(-90 173.113 120.339)" fill="url(#w)"/><circle class="aq" cx="6.14" cy="6.14" r="6.14" transform="translate(103.19 257.4)"/><path class="ao" d="M74.353 263.54h24.299"/><path class="aq" d="M63.88 269.679V257.4h20.039v12.279z"/><path class="ao" d="M71.476 253.297h4.796m10.705-11.412v-4.796m11.675 28.849v-4.796m-39.154 4.941v-4.796m-8.195-19.122v-4.796m20.173-9.609h4.796m-4.796 49.51h4.796"/><path transform="translate(51.739 61.107)" fill="url(#x)" d="M0 0h108.368v10.582H0z"/><path transform="translate(51.739 49.166)" fill="url(#y)" d="M0 0h94.903v10.582H0z"/><path transform="translate(51.739 37.226)" fill="url(#z)" d="M0 0h86.108v10.582H0z"/><path transform="translate(51.751 25.285)" fill="url(#aa)" d="M0 0h120.743v10.582H0z"/><g transform="translate(121.014 104.367)"><circle class="ay" cx="129.737" cy="129.737" r="129.737"/><circle class="b" cx="120.635" cy="120.635" r="120.635" transform="translate(9.103 9.103)"/><circle cx="113.764" cy="113.764" r="113.764" transform="translate(15.973 15.973)" fill="url(#ab)"/><path d="M27.247 118.995a103.13 103.13 0 0171.8-87.651m16.019-4.125" stroke="#f5f5f5" stroke-width="30" stroke-miterlimit="10" stroke-linecap="round" fill="none"/><g clip-path="url(#ac)" transform="translate(15.973 15.973)"><path d="M53.55 105.481s1.342-20.3 2.066-34.354 9.229-34.917 31.047-36.439c0 0 12.6-16.491 37.844-11.42s52.292 56.46 46.352 72.392c0 0 11.993 18.809 17.353 28.225s-2.9 21.874-2.9 21.874 13.762 18.977 7.968 26.655-75.7 36.506-75.7 36.506-51.332 10.612-63.211-15.029-18.9-46.3-12.234-60.929 11.415-27.481 11.415-27.481z"/><path d="M481 557.311a114.515 114.515 0 0010.936-12.658 5.556 5.556 0 00.131-6.451c-4.507-6.6-10.086-9.84-18.308-12.4-10.719-3.332-40.366-9.705-40.366-9.705l-64.8 9.705s-28.231 10.482-39.611 17.12a69.52 69.52 0 00-8.473 6.182 5.524 5.524 0 00-.434 8.16l.043.043a113.764 113.764 0 00160.882.004z" transform="translate(-286.791 -363.103)" fill="url(#ad)"/><path class="bd" d="M79.219 99.644s-3.278-7.921-8.468-6.146 1.372 16.935 7.1 20.076 5.873-1.093 5.873-1.093z"/><path class="be" d="M92.66 117.506s2.9 29.407 2.607 40.707-2.607 13.616 1.594 17.816 14.776 14.341 24.192 6.953 16.225-23.467 17.239-25.786-6.953-15.152-8.257-25.322-.725-31.609-.725-31.609z"/><path class="bd" d="M123.721 117.082l-31 1.09c.267 2.776 1.306 13.8 1.977 24.172 27.443 3.027 29.023-25.262 29.023-25.262z"/><path class="be" d="M74.575 88.036s4.37 15.023 7.785 25.676 15.3 18.164 24.447 18.164c8.74 0 20.622-4.1 24.583-28.544s3.824-40.972 3.824-40.972l-53.81-19.667-8.6 37.558z"/><path class="bd" d="M89.735 64.819s10.765 21.517 43.814 26.555l1.4-7.269zm-.001 0s-7.1 23.611-12.319 30.021l-2.927-12.649z"/><path class="be" d="M131.136 98.15s2.206-8.284 7.585-7.207.869 16.968-4.4 20.837-5.965-.31-5.965-.31z"/><path d="M95.268 158.212s4.781 14.921 15.935 16.37 25.636-22.327 23.269-28.431c0 0 5.553-.27 9.6 1.969s7.8 3.124 6.786 7.325-15.755 39.273-34.3 40.867-36.9-23.812-38.344-28.593 1.114-8.078 6.184-10.541 10.719-5.842 10.719-5.842a46.749 46.749 0 01.151 6.876z" fill="#df1250"/><path class="bd" d="M101.087 100.061a.66.66 0 01-.333-.975 3.155 3.155 0 012.82-1.69 6.268 6.268 0 013.168.833.665.665 0 01-.047 1.2 12.747 12.747 0 01-3.122 1 5.745 5.745 0 01-2.486-.368z"/><path d="M97.482 107.058c3.379 1.262 8.643 1.983 14.726-1.6" stroke-width="4" stroke-miterlimit="10" stroke="#1e1e1e" stroke-linecap="round" fill="none"/><path d="M89.735 64.818s-4.208 14.75-13.44 24.447l3.241 15.394-.583-.255a4.4 4.4 0 01-2.345-2.456L72.8 92.015l-9.185-17.65 10.44-32.89 37.393-7.706 40.066 22.5 2.648 31.418-18.18 2.736-2.479 10.436a3.306 3.306 0 01-1.393 1.995l-.719.476 2.294-15.849s-29.127-1.586-43.95-22.663z"/></g><rect width="49.572" height="14.339" rx="7.169" transform="rotate(-45 387.923 -126.937)" fill="#8c8c8c"/><path class="e" d="M220.035 240.745l22.016-22.016 50.77 50.77a15.568 15.568 0 01-.002 22.013 15.568 15.568 0 01-22.014.003l-50.77-50.77z"/><path class="ay" d="M242.051 218.729l2.158 2.158-11.064 18.628-1.18 2.561a11.461 11.461 0 002.3 12.9l-14.234-14.234z"/></g><path d="M51.303 149.178l30.15-9.844 13.983 1.978 13.045-1.979h4.841l1.614-1.077 2.555-2.156 4.3-.771 5.379-.536 6.052-10.346 7.665-3.42 8.338 1.538 10.44-3.374 4.757-3.578 7.63-3.2" stroke="#bf3af0" stroke-width="3" stroke-linejoin="round" stroke-linecap="round" fill="none"/><path class="ao" d="M51.303 151.951l13.193-1.335 12.234-4.791 15.434-10.809 13.323 1.495 6.2-1.866 13.228-5.8h22.21l24.555-11.888"/><path d="M51.303 145.964l20.637-13.44 12.688 1.928 24.319-20.168 63.11-5.562" stroke="#ff8438" stroke-width="3" stroke-linejoin="round" stroke-linecap="round" fill="none"/><circle class="bk" cx="2.459" cy="2.459" r="2.459" transform="translate(106.489 111.826)"/><circle class="bk" cx="2.486" cy="2.486" r="2.486" transform="translate(138.407 118.545)"/><circle class="bk" cx="2.696" cy="2.696" r="2.696" transform="translate(144.427 126.146)"/><path stroke-dasharray="2 10" stroke-width="2" stroke="#1e1e1e" stroke-linejoin="round" stroke-linecap="round" fill="none" d="M51.303 140.015v-31.292"/><g transform="translate(389.19 218.997)"><circle cx="6.824" cy="6.824" r="6.824" transform="translate(24.723 37.064)" fill="url(#ae)"/><path d="M784.333 510.7a14.615 14.615 0 0113.522 9.07h-27.044a14.615 14.615 0 0113.522-9.07z" transform="translate(-751.764 -459.219)" fill="url(#af)"/><circle cx="7.364" cy="7.364" r="7.364" transform="translate(24.151 4.931)" fill="url(#ag)"/><path d="M775.7 452.181a15.77 15.77 0 00-14.592 9.787H790.3a15.771 15.771 0 00-14.6-9.787z" transform="translate(-747.202 -431.694)" fill="url(#ah)"/><path class="ao" d="M6.809 2.977v13.266a1.281 1.281 0 01-.633 1.105L.385 20.741a.773.773 0 00.391 1.44h4.753a1.281 1.281 0 011.281 1.281v3.84a2.977 2.977 0 002.977 2.977h39.558a2.976 2.976 0 002.976-2.977V2.977A2.977 2.977 0 0049.345 0H9.786a2.977 2.977 0 00-2.977 2.977z"/><circle cx="7.364" cy="7.364" r="7.364" transform="translate(63.754 4.931)" fill="url(#ai)"/><path d="M865.649 452.181a15.77 15.77 0 0114.592 9.787h-29.183a15.772 15.772 0 0114.591-9.787z" transform="translate(-789.51 -431.694)" fill="url(#aj)"/><path class="ao" d="M97.833 2.977v13.266a1.281 1.281 0 00.633 1.105l5.791 3.393a.773.773 0 01-.391 1.44h-4.753a1.281 1.281 0 00-1.281 1.281v3.84a2.977 2.977 0 01-2.977 2.977H55.298a2.977 2.977 0 01-2.977-2.977V2.977A2.977 2.977 0 0155.298 0h39.558a2.977 2.977 0 012.977 2.977zM6.806 33.252v23.04a4.257 4.257 0 004.258 4.258 1.281 1.281 0 011.281 1.281v4.753a.773.773 0 001.441.391l3.393-5.791a1.282 1.282 0 011.105-.633h31.059a2.976 2.976 0 002.976-2.976V33.252a2.977 2.977 0 00-2.976-2.977H9.786a2.977 2.977 0 00-2.98 2.977z"/><circle cx="6.824" cy="6.824" r="6.824" transform="translate(66.459 37.064)" fill="url(#ak)"/><path d="M861.207 510.7a14.615 14.615 0 00-13.522 9.07h27.043a14.615 14.615 0 00-13.521-9.07z" transform="translate(-787.924 -459.219)" fill="url(#al)"/><path class="ao" d="M52.321 33.252v24.321a2.977 2.977 0 002.977 2.976h31.059a1.281 1.281 0 011.1.633l3.393 5.791a.773.773 0 001.441-.391v-4.753a1.281 1.281 0 011.281-1.281h1.281a2.977 2.977 0 002.977-2.976v-24.32a2.977 2.977 0 00-2.977-2.977H55.298a2.977 2.977 0 00-2.977 2.977z"/></g></svg>