<svg xmlns="http://www.w3.org/2000/svg" width="48" height="48" viewBox="0 0 48 48"><g transform="translate(4958 2279.576)"><rect width="48" height="48" rx="8" transform="translate(-4958 -2279.576)" fill="#56a8f7" opacity="0.08"/><g transform="translate(-4950 -2271.576)"><path d="M0,0H32V32H0Z" fill="none"/><g transform="translate(2.667 5.333)"><path d="M26,4H4.667A2.666,2.666,0,0,0,2,6.667v16a2.666,2.666,0,0,0,2.667,2.667H26a2.675,2.675,0,0,0,2.667-2.667v-16A2.666,2.666,0,0,0,26,4Zm0,18.667H4.667V9.333H26ZM15.333,20a1.337,1.337,0,0,1,1.333-1.333H22a1.333,1.333,0,0,1,0,2.667H16.667A1.337,1.337,0,0,1,15.333,20ZM8.387,11.613a1.328,1.328,0,0,1,1.88,0l3.453,3.453a1.328,1.328,0,0,1,0,1.88L10.267,20.4a1.329,1.329,0,1,1-1.88-1.88L10.893,16,8.387,13.493A1.328,1.328,0,0,1,8.387,11.613Z" transform="translate(-2 -4)" fill="#56a8f7"/></g></g></g></svg>