<svg width="98" height="25" viewBox="0 0 98 25" fill="none" xmlns="http://www.w3.org/2000/svg">
<path d="M55.4 7.99219C55.4 5.13119 55.449 2.467 55.6 0L48.048 1.43115V2.12207L48.788 2.22217C48.9985 2.22259 49.2061 2.27199 49.3944 2.36621C49.5826 2.46043 49.7465 2.59688 49.873 2.76514C50.1195 3.25868 50.2701 3.79458 50.317 4.34424C50.417 5.77524 50.517 9.03013 50.465 14.1611C50.465 19.2421 50.416 22.4491 50.317 23.6821C52.4198 24.1834 54.569 24.4645 56.73 24.521C58.0038 24.5973 59.2795 24.4088 60.4767 23.9673C61.674 23.5258 62.7667 22.841 63.686 21.9561C64.558 21.0277 65.2344 19.9337 65.6751 18.7388C66.1157 17.5438 66.3116 16.2722 66.251 15C66.3275 12.9068 65.6441 10.8567 64.327 9.22803C63.7487 8.50506 63.0121 7.92464 62.174 7.53125C61.3359 7.13786 60.4187 6.94197 59.493 6.95898C58.0692 6.99706 56.6714 7.35004 55.4 7.99219V7.99219ZM55.548 23.186C55.448 21.607 55.348 16.872 55.348 9.12695C55.9232 8.95116 56.5227 8.86772 57.124 8.87988C57.7177 8.88322 58.298 9.05641 58.7964 9.37891C59.2949 9.7014 59.6906 10.16 59.937 10.7002C60.6762 12.1131 61.0333 13.6946 60.973 15.2881C61.0378 17.2784 60.6321 19.2559 59.789 21.0601C59 22.5891 58.013 23.3789 56.78 23.3789C56.3735 23.2864 55.9613 23.2217 55.546 23.1851L55.548 23.186ZM19.732 0.493164H0V1.47998L1.036 1.58008C1.68626 1.65632 2.28447 1.97327 2.713 2.46826C3.12067 3.1896 3.32526 4.00761 3.305 4.83594C3.70031 9.79474 3.70031 14.777 3.305 19.7358C3.27614 20.5567 3.07441 21.3625 2.713 22.1001C2.51512 22.3614 2.26248 22.5761 1.97279 22.7295C1.6831 22.8829 1.36337 22.9715 1.036 22.9883L0 23.1362V24.123H12.727V23.1362L11.395 23.0361C11.07 23.0088 10.754 22.9158 10.4658 22.7632C10.1776 22.6106 9.92324 22.4014 9.718 22.1479C9.31033 21.4266 9.10574 20.6086 9.126 19.7803C8.95959 17.5315 8.87719 15.2769 8.879 13.022L11.543 13.0713C12.974 13.1203 13.96 14.206 14.454 16.376H15.441V8.33691H14.454C13.961 10.4579 13.023 11.5433 11.543 11.5933L8.879 11.6421C8.879 7.20209 8.979 4.04209 9.126 2.12109H13.026C15.789 2.12109 17.663 3.89722 18.748 7.44922L19.93 7.1001L19.732 0.493164ZM17.414 15.687C17.3355 18.0024 18.1078 20.2666 19.585 22.0513C20.3714 22.8998 21.3377 23.5616 22.4131 23.9883C23.4885 24.415 24.6457 24.5956 25.8 24.5171C26.9905 24.5756 28.1796 24.3767 29.2863 23.9341C30.393 23.4914 31.3913 22.8155 32.213 21.9521C33.7963 20.2204 34.63 17.9323 34.532 15.5879C34.6105 13.2725 33.8382 11.0088 32.361 9.22412C31.5746 8.37525 30.6081 7.71301 29.5326 7.28613C28.457 6.85926 27.2995 6.67829 26.145 6.75684C24.9545 6.69828 23.7654 6.8972 22.6587 7.33984C21.552 7.78249 20.5537 8.45887 19.732 9.32227C18.1487 11.054 17.315 13.3417 17.413 15.686L17.414 15.687ZM28.414 10.063C29.0456 11.8507 29.3304 13.7428 29.253 15.6372C29.253 20.8662 28.168 23.4312 26.047 23.4312C24.9617 23.4312 24.123 22.6909 23.531 21.2109C22.9074 19.4212 22.6229 17.5312 22.692 15.6372C22.692 10.4572 23.777 7.89209 25.898 7.89209C26.984 7.84409 27.822 8.58399 28.414 10.063V10.063ZM70.1 22.0513C70.9061 22.86 71.8687 23.4958 72.9288 23.9199C73.989 24.3441 75.1245 24.5475 76.266 24.5181C77.6719 24.5535 79.0638 24.231 80.311 23.5811C81.3977 23.0749 82.3457 22.313 83.074 21.3608L82.581 20.769C81.5088 21.5973 80.1845 22.0318 78.83 22C77.9711 22.0562 77.1113 21.9067 76.322 21.5635C75.5326 21.2203 74.8367 20.6933 74.292 20.0269C73.1557 18.5523 72.6262 16.6994 72.812 14.8472H83.369C83.4625 12.7528 82.8165 10.692 81.544 9.02588C80.9087 8.28335 80.111 7.69696 79.2128 7.31201C78.3146 6.92706 77.3399 6.75413 76.364 6.80615C75.1683 6.7417 73.9732 6.9429 72.8644 7.39502C71.7556 7.84714 70.7607 8.53872 69.951 9.4209C68.4181 11.1795 67.6074 13.4534 67.682 15.7852C67.6346 16.9395 67.8248 18.0911 68.2407 19.1689C68.6566 20.2468 69.2895 21.228 70.1 22.0513V22.0513ZM73.75 9.66895C74.293 8.48495 74.983 7.89307 75.921 7.89307C77.401 7.89307 78.141 9.76792 78.141 13.5659L72.912 13.666C72.922 12.2901 73.2073 10.93 73.751 9.66602L73.75 9.66895ZM96.639 7.7002C95.0453 7.0406 93.3313 6.72143 91.607 6.76318C89.8261 6.67807 88.0744 7.23888 86.674 8.34229C86.0892 8.79743 85.6162 9.38028 85.2914 10.0464C84.9666 10.7125 84.7985 11.444 84.8 12.1851C84.7697 12.7529 84.8546 13.3208 85.0497 13.855C85.2448 14.3891 85.5459 14.8783 85.935 15.293C86.9357 16.1731 88.113 16.8294 89.388 17.2173C90.4166 17.5269 91.3843 18.0107 92.249 18.6479C92.4977 18.8772 92.6962 19.1555 92.832 19.4653C92.9678 19.7751 93.0379 20.11 93.0379 20.4482C93.0379 20.7865 92.9678 21.1209 92.832 21.4307C92.6962 21.7405 92.4977 22.0188 92.249 22.248C91.9813 22.5217 91.6574 22.7339 91.2997 22.8701C90.942 23.0063 90.5589 23.0634 90.177 23.0371C88.006 23.0371 86.377 21.4583 85.244 18.3013L84.405 18.5479L84.605 23.481C86.4965 24.1923 88.5043 24.5438 90.525 24.5171C92.4077 24.6367 94.2731 24.0962 95.8 22.9883C96.4325 22.494 96.9372 21.855 97.272 21.1255C97.6067 20.3959 97.7617 19.5967 97.724 18.7949C97.7789 17.7426 97.4455 16.707 96.787 15.8843C95.9025 14.99 94.8215 14.3143 93.63 13.9111C92.4356 13.5417 91.3043 12.9928 90.275 12.2832C89.9952 12.069 89.7693 11.7924 89.6152 11.4756C89.461 11.1588 89.3829 10.8103 89.387 10.458C89.3562 9.78961 89.586 9.13565 90.028 8.6333C90.2381 8.40011 90.4978 8.21675 90.788 8.09717C91.0783 7.97759 91.3916 7.92442 91.705 7.94189C93.678 7.94189 95.105 9.37308 95.997 12.1841L96.836 11.937L96.639 7.7002ZM49.183 7.25195C48.4766 6.90968 47.6988 6.741 46.914 6.75928C45.9534 6.81137 45.0359 7.17434 44.3 7.79395C43.3213 8.54317 42.5694 9.54935 42.128 10.7002L42.177 6.75391L34.677 8.23389V8.92529L35.417 8.97412C36.354 9.07412 36.897 9.81302 36.996 11.145C37.2922 14.3939 37.2922 17.6632 36.996 20.9121C36.896 22.2441 36.355 22.935 35.417 23.083L34.677 23.1831V24.1201H45.138V23.1831L43.806 23.083C42.869 22.983 42.326 22.2441 42.227 20.9121C41.9207 17.8956 41.8872 14.8575 42.127 11.835C42.3572 11.5482 42.6507 11.3191 42.9846 11.165C43.3184 11.011 43.6835 10.9364 44.051 10.9473C45.2184 10.8901 46.3744 11.2004 47.356 11.835L49.181 7.24707L49.183 7.25195Z" fill="#212121"/>
</svg>
