<svg width="294" height="50" viewBox="0 0 294 50" fill="none" xmlns="http://www.w3.org/2000/svg">
<path d="M77.3022 33.132C78.2952 33.1839 79.2848 33.2887 80.2666 33.4459C80.3666 34.0229 80.3666 34.6127 80.2666 35.1897H71.4954C71.567 34.6299 71.7015 34.0801 71.8965 33.5505C72.7418 33.3601 73.5978 33.2204 74.4598 33.132V15.5198H69.4377C69.35 16.4038 69.2161 17.2827 69.0366 18.1529C68.4291 18.2808 67.809 18.3393 67.1882 18.3273V13.619H84.6261V18.4493C83.9926 18.4482 83.3611 18.378 82.7428 18.2401C82.5684 17.3333 82.4289 16.4963 82.3417 15.5198H77.3022V33.132ZM90.9735 33.2541C91.7402 33.3153 92.4993 33.4496 93.2404 33.6551C93.3278 34.1512 93.3278 34.6587 93.2404 35.1548H85.8816C85.9409 34.6694 86.0825 34.1976 86.3001 33.7598C86.9421 33.4898 87.6075 33.2797 88.2881 33.132V14.5607H86.056C86.1063 13.9771 86.2978 13.4145 86.614 12.9215C87.5132 12.6215 88.4563 12.4741 89.4041 12.4856C89.938 12.4828 90.4704 12.5413 90.9909 12.6599V18.6411C90.9909 19.9141 90.9909 21.2394 90.834 22.5123H91.1479C91.6107 21.6482 92.3164 20.9384 93.1778 20.4705C94.0392 20.0027 95.0188 19.7971 95.9956 19.8792C98.4718 19.8792 100.669 20.6639 100.669 25.4593C100.669 28.0576 100.669 30.6907 100.495 33.2192C101.335 33.2833 102.17 33.4174 102.988 33.6203C103.057 33.9353 103.093 34.2568 103.093 34.5793C103.093 34.7537 103.093 34.9281 103.093 35.1025H95.7166C95.7846 34.6167 95.9319 34.1455 96.1525 33.7075C96.7166 33.4671 97.3 33.2746 97.8963 33.132V25.8953C97.8963 23.5063 97.1291 21.9892 94.9319 21.9892C94.1711 22.0318 93.4272 22.2302 92.7463 22.5722C92.0654 22.9141 91.462 23.3923 90.9735 23.9771V33.2541ZM107.696 28.1448C107.59 29.4581 108.01 30.7599 108.864 31.7638C109.717 32.7676 110.934 33.3915 112.248 33.4982H112.736C114.219 33.4272 115.683 33.1333 117.078 32.6263C117.109 33.2335 116.97 33.8373 116.677 34.3701C115.172 35.173 113.499 35.6091 111.794 35.6431C107.365 35.6431 104.819 32.3299 104.819 28.0576C104.819 23.5063 107.644 19.8792 111.969 19.8792C115.683 19.8792 117.2 22.5647 117.2 26.4707C117.2 27.0287 117.2 27.5693 117.2 28.1099L107.696 28.1448ZM114.497 26.401C114.706 24.2561 114.096 21.6579 111.498 21.6579C109.301 21.6579 107.871 23.5761 107.679 26.401H114.497ZM125.919 35.1199C125.97 34.5601 126.094 34.0092 126.285 33.4808C127.079 33.3141 127.883 33.1976 128.692 33.132V15.6941C127.924 15.6941 127.175 15.5895 126.407 15.4849C126.322 14.9067 126.322 14.3192 126.407 13.7411H134.202C134.309 14.3174 134.309 14.9085 134.202 15.4849C133.324 15.6107 132.438 15.6806 131.551 15.6941V33.132C132.475 33.1839 133.395 33.2887 134.307 33.4459C134.399 33.84 134.44 34.2444 134.429 34.6491C134.446 34.8172 134.446 34.9867 134.429 35.1548L125.919 35.1199ZM141.474 33.2192C142.241 33.272 143.001 33.4064 143.74 33.6203C143.819 34.1171 143.819 34.6231 143.74 35.1199H136.382C136.447 34.6336 136.595 34.1619 136.818 33.7249C137.456 33.4693 138.115 33.2709 138.788 33.132V22.1461H136.521C136.571 21.5626 136.763 21 137.079 20.507C137.908 20.2156 138.781 20.0682 139.66 20.071C140.148 20.0678 140.634 20.1264 141.107 20.2454V22.5123H141.421C141.949 21.6599 142.698 20.9665 143.588 20.5059C144.479 20.0454 145.478 19.8348 146.478 19.8967C148.92 19.8967 151.082 20.6639 151.082 25.4593C151.082 28.0576 151.082 30.6907 150.907 33.2366C151.749 33.2922 152.584 33.4265 153.401 33.6377C153.471 33.9526 153.506 34.2742 153.506 34.5968C153.506 34.7712 153.506 34.9455 153.506 35.1199H146.06C146.125 34.6336 146.273 34.1619 146.496 33.7249C147.054 33.4798 147.631 33.2815 148.222 33.132V25.8953C148.222 23.5063 147.49 21.9892 145.31 21.9892C144.563 22.0404 143.835 22.243 143.17 22.5848C142.504 22.9266 141.915 23.4003 141.439 23.9771V33.2192H141.474ZM164.265 20.4024C164.349 20.9803 164.401 21.5624 164.422 22.1461H160.202V33.132C161.239 33.2302 162.266 33.4169 163.271 33.69C163.358 34.1627 163.358 34.6473 163.271 35.1199H155.093C155.158 34.6336 155.305 34.1619 155.528 33.7249C156.172 33.4668 156.837 33.2684 157.516 33.132V22.1985H155.075C155.112 21.6477 155.235 21.1063 155.441 20.5942C156.121 20.3657 156.814 20.1793 157.516 20.0362V18.2924C157.516 14.1073 160.045 12.4507 162.957 12.4507C164.105 12.4498 165.246 12.6262 166.34 12.9738C166.366 13.3221 166.366 13.6718 166.34 14.0201C166.344 14.9446 166.197 15.8636 165.904 16.7404C165.295 16.7036 164.7 16.5371 164.16 16.2521V14.2468C163.864 14.0696 163.529 13.9678 163.184 13.9503C161.545 13.9503 160.219 14.7874 160.219 17.9785V20.4024H164.265ZM179.959 27.5344C179.959 32.7658 177.204 35.6431 172.984 35.6431C168.764 35.6431 166.009 32.853 166.009 27.5344C166.009 22.7913 169.043 19.8792 172.984 19.8792C176.925 19.8792 180.046 22.6693 180.046 27.5344H179.959ZM172.984 33.7772C175.826 33.7772 177.186 31.3708 177.186 27.5344C177.186 24.2213 175.547 21.7102 172.984 21.7102C170.42 21.7102 168.746 24.0294 168.746 27.5344C168.746 31.301 170.351 33.7772 172.984 33.7772ZM187.405 23.1924C187.593 22.2613 188.097 21.4236 188.83 20.8201C189.564 20.2167 190.483 19.8844 191.433 19.8792C191.908 19.8911 192.378 19.9734 192.828 20.1234C193.107 20.7051 193.244 21.3444 193.229 21.9892C193.228 22.2714 193.193 22.5525 193.125 22.8262C192.485 22.4705 191.763 22.29 191.032 22.3031C190.264 22.3247 189.52 22.5775 188.898 23.0287C188.275 23.4798 187.804 24.1081 187.544 24.8316V33.132C188.584 33.2116 189.612 33.3986 190.613 33.69C190.701 34.1627 190.701 34.6473 190.613 35.1199H182.4C182.466 34.6336 182.613 34.1619 182.836 33.7249C183.485 33.4658 184.156 33.2673 184.842 33.132V22.1461H182.575C182.609 21.5593 182.802 20.9927 183.133 20.507C183.958 20.2226 184.823 20.0754 185.696 20.071C186.185 20.0649 186.673 20.1295 187.143 20.2629V23.1924H187.405ZM200.187 33.2192C200.953 33.2835 201.712 33.4177 202.454 33.6203C202.541 34.1164 202.541 34.6238 202.454 35.1199H195.025C195.091 34.6336 195.238 34.1619 195.461 33.7249C196.104 33.4668 196.77 33.2684 197.449 33.132V22.1461H195.304C195.355 21.5626 195.546 21 195.862 20.507C196.685 20.2145 197.552 20.067 198.426 20.071C198.921 20.0654 199.414 20.1299 199.89 20.2629V22.5298H200.187C200.691 21.6906 201.413 21.0031 202.275 20.5396C203.137 20.0762 204.109 19.8541 205.087 19.8967C206.004 19.7392 206.947 19.9387 207.722 20.4543C208.497 20.9698 209.045 21.7623 209.255 22.6693V22.6693C209.735 21.7815 210.457 21.0472 211.336 20.5507C212.215 20.0541 213.216 19.8153 214.224 19.8618C216.648 19.8618 218.776 20.629 218.776 25.4245C218.776 28.0576 218.776 30.6558 218.601 33.2018C219.449 33.2587 220.289 33.393 221.112 33.6028C221.139 33.922 221.139 34.2428 221.112 34.5619C221.13 34.7359 221.13 34.9111 221.112 35.085H213.771C213.836 34.5987 213.984 34.1271 214.207 33.69C214.771 33.444 215.354 33.2457 215.951 33.0971V25.8953C215.951 23.5063 215.253 21.9892 213.108 21.9892C212.375 22.0418 211.66 22.2456 211.009 22.5877C210.357 22.9298 209.784 23.4028 209.324 23.9771V33.132C210.093 33.1906 210.853 33.3309 211.591 33.5505C211.67 34.0473 211.67 34.5534 211.591 35.0502H204.442C204.507 34.5639 204.655 34.0922 204.878 33.6551C205.436 33.3965 206.021 33.1978 206.621 33.0623V25.8953C206.621 23.5063 205.907 21.9892 203.779 21.9892C203.044 22.0355 202.327 22.2365 201.675 22.5791C201.023 22.9216 200.45 23.398 199.995 23.9771V33.2192H200.187ZM231.906 33.2192C231.469 33.9725 230.832 34.5908 230.066 35.006C229.3 35.4213 228.434 35.6176 227.564 35.5733C226.499 35.6653 225.44 35.3318 224.62 34.6456C223.8 33.9593 223.285 32.9763 223.187 31.9114C223.179 31.7487 223.179 31.5857 223.187 31.4231C223.187 28.232 225.89 26.5928 228.942 26.5928C229.926 26.5807 230.903 26.7583 231.819 27.1159V25.3722C231.819 23.0878 230.843 21.8846 228.89 21.8846C227.278 22.0166 225.722 22.5372 224.356 23.4017C224.247 23.064 224.2 22.7097 224.216 22.3554C224.206 21.8195 224.319 21.2884 224.548 20.8034C226.143 20.1055 227.863 19.7377 229.605 19.7223C232.97 19.7223 234.452 21.3614 234.452 25.6163V31.6149C234.416 32.1783 234.556 32.739 234.853 33.2192C235.581 33.1852 236.301 33.0622 236.998 32.853C237.007 32.9691 237.007 33.0857 236.998 33.2018C237 33.6845 236.893 34.1613 236.684 34.5968C235.65 35.1429 234.505 35.447 233.336 35.4861C232.965 35.2094 232.657 34.8559 232.435 34.4497C232.212 34.0434 232.079 33.594 232.046 33.132L231.906 33.2192ZM231.906 28.4761C231.197 28.3155 230.472 28.2337 229.744 28.232C227.338 28.232 225.977 29.3131 225.977 30.9523C225.966 31.2841 226.021 31.6149 226.139 31.9253C226.256 32.2356 226.435 32.5193 226.664 32.7597C226.893 33.0001 227.168 33.1923 227.472 33.3251C227.776 33.4579 228.104 33.5286 228.436 33.5331H228.75C229.353 33.5433 229.95 33.4113 230.492 33.1477C231.034 32.8841 231.507 32.4964 231.871 32.016V28.5284L231.906 28.4761ZM240.922 16.566C241.573 16.2649 242.279 16.0988 242.997 16.0778V20.35H247.478C247.545 20.9294 247.545 21.5145 247.478 22.0938H242.91V30.6209C242.91 32.6263 243.189 33.4982 244.932 33.4982C245.904 33.4774 246.87 33.3428 247.81 33.0971C247.827 33.2302 247.827 33.3651 247.81 33.4982C247.871 33.9663 247.805 34.4423 247.618 34.8758C246.413 35.4062 245.115 35.6908 243.799 35.7128C241.427 35.7128 240.207 34.405 240.207 31.2138C240.207 29.4701 240.207 25.407 240.364 22.2682H238.201C238.236 21.7172 238.36 21.1754 238.568 20.6639C239.133 20.4308 239.716 20.2442 240.311 20.1059L240.922 16.566ZM250.268 22.0764C250.319 21.4928 250.51 20.9303 250.826 20.4372C251.727 20.1428 252.669 19.9956 253.617 20.0013C254.157 19.9951 254.697 20.0595 255.221 20.1931V33.132C256.045 33.2021 256.862 33.3421 257.662 33.5505C257.704 33.8688 257.704 34.1913 257.662 34.5096C257.68 34.6835 257.68 34.8588 257.662 35.0327H250.042C250.112 34.5475 250.259 34.0766 250.478 33.6377C251.115 33.383 251.774 33.1903 252.448 33.0623V22.1461L250.268 22.0764ZM255.674 14.8571C255.68 15.2751 255.535 15.6811 255.266 16.0011C254.997 16.3212 254.622 16.5341 254.209 16.6009H253.948C253.53 16.6402 253.114 16.5143 252.788 16.2503C252.462 15.9863 252.252 15.6051 252.204 15.1884C252.195 15.0491 252.195 14.9093 252.204 14.7699C252.19 14.5489 252.221 14.3274 252.294 14.1186C252.368 13.9098 252.484 13.7182 252.634 13.5552C252.783 13.3922 252.965 13.2613 253.167 13.1704C253.369 13.0795 253.587 13.0304 253.808 13.0261H253.965C254.388 12.9873 254.81 13.1179 255.136 13.3892C255.463 13.6606 255.669 14.0505 255.709 14.4735V14.7176L255.674 14.8571ZM273.391 27.4647C273.391 32.6961 270.636 35.5733 266.416 35.5733C262.196 35.5733 259.441 32.7832 259.441 27.4647C259.441 22.7216 262.475 19.8095 266.416 19.8095C270.357 19.8095 273.356 22.6693 273.356 27.5344L273.391 27.4647ZM266.416 33.7075C269.258 33.7075 270.636 31.301 270.636 27.4647C270.636 24.1515 268.997 21.6404 266.416 21.6404C263.835 21.6404 262.179 23.9597 262.179 27.4647C262.091 31.3882 263.696 33.7772 266.329 33.7772L266.416 33.7075ZM281.203 33.1494C281.971 33.2022 282.731 33.3367 283.47 33.5505C283.549 34.0473 283.549 34.5534 283.47 35.0502H276.042C276.107 34.5639 276.254 34.0922 276.478 33.6551C277.121 33.3971 277.786 33.1986 278.465 33.0623V22.1461H276.199C276.233 21.5593 276.425 20.9927 276.757 20.507C277.579 20.2145 278.447 20.067 279.32 20.071C279.808 20.0678 280.294 20.1264 280.767 20.2454V22.5123H281.081C281.603 21.6707 282.341 20.9843 283.218 20.5243C284.095 20.0643 285.079 19.8476 286.068 19.8967C288.51 19.8967 290.672 20.6639 290.672 25.4593C290.672 28.0576 290.672 30.6907 290.498 33.2366C291.34 33.2922 292.174 33.4265 292.991 33.6377C293.061 33.9526 293.096 34.2742 293.096 34.5968C293.096 34.7712 293.096 34.9455 293.096 35.1199H285.755C285.82 34.6336 285.967 34.1619 286.19 33.7249C286.754 33.4789 287.337 33.2806 287.934 33.132V25.8953C287.934 23.5063 287.202 21.9892 285.022 21.9892C284.278 22.0407 283.553 22.2436 282.89 22.5854C282.227 22.9272 281.642 23.4008 281.168 23.9771L281.203 33.1494Z" fill="black"/>
<path d="M24.5351 0C19.6825 0 14.9389 1.43896 10.9041 4.13491C6.86936 6.83086 3.72464 10.6627 1.86763 15.1459C0.0106308 19.6291 -0.475246 24.5623 0.471446 29.3216C1.41814 34.081 3.75488 38.4527 7.18617 41.884C10.6175 45.3153 14.9892 47.652 19.7485 48.5987C24.5079 49.5454 29.4411 49.0596 33.9243 47.2026C38.4075 45.3455 42.2393 42.2008 44.9353 38.1661C47.6312 34.1313 49.0702 29.3877 49.0702 24.5351C49.0702 18.028 46.4852 11.7874 41.884 7.18616C37.2828 2.58494 31.0422 0 24.5351 0V0ZM33.5854 35.2419H15.4848V32.9401C15.481 32.6465 15.5773 32.3604 15.7581 32.1289C15.9388 31.8975 16.193 31.7346 16.4788 31.6672L22.0764 30.3419V18.6934L16.4788 17.4379C16.1959 17.3711 15.9439 17.2108 15.7635 16.9829C15.5831 16.7551 15.4849 16.473 15.4848 16.1823V13.7934H33.5854V16.1126C33.5844 16.4056 33.4837 16.6896 33.2999 16.9177C33.116 17.1459 32.86 17.3048 32.574 17.3681L26.9764 18.7108V30.3593L32.574 31.6846C32.8553 31.7542 33.1056 31.9152 33.2856 32.1425C33.4655 32.3697 33.5648 32.6503 33.5679 32.9401L33.5854 35.2419Z" fill="#ED403A"/>
</svg>
