<svg xmlns="http://www.w3.org/2000/svg" xmlns:xlink="http://www.w3.org/1999/xlink" width="172.253" height="30.947" viewBox="0 0 172.253 30.947">
  <defs>
    <clipPath id="clip-path">
      <rect id="Rectangle_1925" data-name="Rectangle 1925" width="172.253" height="30.947" transform="translate(0)" fill="#666" stroke="#707070" stroke-width="1"/>
    </clipPath>
  </defs>
  <g id="press-banner-fastcompany" clip-path="url(#clip-path)">
    <path id="svg_2" d="M151.524,3.212c0-1.693.526-2.277,1.4-2.277s1.577.35,2.394,2.277l4.963,11.269V21.6c0,1.693-.7,2.16-2.628,2.394v.467h9.167V24c-1.985-.234-2.628-.759-2.628-2.394V14.481L168.983,3.62c.934-2.1,1.869-2.569,3.27-2.8V.35h-6.715V.817c2.277.234,3.095.876,2.452,2.394l-4.2,9.635-4.321-9.868c-.584-1.343-.234-1.752,2.277-2.1V.409H147.32V.876c2.277.35,2.978.759,2.978,2.394v13.2L139.73.409h-5.2V.876c1.693.234,2.219.759,2.219,2.394V21.663c0,1.693-.467,2.277-1.051,2.277-.525,0-.817-.234-1.577-2.277L126.3.292h-.467L118.3,20.729c-.817,2.277-2.1,3.036-3.387,3.328v.467h6.89v-.467c-2.394-.234-3.153-1.168-2.628-2.686l1.693-4.671h7.124l1.635,4.379c.7,1.985.292,2.569-1.752,2.92v.467h13.08V24c-2.277-.35-2.978-.759-2.978-2.394V5.138l12.788,19.386h.759V3.212Zm-92.2,9.167C59.325,4.9,62.887.993,67.033.993c2.452,0,4.029.526,4.963,1.518a8.77,8.77,0,0,1,1.81,3.27h.467V.759A34.807,34.807,0,0,0,67.558,0C61.31,0,54.829,4.029,54.829,12.379S61.31,24.758,67.15,24.758a24.154,24.154,0,0,0,7.007-1.051l.7-4.73-.409-.117a12.506,12.506,0,0,1-1.869,2.628,7.966,7.966,0,0,1-5.606,2.336C63,23.765,59.325,19.97,59.325,12.379Zm51.793.7a12.379,12.379,0,0,1-1.927-.175V1.226h1.927c3.211,0,4.613,1.693,4.613,5.9C115.731,11.386,114.271,13.08,111.118,13.08ZM36.086.35V6.131h.467c.7-3.679,2.16-4.846,4.613-4.846h1.168V21.6c0,1.693-.7,2.16-2.628,2.394v.467h9.167V24c-1.985-.234-2.628-.759-2.628-2.394V1.226h1.168c2.452,0,3.912,1.168,4.613,4.846h.467V.292H36.086Zm-7.3,24.407c3.971,0,8.175-2.277,8.175-6.949a7.169,7.169,0,0,0-4.029-6.423L28.378,8.875c-2.394-1.343-3.095-2.569-3.095-4.321,0-1.985,1.46-3.562,4.2-3.562A4.338,4.338,0,0,1,32.641,2.1a9.328,9.328,0,0,1,2.044,3.971h.409V.759A18.825,18.825,0,0,0,29.779,0c-3.912,0-6.832,2.452-6.832,6.6A7.47,7.47,0,0,0,26.8,13.021l4.2,2.336c2.394,1.343,3.153,2.628,3.153,4.554,0,2.277-2.336,3.912-4.9,3.912a5.637,5.637,0,0,1-4.087-1.577,8.085,8.085,0,0,1-1.81-2.92H26.1V18.86c-.759-.175-1.226-.292-1.869-1.81L18.86,4.263h-.467l-5.255,12.5c-.7,1.693-1.168,1.985-1.985,2.1v.467h4.671V18.86c-1.693-.175-2.16-.993-1.752-2.044l.817-1.985h4.73l1.051,2.452c.467,1.109-.234,1.4-1.927,1.518v.467h3.737v4.613A24.908,24.908,0,0,0,28.787,24.758Zm59.325-.234L95.06,5.2l.526,16.466C95.644,23.3,95,23.765,93.017,24v.467h19.152V24c-2.277-.35-2.978-.759-2.978-2.394V13.839a14.521,14.521,0,0,0,2.1.175c4.613,0,8.583-1.693,8.583-6.832S115.906.35,111.293.35H103.06V.817c1.693.234,2.219.759,2.219,2.394V21.6c0,1.693-.7,2.394-2.628,2.394h-.058c-2.044,0-2.92-.759-2.978-2.336l-.7-18.393c-.058-1.693.526-2.219,2.336-2.452V.35H95.586L89.4,17.692,83.207.35H77.134V.817c1.81.234,2.394.817,2.336,2.452L78.828,20.9A2.965,2.965,0,0,1,76.142,24v.467h6.423V24A2.725,2.725,0,0,1,80.054,20.9l.526-16.058,7.065,19.619.467.058Zm-18.627-5.08a7.31,7.31,0,0,0,7.065-7.065,7.065,7.065,0,1,0-14.131,0A7.314,7.314,0,0,0,69.485,19.444Zm0-13.138c1.985,0,3.328,1.635,3.328,6.073,0,4.5-1.4,6.073-3.328,6.073-1.985,0-3.328-1.635-3.328-6.073C66.157,7.883,67.5,6.306,69.485,6.306Zm58.216,9.4H121.22l3.212-8.875ZM19.327,13.9H15.357l1.985-4.846Zm-7.591,1.226H12.2V7.883h-.467c-.759,2.569-1.518,3.153-2.92,3.153H6.131V1.226h4.263c2.452,0,3.912,1.168,4.613,4.846h.467V.292H0V.759c1.693.234,2.219.759,2.219,2.394V21.546c0,1.693-.526,2.16-2.219,2.394v.467H9.109V23.94c-2.277-.35-2.978-.759-2.978-2.394V11.912H8.817C10.16,11.97,10.977,12.554,11.737,15.123Z" transform="translate(0 3.095)" fill="#666"/>
  </g>
</svg>
