<svg xmlns="http://www.w3.org/2000/svg" xmlns:xlink="http://www.w3.org/1999/xlink" width="120.888" height="30.947" viewBox="0 0 120.888 30.947">
  <defs>
    <clipPath id="clip-path">
      <rect id="Rectangle_1924" data-name="Rectangle 1924" width="120.887" height="30.947" fill="#666" stroke="#707070" stroke-width="1"/>
    </clipPath>
  </defs>
  <g id="press-banner-entrepreneur" clip-path="url(#clip-path)">
    <g id="_20160721060814-ENT-logo-white" data-name="20160721060814-ENT-logo-white" transform="translate(0 3.588)">
      <g id="Group_5894" data-name="Group 5894">
        <path id="Path_6369" data-name="Path 6369" d="M.178,16.136l1.532-.244V1.753L0,1.532.089,0h10.7l-.266,4.284L8.39,4.217,8.257,1.532H4.95V7.9H6.392l.333-1.465,1.487.044v4.395H6.725L6.37,9.367H4.928v6.748H8.257l.311-2.93,2.242.067.178,4.461H.111Z" fill="#666"/>
        <path id="Path_6370" data-name="Path 6370" d="M53.533,35.707,53.6,34.4l1.2-.244V25.231L53.4,25.1V23.766l3.507-.511.266.755v.511A4.215,4.215,0,0,1,60.347,23.1a3.131,3.131,0,0,1,3.329,3.44v7.591l1.265.244-.067,1.31H60.7V27.206c0-1.221-.444-1.909-1.554-1.909a2.407,2.407,0,0,0-.932.178,4.306,4.306,0,0,0-.51.577v8.124l1.265.244-.089,1.31H53.533Z" transform="translate(-41.547 -17.973)" fill="#666"/>
        <path id="Path_6371" data-name="Path 6371" d="M355.555,35.707l.044-1.31,1.2-.244V25.231l-1.4-.133V23.766l3.507-.511.266.755v.511a4.215,4.215,0,0,1,3.174-1.421,3.131,3.131,0,0,1,3.329,3.44v7.591l1.265.244-.067,1.31h-4.151V27.206c0-1.221-.444-1.909-1.554-1.909a2.406,2.406,0,0,0-.932.178,4.309,4.309,0,0,0-.511.577v8.124l1.265.244-.089,1.31h-5.349Z" transform="translate(-276.565 -17.973)" fill="#666"/>
        <path id="Path_6372" data-name="Path 6372" d="M111.47,27.838a6.8,6.8,0,0,1-2.486.422,2.568,2.568,0,0,1-2.863-2.841V17.606l-1.421-.222.067-1.554,1.6-.067.688-2.375,2.042-.089v2.553h2.2l-.155,1.554-2.02.222v7.813a.957.957,0,0,0,1.021,1.065h1.2Z" transform="translate(-81.475 -10.348)" fill="#666"/>
        <path id="Path_6373" data-name="Path 6373" d="M508.955,36.174,509,34.887l1.132-.266V25.7l-1.332-.133V24.233l3.64-.511.244.866v.289a6.282,6.282,0,0,1,3.8-1.176l.533.466-.377,3.374-2-.067-.2-1.8a2.9,2.9,0,0,0-1.287.466v8.5l1.265.266-.089,1.287h-5.371Z" transform="translate(-395.936 -18.44)" fill="#666"/>
        <path id="Path_6374" data-name="Path 6374" d="M273.533,36.174l.067-1.287,1.132-.266V25.7l-1.332-.133V24.233l3.64-.511.244.866v.289a6.283,6.283,0,0,1,3.8-1.176l.533.466-.422,3.374-2-.067-.2-1.8a2.906,2.906,0,0,0-1.287.466v8.5l1.265.266-.089,1.287h-5.349Z" transform="translate(-212.753 -18.44)" fill="#666"/>
        <path id="Path_6375" data-name="Path 6375" d="M138.733,36.174l.067-1.287,1.132-.266V25.7l-1.332-.133V24.233l3.64-.511.244.866v.289a6.263,6.263,0,0,1,3.773-1.176l.533.466-.377,3.374-2-.067-.2-1.8a2.906,2.906,0,0,0-1.287.466v8.5l1.265.266L144.1,36.2h-5.371Z" transform="translate(-107.855 -18.44)" fill="#666"/>
        <path id="Path_6376" data-name="Path 6376" d="M180.03,30.191c0,2.131.932,3.773,2.775,3.773a5.663,5.663,0,0,0,2.6-.621l.511,1.176a6.181,6.181,0,0,1-3.906,1.287c-3.241,0-5.105-2.8-5.105-6.392,0-3.063,1.354-6.415,5.061-6.415,3.241,0,4.461,3,4.461,6.326l-.311.8Zm-.044-1.421,3.729-.178c-.067-1.487-.377-3.84-1.842-3.84a2.068,2.068,0,0,0-1.043.289A8.931,8.931,0,0,0,179.985,28.771Z" transform="translate(-137.66 -17.895)" fill="#666"/>
        <path id="Path_6377" data-name="Path 6377" d="M412.43,30.191c0,2.131.932,3.773,2.774,3.773a5.664,5.664,0,0,0,2.6-.621l.51,1.176a6.181,6.181,0,0,1-3.907,1.287c-3.241,0-5.1-2.8-5.1-6.392,0-3.063,1.354-6.415,5.061-6.415,3.24,0,4.461,3,4.461,6.326l-.311.8Zm-.044-1.421,3.729-.178c-.067-1.487-.377-3.84-1.842-3.84a2.068,2.068,0,0,0-1.043.289A8.931,8.931,0,0,0,412.385,28.771Z" transform="translate(-318.508 -17.895)" fill="#666"/>
        <path id="Path_6378" data-name="Path 6378" d="M314.83,30.191c0,2.131.932,3.773,2.775,3.773a5.663,5.663,0,0,0,2.6-.621l.51,1.176a6.181,6.181,0,0,1-3.906,1.287c-3.241,0-5.105-2.8-5.105-6.392,0-3.063,1.354-6.415,5.061-6.415,3.241,0,4.461,3,4.461,6.326l-.311.8Zm-.044-1.421,3.729-.178c-.067-1.487-.377-3.84-1.842-3.84a2.068,2.068,0,0,0-1.043.289A8.6,8.6,0,0,0,314.785,28.771Z" transform="translate(-242.558 -17.895)" fill="#666"/>
        <path id="Path_6379" data-name="Path 6379" d="M461.29,35.863l-.311-1.065a3.852,3.852,0,0,1-2.863,1.243,3.288,3.288,0,0,1-3.618-3.6V25.076l-1.4-.133V23.766l4.04-.466.311,1.065V32.09c0,1.354.555,2.064,1.642,2.064a3.151,3.151,0,0,0,1.065-.178,4.183,4.183,0,0,0,.555-.688V25.076l-1.443-.133V23.766l4.084-.466.311,1.065v9.944l1.265.244-.155,1.31Z" transform="translate(-352.599 -18.128)" fill="#666"/>
      </g>
      <path id="Path_6380" data-name="Path 6380" d="M226.4,34.109a3.163,3.163,0,0,1-1.554-.333V25.941a6.459,6.459,0,0,1,.577-.732,3.144,3.144,0,0,1,1.11-.178c1.665,0,1.953,1.687,1.953,4.706a9.556,9.556,0,0,1-.555,4.04A3.447,3.447,0,0,1,226.4,34.109Zm4.972-4.905c0-3.751-1.11-6.1-3.884-6.1a3.675,3.675,0,0,0-3.063,1.509v-.422l-.311-1.065-3.618.511V24.92l1.4.178V40.235l-1.2.244-.067,1.265h5.349l.089-1.265-1.265-.244V35.441a4.151,4.151,0,0,0,2,.466C231.332,35.907,231.376,31.313,231.376,29.2Z" transform="translate(-171.589 -17.973)" fill="#666"/>
    </g>
  </g>
</svg>
