<svg xmlns="http://www.w3.org/2000/svg" width="32.01" height="32" viewBox="0 0 32.01 32">
  <g id="Android" transform="translate(0.01)">
    <rect id="Rectangle_1654" data-name="Rectangle 1654" width="32" height="32" fill="none"/>
    <g id="Group_5228" data-name="Group 5228" transform="translate(0 7.2)">
      <path id="Path_5865" data-name="Path 5865" d="M125.683,115.789a1.333,1.333,0,1,1,1.332-1.333,1.333,1.333,0,0,1-1.332,1.333m-14.728,0a1.333,1.333,0,1,1,1.332-1.333,1.333,1.333,0,0,1-1.332,1.333m15.206-8.027,2.663-4.612a.554.554,0,1,0-.96-.554l-2.7,4.671a16.74,16.74,0,0,0-13.7,0l-2.7-4.671a.554.554,0,0,0-.96.554l2.663,4.612a15.724,15.724,0,0,0-8.158,12.586h32a15.725,15.725,0,0,0-8.158-12.586" transform="translate(-102.319 -102.32)" fill="#3ddb85"/>
    </g>
  </g>
</svg>
