<svg id="Angular" xmlns="http://www.w3.org/2000/svg" width="32" height="32" viewBox="0 0 32 32">
  <rect id="Rectangle_1655" data-name="Rectangle 1655" width="32" height="32" fill="none"/>
  <g id="Group_5229" data-name="Group 5229" transform="translate(0.889)">
    <path id="Path_5866" data-name="Path 5866" d="M15.817.341.849,5.608l2.365,19.61,12.618,6.935,12.683-7.029L30.88,5.515Z" transform="translate(-0.849 -0.341)" fill="#b3b3b3"/>
    <path id="Path_5867" data-name="Path 5867" d="M140.915,19.106l-13.6-4.64V42.954l11.4-6.31,2.2-17.538Z" transform="translate(-112.377 -12.798)" fill="#a6120d"/>
    <path id="Path_5868" data-name="Path 5868" d="M15.073,19.186,17.1,36.724,28.326,42.95V14.462Z" transform="translate(-13.393 -12.795)" fill="#dd1b16"/>
    <path id="Path_5869" data-name="Path 5869" d="M61.938,37.358l-3.745,1.751H54.246L52.39,43.75l-3.451.064,9.254-20.587,3.745,14.131Zm-.362-.882-3.358-6.648-2.755,6.534h2.73l3.383.115Z" transform="translate(-43.261 -20.525)" fill="#f2f2f2"/>
    <path id="Path_5870" data-name="Path 5870" d="M127.309,23.226l.025,6.6,3.126,6.539h-3.143L127.31,39.1h4.347l2.031,4.706,3.3.061Z" transform="translate(-112.377 -20.524)" fill="#b3b3b3"/>
  </g>
</svg>
