<svg xmlns="http://www.w3.org/2000/svg" xmlns:xlink="http://www.w3.org/1999/xlink" viewBox="0 0 200 200"><defs><style>.cls-1{fill:none;}.cls-2{fill:url(#linear-gradient);}.cls-3{fill:url(#linear-gradient-2);}.cls-4{fill:#14559a;}.cls-5{fill:url(#linear-gradient-3);}.cls-6{fill:#3092c4;}.cls-7{fill:#1969bc;}.cls-8{fill:url(#linear-gradient-4);}.cls-9{fill:url(#linear-gradient-5);}.cls-10{fill:url(#linear-gradient-6);}.cls-11{fill:#2b74b1;}.cls-12{fill:#125a9e;}.cls-13{fill:url(#linear-gradient-7);}.cls-14{fill:url(#linear-gradient-8);}.cls-15{fill:#0d82ca;}.cls-16{fill:url(#linear-gradient-9);}.cls-17{fill:#127bca;}.cls-18{fill:url(#linear-gradient-10);}.cls-19{fill:url(#linear-gradient-11);}.cls-20{fill:#05a1e6;}.cls-21{fill:url(#linear-gradient-12);}.cls-22{fill:url(#linear-gradient-13);}.cls-23{fill:url(#linear-gradient-14);}.cls-24{fill:#079ae1;}.cls-25{fill:#1e5cb3;}.cls-26{fill:#1d60b5;}.cls-27{fill:#175fab;}.cls-28{fill:url(#linear-gradient-15);}.cls-29{fill:#7dcbec;}.cls-30{fill:#5ec5ed;}.cls-31{fill:url(#linear-gradient-16);}.cls-32{fill:url(#linear-gradient-17);}.cls-33{fill:url(#linear-gradient-18);}</style><linearGradient id="linear-gradient" x1="-166.45" y1="436.51" x2="-166.34" y2="436.51" gradientTransform="matrix(5.74, 0, 0, -10.23, 392.75, 4570.01)" gradientUnits="userSpaceOnUse"><stop offset="0" stop-color="#0994dc"/><stop offset="0.35" stop-color="#66cef5"/><stop offset="0.85" stop-color="#127bca"/><stop offset="1" stop-color="#127bca"/></linearGradient><linearGradient id="linear-gradient-2" x1="-164.52" y1="436.96" x2="-164.42" y2="436.96" gradientTransform="matrix(6.02, 0, 0, -10.49, 428.53, 4689.19)" gradientUnits="userSpaceOnUse"><stop offset="0" stop-color="#0e76bc"/><stop offset="0.36" stop-color="#36aee8"/><stop offset="0.85" stop-color="#00adef"/><stop offset="1" stop-color="#00adef"/></linearGradient><linearGradient id="linear-gradient-3" x1="-167.2" y1="437.83" x2="-167.1" y2="437.83" gradientTransform="matrix(5.72, 0, 0, -10.63, 393.63, 4747.6)" gradientUnits="userSpaceOnUse"><stop offset="0" stop-color="#1c63b7"/><stop offset="0.5" stop-color="#33bdf2"/><stop offset="1" stop-color="#33bdf2" stop-opacity="0.42"/></linearGradient><linearGradient id="linear-gradient-4" x1="-167.48" y1="438.04" x2="-167.38" y2="438.04" gradientTransform="matrix(5.66, 0, 0, -10.89, 385.9, 4866.73)" gradientUnits="userSpaceOnUse"><stop offset="0" stop-color="#166ab8"/><stop offset="0.4" stop-color="#36aee8"/><stop offset="0.85" stop-color="#0798dd"/><stop offset="1" stop-color="#0798dd"/></linearGradient><linearGradient id="linear-gradient-5" x1="-157.26" y1="438.54" x2="-157.18" y2="438.54" gradientTransform="matrix(7.34, 0, 0, -11.58, 591.85, 5177.7)" gradientUnits="userSpaceOnUse"><stop offset="0" stop-color="#124379"/><stop offset="0.39" stop-color="#1487cb"/><stop offset="0.78" stop-color="#165197"/><stop offset="1" stop-color="#165197"/></linearGradient><linearGradient id="linear-gradient-6" x1="14.84" y1="418.39" x2="16.31" y2="418.39" gradientTransform="matrix(2.44, 0, 0, -3.89, -18.52, 1710.15)" gradientUnits="userSpaceOnUse"><stop offset="0" stop-color="#33bdf2" stop-opacity="0.7"/><stop offset="1" stop-color="#1dacd8"/></linearGradient><linearGradient id="linear-gradient-7" x1="-149.53" y1="439.4" x2="-149.47" y2="439.4" gradientTransform="matrix(9.95, 0, 0, -12.41, 926.09, 5551.47)" gradientUnits="userSpaceOnUse"><stop offset="0" stop-color="#136ab4"/><stop offset="0.6" stop-color="#59caf5" stop-opacity="0.55"/><stop offset="1" stop-color="#59caf5" stop-opacity="0.23"/></linearGradient><linearGradient id="linear-gradient-8" x1="-87.02" y1="439.32" x2="-85.55" y2="439.32" gradientTransform="matrix(9.06, 0, 0, -12.47, 793.07, 5578.83)" gradientUnits="userSpaceOnUse"><stop offset="0" stop-color="#05a1e6" stop-opacity="0.25"/><stop offset="1" stop-color="#05a1e6"/></linearGradient><linearGradient id="linear-gradient-9" x1="-161.93" y1="436.22" x2="-161.84" y2="436.22" gradientTransform="matrix(6.17, 0, 0, -9.28, 436.77, 4142.15)" gradientUnits="userSpaceOnUse"><stop offset="0" stop-color="#318ed5"/><stop offset="1" stop-color="#38a7e4"/></linearGradient><linearGradient id="linear-gradient-10" x1="-164.98" y1="429.34" x2="-164.88" y2="429.34" gradientTransform="matrix(5.74, 0, 0, -7.19, 384.08, 3204.44)" gradientUnits="userSpaceOnUse"><stop offset="0" stop-color="#05a1e6"/><stop offset="1" stop-color="#05a1e6" stop-opacity="0.55"/></linearGradient><linearGradient id="linear-gradient-11" x1="-159.62" y1="436.32" x2="-159.53" y2="436.32" gradientTransform="matrix(6.61, 0, 0, -10.2, 492.17, 4557.72)" gradientUnits="userSpaceOnUse"><stop offset="0" stop-color="#1959a6"/><stop offset="0.5" stop-color="#05a1e6"/><stop offset="0.92" stop-color="#7ec5ea"/><stop offset="1" stop-color="#7ec5ea"/></linearGradient><linearGradient id="linear-gradient-12" x1="-149.54" y1="439.3" x2="-149.47" y2="439.3" gradientTransform="matrix(9.14, 0, 0, -12.43, 804.36, 5559.06)" gradientUnits="userSpaceOnUse"><stop offset="0" stop-color="#165096"/><stop offset="1" stop-color="#0d82ca"/></linearGradient><linearGradient id="linear-gradient-13" x1="-185.86" y1="432.98" x2="-185.71" y2="432.98" gradientTransform="matrix(4.12, 0, 0, -7.2, 203.76, 3202.46)" gradientUnits="userSpaceOnUse"><stop offset="0" stop-color="#05a1e6"/><stop offset="0.87" stop-color="#0495d6"/><stop offset="1" stop-color="#0495d6"/></linearGradient><linearGradient id="linear-gradient-14" x1="-157.62" y1="439.19" x2="-157.53" y2="439.19" gradientTransform="matrix(7.58, 0, 0, -12.11, 632.5, 5417.97)" gradientUnits="userSpaceOnUse"><stop offset="0" stop-color="#38a7e4" stop-opacity="0.33"/><stop offset="0.96" stop-color="#0e88d3"/><stop offset="1" stop-color="#0e88d3"/></linearGradient><linearGradient id="linear-gradient-15" x1="-152.62" y1="439.36" x2="-152.55" y2="439.36" gradientTransform="matrix(8.83, 0, 0, -12.34, 786.42, 5520.79)" gradientUnits="userSpaceOnUse"><stop offset="0" stop-color="#168cd4"/><stop offset="0.5" stop-color="#1c87cc"/><stop offset="1" stop-color="#154b8d"/></linearGradient><linearGradient id="linear-gradient-16" x1="-1525.96" y1="248.81" x2="-1525.21" y2="248.81" gradientTransform="matrix(4.08, 0, 0, -0.54, 184.96, 200.56)" gradientUnits="userSpaceOnUse"><stop offset="0" stop-color="#97d6ee"/><stop offset="0.7" stop-color="#55c1ea"/><stop offset="1" stop-color="#55c1ea"/></linearGradient><linearGradient id="linear-gradient-17" x1="-1843.67" y1="334.08" x2="-1842.75" y2="334.08" gradientTransform="matrix(3.33, 0, 0, -0.95, 93.72, 384.1)" gradientUnits="userSpaceOnUse"><stop offset="0" stop-color="#7accec"/><stop offset="1" stop-color="#3fb7ed"/></linearGradient><linearGradient id="linear-gradient-18" x1="-162.61" y1="437.47" x2="-162.51" y2="437.47" gradientTransform="matrix(6.54, 0, 0, -10.14, 502.15, 4528.62)" xlink:href="#linear-gradient-7"/></defs><g id="Layer_2" data-name="Layer 2"><g id="Layer_1-2" data-name="Layer 1"><rect class="cls-1" width="200" height="200"/><g id="Group_6010" data-name="Group 6010"><path id="path12339" class="cls-2" d="M71,77.52c6.84,20.92,9.43,58.24,29.44,58.24h0a24.57,24.57,0,0,0,4.61-.44h0C86.89,131.08,84.73,94.16,73.61,75h0c-.87.79-1.73,1.62-2.6,2.48"/><path id="path12367" class="cls-3" d="M73.64,75c11.09,19.12,13.25,56,31.46,60.28h0a30.42,30.42,0,0,0,4.3-1.19h0C93.07,126.13,88.56,90.28,76,73h0c-.77.63-1.53,1.3-2.3,2"/><path id="path12379" class="cls-4" d="M89.62,63.68a24.65,24.65,0,0,0-4.61.44A35.44,35.44,0,0,0,72.7,69.27a29.94,29.94,0,0,1,3.23,3.79,44.26,44.26,0,0,1,12.58-7.64,27.17,27.17,0,0,1,4.69-1.3,13.83,13.83,0,0,0-3.56-.44"/><path id="path12459" class="cls-5" d="M122.11,126.78q2.51-2,5-4.39c-6.95-20.83-9.44-58.68-29.59-58.68a23.36,23.36,0,0,0-4.34.4c18.35,4.56,20.7,44.49,28.91,62.67"/><path id="path12521" class="cls-6" d="M93.2,64.11a14.77,14.77,0,0,0-3.56-.44h7.92a23.55,23.55,0,0,0-4.35.4"/><path id="path12525" class="cls-7" d="M121.76,131.21a32.76,32.76,0,0,1-2.27-2.45,42.08,42.08,0,0,1-10.09,5.4,15.7,15.7,0,0,0,3.77,1.29,16.58,16.58,0,0,0,3.22.31,21.17,21.17,0,0,0,9.27-1.66,17.92,17.92,0,0,1-3.87-2.89"/><path id="path12553" class="cls-8" d="M88.51,65.42c16.43,8.59,17.87,47.52,31,63.33h0c.88-.59,1.75-1.28,2.62-2h0C113.9,108.6,111.55,68.66,93.2,64.1h0a28.15,28.15,0,0,0-4.69,1.32"/><path id="path12581" class="cls-9" d="M75.93,73.06c12.61,17.25,17.12,53.1,33.44,61.1h0a42,42,0,0,0,10.1-5.4h0C106.35,113,104.92,74,88.48,65.42h0A44.14,44.14,0,0,0,75.9,73.05"/><path id="path12651" class="cls-10" d="M63,77a188,188,0,0,0-6.44,18A134.17,134.17,0,0,1,71,77.51a53,53,0,0,0-2.14-5.58A70,70,0,0,0,63,77"/><path id="path12655" class="cls-11" d="M70.64,70.64c-.59.41-1.19.84-1.75,1.29A50.85,50.85,0,0,1,71,77.51c.88-.85,1.75-1.68,2.61-2.47a34.37,34.37,0,0,0-3-4.41"/><path id="path12659" class="cls-12" d="M72.71,69.29q-1,.66-2.07,1.38a35.33,35.33,0,0,1,3,4.4c.76-.69,1.53-1.36,2.29-2a29.06,29.06,0,0,0-3.22-3.79"/><path id="path12741" class="cls-13" d="M184.82,62.08c-9.3,35.85-28.72,64.65-45,71.91h0c-.3.14-.6.26-.88.38l-.11,0-.25.09-.11.05-.4.14-.17.06-.2.07-.2.07-.17.06-.35.1-.15,0-.24.06-.16,0-.25.07-.31.07a6.8,6.8,0,0,0,2.33.41c15.43,0,31-27.66,56.75-73.67H184.82Z"/><path id="path12803" class="cls-14" d="M53.18,65.14h0l.25-.1h.11l.27-.09h0c.2-.06.39-.14.59-.21h.09l.25-.08.12,0,.26-.08h.09l.85-.22h.12l.25,0a.27.27,0,0,1,.12,0,.51.51,0,0,0,.25,0h.06l.52-.1h.1l.24,0h.13l.24,0a.24.24,0,0,0,.12,0c.18,0,.37,0,.56-.05a15,15,0,0,0-1.65-.08c-17.38,0-41.33,32.25-52.12,74H7.12c3.46-6.16,6.53-12,9.39-17.46,7.56-29.58,23-49.76,36.62-55.1"/><path id="path12807" class="cls-15" d="M63,77a70.11,70.11,0,0,1,5.94-5.08,29.37,29.37,0,0,0-1.42-2.73A33.57,33.57,0,0,0,63,77"/><path id="path12811" class="cls-15" d="M64.39,65.37a14.59,14.59,0,0,1,3.08,3.83c.3-.36.6-.69.9-1a17.66,17.66,0,0,0-4.2-3l.18.09h0"/><path id="path12831" class="cls-16" d="M16.56,120.24C32.41,89.69,39.92,70.37,53.18,65.13h0c-13.65,5.34-29.09,25.53-36.62,55.11"/><path id="path12843" class="cls-17" d="M68.38,68.2c-.31.31-.59.65-.89,1a27.06,27.06,0,0,1,1.41,2.73c.59-.45,1.19-.88,1.78-1.29a23.84,23.84,0,0,0-2.27-2.44"/><path id="path12923" class="cls-18" d="M23.76,137.56h0a1.36,1.36,0,0,1-.29,0h-.33a3,3,0,0,0-.6,0h-.06a26.07,26.07,0,0,0,27-20.13c2.77-8.84,5-16.28,7-22.52a320,320,0,0,0-20.26,33.36,16.59,16.59,0,0,1-12.52,9.17"/><path id="path12949" class="cls-19" d="M23.76,137.56h0a16.61,16.61,0,0,0,12.52-9.17h0A320.64,320.64,0,0,1,56.53,95h0A187,187,0,0,1,63,77h0c-13.38,12.74-26.82,33.91-39.18,60.55"/><path id="path12961" class="cls-20" d="M16.56,120.24c-2.83,5.46-5.93,11.28-9.39,17.45h6.05a150,150,0,0,1,3.34-17.45"/><path id="path12981" class="cls-21" d="M58.29,63.81h-.13l-.22,0h0a.17.17,0,0,0-.14,0h0l-.24,0h0a.17.17,0,0,0-.1,0h0l-.52.09h-.06l-.24,0h0l-.13,0h0l-.24,0h0a.24.24,0,0,1-.12,0h0l-.85.22h-.1l-.25.07h0l-.12,0h0l-.25.08h-.09a6,6,0,0,1-.6.2h0l-.26.1h0l-.12,0h0l-.25.09h0l-.08,0h0C39.92,70.22,32.4,89.56,16.57,120.1h0a145.56,145.56,0,0,0-3.35,17.45h9.33a4,4,0,0,0,.6,0h.34a.9.9,0,0,0,.28,0h0C36.16,110.86,49.59,89.68,63,76.92h0a33.78,33.78,0,0,1,4.51-7.81h0a14.59,14.59,0,0,0-3.08-3.83h0l-.19-.09h0l-.19-.1h0L63.79,65h0l-.22-.09h0l-.16-.07h0l-.35-.15h0l-.15-.06h0l-.26-.1h0l-.14-.05h0l-.37-.13h0l-.42-.11h0a.14.14,0,0,0-.09,0h0l-.36-.11h-.08L60.3,64h-.09c-.13,0-.25-.05-.38-.06h-.07l-.45-.06h-.08a1,1,0,0,1-.35,0h0a5.29,5.29,0,0,0-.56.05"/><path id="path13003" class="cls-22" d="M148.52,81.92c-3.05,9.78-5.52,17.81-7.67,24.46h0a265.6,265.6,0,0,0,24.46-42.74h0A25.12,25.12,0,0,0,148.52,81.9"/><path id="path13093" class="cls-23" d="M141.11,133.4c-.43.22-.86.43-1.28.6,16.28-7.26,35.7-36.06,45-71.91H183c-21.37,38.15-28.22,63.69-41.83,71.3"/><path id="path13097" class="cls-24" d="M130.48,130.17a78.53,78.53,0,0,0,10.36-23.78,119.18,119.18,0,0,1-13.69,16v0a40.64,40.64,0,0,0,3.34,7.76"/><path id="path13101" class="cls-7" d="M130.48,130.17a14.48,14.48,0,0,1-3.9,3.42c-.31.18-.63.35-1,.51a13.82,13.82,0,0,0,5,1.57h0l.82.07h0a1.27,1.27,0,0,1,.39,0h1.91a1.06,1.06,0,0,0,.31,0h.1l.34,0h.1l.38-.07h.06c.25-.05.5-.09.76-.16a11,11,0,0,1-5.34-5.16"/><path id="path13105" class="cls-25" d="M100.44,135.78a23.78,23.78,0,0,0,4.61-.45,29,29,0,0,0,4.29-1.18,15.84,15.84,0,0,0,7,1.6H100.44Z"/><path id="path13109" class="cls-25" d="M116.35,135.78a21.24,21.24,0,0,0,9.28-1.66,13.75,13.75,0,0,0,5,1.56h0l.81.07H116.35Z"/><path id="path13113" class="cls-26" d="M132.31,135.78h1.46a1.17,1.17,0,0,0,.32,0h.09l.34-.05h.11l.38-.06h.06l.76-.16h0a6.79,6.79,0,0,0,2.32.41h-5.86Z"/><path id="path13117" class="cls-27" d="M127.15,122.41h0q-2.5,2.37-5,4.4c-.88.69-1.75,1.35-2.63,2a27.78,27.78,0,0,0,2.28,2.45,17.37,17.37,0,0,0,3.87,2.89c.31-.15.63-.32.94-.5a14.71,14.71,0,0,0,3.91-3.42,41.42,41.42,0,0,1-3.35-7.77"/><path id="path13139" class="cls-28" d="M177,62.08h-9.5c-.51,0-1,.05-1.5.08h0l-.7,1.49h0a265.17,265.17,0,0,1-24.46,42.74h0a78.32,78.32,0,0,1-10.36,23.78h0a11,11,0,0,0,5.34,5.17h0l.17,0h.15l.26-.07h0l.16,0h0l.23-.06h0l.15,0h0l.35-.11h0l.17-.05h0a.5.5,0,0,0,.2-.08h0a.36.36,0,0,0,.2-.06h0l.17-.06h0l.43-.15h0s.07,0,.11,0h0l.25-.1h0l.11,0h0l.88-.37h0l1.27-.59h0c13.61-7.61,20.47-33.15,41.83-71.3H177Z"/><path id="path13231" class="cls-29" d="M58.89,63.76h.42l.45.06h.08l.38.06h.1c.29.06.59.12.87.2h.07l.36.1h.09c.14,0,.28.07.42.12h0l.36.12.15,0,.26.11.15,0,.35.15.17.07a1,1,0,0,0,.21.09L64,65l.18.09a17.71,17.71,0,0,1,4.21,3,13.65,13.65,0,0,1,1.49-1.35,16.37,16.37,0,0,0-9.71-3.15,9.29,9.29,0,0,0-1.29.06"/><path id="path13235" class="cls-30" d="M68.38,68.2a22.77,22.77,0,0,1,2.27,2.44c.7-.48,1.38-.94,2.07-1.38a21.88,21.88,0,0,0-2.85-2.41,13.46,13.46,0,0,0-1.48,1.35"/><g id="g13243"><path id="path13245" class="cls-31" d="M58.87,63.76c.44,0,.86,0,1.29,0a16.3,16.3,0,0,1,9.71,3.14,17.54,17.54,0,0,1,11.59-3.17H57.23c.56,0,1.1,0,1.64.08"/></g><g id="g13253"><path id="path13255" class="cls-32" d="M81.49,63.68A17.54,17.54,0,0,0,69.9,66.85a21.88,21.88,0,0,1,2.85,2.41,35.44,35.44,0,0,1,12.31-5.15,25.43,25.43,0,0,1,4.61-.43Z"/></g><path id="path13333" class="cls-33" d="M140.84,106.39c2.16-6.63,4.62-14.69,7.67-24.46a25.13,25.13,0,0,1,16.78-18.26c.25-.49.47-1,.71-1.5a25.53,25.53,0,0,0-25.41,19.74c-6.14,19.63-9.86,32.35-13.44,40.46a119.91,119.91,0,0,0,13.69-16"/></g></g></g></svg>