<svg xmlns="http://www.w3.org/2000/svg" width="32" height="32" viewBox="0 0 32 32">
  <g id="AWS" transform="translate(-1.668 5.9)">
    <rect id="Rectangle_1689" data-name="Rectangle 1689" width="32" height="32" transform="translate(1.668 -5.9)" fill="none"/>
    <g id="Group_5305" data-name="Group 5305" transform="translate(0.001 0)">
      <path id="Path_5862" data-name="Path 5862" d="M21.8,8.05a3.22,3.22,0,0,0,.117.95,5.7,5.7,0,0,0,.341.766.463.463,0,0,1,.075.245.421.421,0,0,1-.2.319l-.67.447a.51.51,0,0,1-.277.1.49.49,0,0,1-.319-.149,3.293,3.293,0,0,1-.383-.5c-.106-.181-.213-.383-.33-.628a3.932,3.932,0,0,1-3.129,1.469,2.916,2.916,0,0,1-2.129-.766A2.734,2.734,0,0,1,14.1,8.252a2.74,2.74,0,0,1,.969-2.192,3.872,3.872,0,0,1,2.608-.83,8.427,8.427,0,0,1,1.128.085c.394.053.8.138,1.224.234V4.772a2.358,2.358,0,0,0-.5-1.7,2.45,2.45,0,0,0-1.735-.49,4.842,4.842,0,0,0-1.149.138,8.48,8.48,0,0,0-1.149.362,3.054,3.054,0,0,1-.373.138.653.653,0,0,1-.17.032c-.149,0-.224-.106-.224-.33V2.4a.673.673,0,0,1,.075-.373.8.8,0,0,1,.3-.224,6.127,6.127,0,0,1,1.341-.479,6.453,6.453,0,0,1,1.66-.2,3.889,3.889,0,0,1,2.788.862A3.522,3.522,0,0,1,21.774,4.6V8.05ZM17.474,9.668a3.449,3.449,0,0,0,1.1-.192A2.372,2.372,0,0,0,19.585,8.8a1.689,1.689,0,0,0,.362-.681,3.821,3.821,0,0,0,.106-.926V6.741a8.888,8.888,0,0,0-.979-.181,8.019,8.019,0,0,0-1-.064,2.454,2.454,0,0,0-1.586.426,1.483,1.483,0,0,0-.521,1.224,1.373,1.373,0,0,0,1.511,1.522Zm8.546,1.149a.594.594,0,0,1-.4-.106A.867.867,0,0,1,25.4,10.3L22.9,2.069a1.864,1.864,0,0,1-.1-.426.233.233,0,0,1,.255-.266h1.043a.59.59,0,0,1,.415.106.871.871,0,0,1,.213.415L26.51,8.944,28.17,1.9a.747.747,0,0,1,.2-.415.732.732,0,0,1,.426-.106h.851a.64.64,0,0,1,.426.106.717.717,0,0,1,.2.415l1.682,7.131L33.8,1.9a.913.913,0,0,1,.213-.415.694.694,0,0,1,.415-.106h.99a.237.237,0,0,1,.266.266,1.061,1.061,0,0,1-.021.17,1.514,1.514,0,0,1-.075.266l-2.565,8.227a.816.816,0,0,1-.223.415.681.681,0,0,1-.4.106h-.92a.64.64,0,0,1-.426-.106.754.754,0,0,1-.2-.426L29.2,3.431l-1.639,6.854a.831.831,0,0,1-.2.426.66.66,0,0,1-.426.106ZM39.7,11.1a7.043,7.043,0,0,1-1.639-.192,4.842,4.842,0,0,1-1.224-.426.767.767,0,0,1-.33-.3.751.751,0,0,1-.064-.3V9.348c0-.223.085-.33.245-.33a.6.6,0,0,1,.192.032c.064.021.16.064.266.106a5.789,5.789,0,0,0,1.171.373,6.391,6.391,0,0,0,1.266.128,2.872,2.872,0,0,0,1.554-.351A1.146,1.146,0,0,0,41.69,8.3a1.036,1.036,0,0,0-.29-.745A2.67,2.67,0,0,0,40.324,7l-1.543-.479a3.246,3.246,0,0,1-1.7-1.086,2.536,2.536,0,0,1-.532-1.543,2.369,2.369,0,0,1,.287-1.181,2.736,2.736,0,0,1,.766-.873,3.378,3.378,0,0,1,1.107-.553A4.639,4.639,0,0,1,40.047,1.1a5.343,5.343,0,0,1,.713.043c.245.032.468.075.692.117a4.444,4.444,0,0,1,.607.17,2.323,2.323,0,0,1,.447.192.92.92,0,0,1,.319.266.574.574,0,0,1,.1.351v.5c0,.224-.085.341-.245.341a1.107,1.107,0,0,1-.4-.128,4.869,4.869,0,0,0-2.043-.415,2.747,2.747,0,0,0-1.415.3,1.028,1.028,0,0,0-.5.947,1,1,0,0,0,.319.756,3.179,3.179,0,0,0,1.171.585l1.511.479a3.237,3.237,0,0,1,1.65,1.022,2.408,2.408,0,0,1,.49,1.49,2.736,2.736,0,0,1-.277,1.235,2.862,2.862,0,0,1-.777.937,3.431,3.431,0,0,1-1.181.6A5.061,5.061,0,0,1,39.7,11.1Z" transform="translate(-11.109 0)" fill="#252f3e"/>
      <g id="Group_5227" data-name="Group 5227" transform="translate(1.668 13.033)">
        <path id="Path_5863" data-name="Path 5863" d="M30.6,121.757a22.956,22.956,0,0,1-12.963,3.959A23.452,23.452,0,0,1,1.81,119.681c-.33-.3-.032-.7.362-.468a31.432,31.432,0,0,0,27.916,1.735C30.673,120.682,31.173,121.331,30.6,121.757Z" transform="translate(-1.668 -118.513)" fill="#f90" fill-rule="evenodd"/>
        <path id="Path_5864" data-name="Path 5864" d="M250.373,114.779c-.447-.575-2.959-.277-4.1-.138-.341.043-.394-.255-.085-.479,2-1.4,5.289-1,5.673-.532s-.106,3.768-1.98,5.343c-.287.245-.564.117-.436-.2C249.873,117.716,250.82,115.343,250.373,114.779Z" transform="translate(-219.984 -113.195)" fill="#f90" fill-rule="evenodd"/>
      </g>
    </g>
  </g>
</svg>
