<svg xmlns="http://www.w3.org/2000/svg" viewBox="0 0 200 200"><defs><style>.cls-1{fill:none;}.cls-2{fill:#953dac;}.cls-3{fill:#822c98;}.cls-4{fill:#68217a;}.cls-5{fill:#fefefe;}.cls-6{fill:#004481;}</style></defs><g id="Layer_2" data-name="Layer 2"><g id="Layer_1-2" data-name="Layer 1"><rect class="cls-1" width="200" height="200"/><path class="cls-2" d="M29.83,135.79V63.28l0,0s0,0,0,0,.12-.18.15-.29a8.11,8.11,0,0,1,4.14-5.11q30.58-17.1,61.14-34.23a9.42,9.42,0,0,1,2.53-1c.11,0,.35.05.26-.22h2.92s0,.06.08.07.07,0,0-.07h.58l-.07.08s.08.1.12.11A11.37,11.37,0,0,1,105,24q6.74,3.78,13.49,7.54Q142,44.71,165.59,57.83a8.3,8.3,0,0,1,2.62,2.2,1.31,1.31,0,0,1-.55.41q-10.17,5.82-20.35,11.61a23.27,23.27,0,0,1-2.82,1.53c-.09-.12-.19-.24-.27-.37a51.86,51.86,0,0,0-40.38-24.76,49.33,49.33,0,0,0-13.61.79,51.76,51.76,0,0,0-41.7,55.51A50,50,0,0,0,52,119.29c.77,1.92,1.7,3.76,2.62,5.6-.67.39-1.34.79-2,1.17L31.49,138.12c-.23.13-.46.32-.75.14h0c0-.08,0-.13-.09-.14h0a.24.24,0,0,0-.13-.25,6.2,6.2,0,0,1-.47-1.24c0-.11,0-.28-.23-.14V136C30,135.94,29.89,135.87,29.83,135.79Z"/><path class="cls-3" d="M144.49,73.58a23.27,23.27,0,0,0,2.82-1.53q10.19-5.79,20.35-11.61a1.31,1.31,0,0,0,.55-.41,6.52,6.52,0,0,1,1.73,3.25c0,.12,0,.3.23.23v72.86c-.26,0-.21.23-.25.37a7.43,7.43,0,0,1-.83,2,1.11,1.11,0,0,1-.56-.17l-3.78-2.08-10.08-5.56c-2.18-1.2-4.35-2.42-6.55-3.6a32.41,32.41,0,0,0-3.19-1.69c-.1-.19-.31-.24-.47-.33q-10.56-5.82-21.14-11.62a4.37,4.37,0,0,0-1.08-.54,3.3,3.3,0,0,0-.39-.26l-4.91-2.7L107,104.69c-2.51-1.38-5-2.74-7.52-4.14-.32-.18-.76-.25-.91-.67.19-.13.38-.26.58-.38l15.37-8.76q3.74-2.13,7.47-4.23c.16-.07.33-.13.48-.21L144.09,74C144.24,73.86,144.47,73.83,144.49,73.58Z"/><path class="cls-4" d="M144.93,125.61a32.41,32.41,0,0,1,3.19,1.69c2.2,1.18,4.37,2.4,6.55,3.6l10.08,5.56,3.78,2.08a1.11,1.11,0,0,0,.56.17,7.59,7.59,0,0,1-3.09,3c-1.8,1-3.6,2-5.41,3L133.49,160,106,175.38a14.63,14.63,0,0,1-4.22,2c-.1,0-.18.08-.16.2H98.36c0-.26-.24-.2-.39-.25a9.34,9.34,0,0,1-2.1-.85L79.4,167.19l-43.47-24.4a16.56,16.56,0,0,1-3.55-2.23,5.33,5.33,0,0,1-1.64-2.3c.29.18.52,0,.75-.14l21.13-12.06c.68-.38,1.35-.78,2-1.17l.37.59a51.71,51.71,0,0,0,81.68,10.92A52.46,52.46,0,0,0,144.93,125.61Z"/><path d="M29.83,135.79c.06.08.2.15,0,.23Z"/><path d="M101.17,22.46c0,.05,0,.08,0,.07s0-.05-.08-.07Z"/><path class="cls-5" d="M144.93,125.61a52.46,52.46,0,0,1-8.24,10.79A51.72,51.72,0,0,1,55,125.48l-.37-.59c-.92-1.84-1.85-3.68-2.62-5.6a50,50,0,0,1-3.49-14.54,51.76,51.76,0,0,1,41.7-55.51,49.33,49.33,0,0,1,13.61-.79,51.86,51.86,0,0,1,40.38,24.76c.08.13.18.25.27.37s-.25.28-.4.38L122.5,86.3c-.15.08-.32.14-.48.21a.14.14,0,0,0,0-.06A25.68,25.68,0,0,0,95.86,74.51a25.87,25.87,0,0,0-21.21,30.55,22.22,22.22,0,0,0,2.53,7,1.25,1.25,0,0,0,.1.27c4.79,8.29,12,12.89,21.52,13.47a25.73,25.73,0,0,0,23.44-12.67,4.37,4.37,0,0,1,1.08.54q10.58,5.81,21.14,11.62C144.62,125.37,144.83,125.42,144.93,125.61Z"/><path class="cls-6" d="M30.66,138.12c-.12,0-.14-.14-.13-.25A.24.24,0,0,1,30.66,138.12Z"/><path class="cls-6" d="M30.75,138.26a.11.11,0,0,1-.09-.14C30.73,138.13,30.76,138.18,30.75,138.26Z"/><path class="cls-2" d="M77.18,112.05a22.22,22.22,0,0,1-2.53-7A25.87,25.87,0,0,1,95.86,74.51,25.68,25.68,0,0,1,122,86.45a.14.14,0,0,1,0,.06q-3.73,2.1-7.47,4.23L99.18,99.5c-.2.12-.39.25-.58.38-.65.36-1.3.7-1.94,1.07Z"/><path class="cls-4" d="M77.18,112.05,96.66,101c.64-.37,1.29-.71,1.94-1.07.15.42.59.49.91.67,2.49,1.4,5,2.76,7.52,4.14l9.91,5.47,4.91,2.7a3.3,3.3,0,0,1,.39.26A25.73,25.73,0,0,1,98.8,125.79c-9.56-.58-16.73-5.18-21.52-13.47A1.25,1.25,0,0,1,77.18,112.05Z"/><path class="cls-5" d="M156.44,94.37H153c-.15,0-.23.06-.23.18l-.88,6.1c0,.11,0,.17.13.17h2.79a.39.39,0,0,1,.44.44v2.79a.39.39,0,0,1-.44.44h-3.36c-.15,0-.22.06-.22.18l-1.11,7a.39.39,0,0,1-.44.4l-3.36,0a.43.43,0,0,1-.31-.14.36.36,0,0,1-.09-.35l1.06-6.85c0-.12,0-.18-.13-.18h-6.14c-.15,0-.22.06-.22.18l-1.11,7a.39.39,0,0,1-.44.4l-3.36,0a.43.43,0,0,1-.31-.14.36.36,0,0,1-.09-.35l1.06-6.85c0-.12,0-.18-.13-.18h-2.78a.39.39,0,0,1-.44-.44l0-2.79a.39.39,0,0,1,.44-.44h3.27c.15,0,.22-.06.22-.17l.93-6.1c0-.12,0-.18-.13-.18H135a.39.39,0,0,1-.44-.44V91.1a.39.39,0,0,1,.44-.44h3.27c.15,0,.22-.06.22-.18l1.11-7a.4.4,0,0,1,.44-.4l3.36,0a.43.43,0,0,1,.31.14.35.35,0,0,1,.09.35l-1.06,6.85c0,.12,0,.18.13.18H149c.15,0,.22-.06.22-.18l1.11-7a.4.4,0,0,1,.44-.4l3.36,0a.43.43,0,0,1,.31.14.35.35,0,0,1,.09.35l-1.06,6.85c0,.12,0,.18.13.18h2.87a.39.39,0,0,1,.45.44l-.05,2.83A.39.39,0,0,1,156.44,94.37Zm-8.8,6.28.93-6.1c0-.12,0-.18-.13-.18H142.3c-.15,0-.23.06-.23.18l-.88,6.1c0,.11.05.17.13.17h6.1C147.57,100.82,147.64,100.76,147.64,100.65Z"/></g></g></svg>