<svg xmlns="http://www.w3.org/2000/svg" width="32" height="32" viewBox="0 0 32 32">
  <g id="Django" transform="translate(3)">
    <rect id="Rectangle_1696" data-name="Rectangle 1696" width="32" height="32" transform="translate(-3)" fill="none"/>
    <g id="Group_5307" data-name="Group 5307">
      <path id="Path_5985" data-name="Path 5985" d="M11.288,0h5.24V24.015a34.655,34.655,0,0,1-6.8.707C3.331,24.715,0,21.856,0,16.366c0-5.29,3.534-8.724,9.009-8.724a8.525,8.525,0,0,1,2.279.267Zm.184,12.237A5.275,5.275,0,0,0,9.7,11.97c-2.65,0-4.181,1.616-4.181,4.449,0,2.758,1.463,4.281,4.147,4.281a12.362,12.362,0,0,0,1.8-.133v-8.33Z" fill="#2ba977"/>
      <path id="Path_5986" data-name="Path 5986" d="M160.161,8.286V20.31c0,4.141-.31,6.132-1.221,7.849A8.349,8.349,0,0,1,154.659,32L149.8,29.709c2.313-1.075,3.432-2.025,4.147-3.474.748-1.482.984-3.2.984-7.715V8.287h5.233ZM154.4,0h5.24V5.324H154.4Z" transform="translate(-135.064)" fill="#2ba977"/>
    </g>
  </g>
</svg>
