<svg xmlns="http://www.w3.org/2000/svg" xmlns:xlink="http://www.w3.org/1999/xlink" width="100" height="100" viewBox="0 0 100 100">
  <defs>
    <clipPath id="clip-path">
      <rect id="Rectangle_1852" data-name="Rectangle 1852" width="100" height="100" transform="translate(-15.891 15)" fill="#fff" stroke="#707070" stroke-width="1"/>
    </clipPath>
  </defs>
  <g id="Mask_Group_5489" data-name="Mask Group 5489" transform="translate(15.891 -15)" clip-path="url(#clip-path)">
    <g id="iOS_Swift" data-name="iOS Swift" transform="translate(-15.891 15)">
      <rect id="Rectangle_1688" data-name="Rectangle 1688" width="100" height="100" fill="none"/>
      <path id="_24px_9_" data-name="24px(9)" d="M66.286,4H9.143a7.133,7.133,0,0,0-7.107,7.143L2,54a7.164,7.164,0,0,0,7.143,7.143H66.286A7.164,7.164,0,0,0,73.429,54V11.143A7.164,7.164,0,0,0,66.286,4ZM9.143,21.857h37.5v12.5H9.143Zm0,19.643h37.5V54H12.714a3.582,3.582,0,0,1-3.571-3.571ZM62.714,54H53.786V21.857h12.5V50.429A3.582,3.582,0,0,1,62.714,54Z" transform="translate(12.286 17.429)" fill="#41bfad"/>
    </g>
  </g>
</svg>
