<svg id="Golang" xmlns="http://www.w3.org/2000/svg" width="32.006" height="32" viewBox="0 0 32.006 32">
  <rect id="Rectangle_1656" data-name="Rectangle 1656" width="32" height="32" fill="none"/>
  <g id="Group_5239" data-name="Group 5239" transform="translate(0 10)">
    <g id="Group_5232" data-name="Group 5232" transform="translate(2.344 3.017)">
      <g id="Group_5231" data-name="Group 5231">
        <path id="Path_5876" data-name="Path 5876" d="M313.887,97.931c-.057,0-.076-.037-.04-.082l.326-.416a.245.245,0,0,1,.169-.083h5.569c.058,0,.08.04.048.088l-.259.4a.214.214,0,0,1-.161.088Z" transform="translate(-313.829 -97.348)" fill="#009fd0"/>
      </g>
    </g>
    <g id="Group_5234" data-name="Group 5234" transform="translate(0 4.448)">
      <g id="Group_5233" data-name="Group 5233">
        <path id="Path_5877" data-name="Path 5877" d="M298.85,107.112c-.058,0-.076-.037-.04-.082l.326-.415a.244.244,0,0,1,.169-.083h7.112a.071.071,0,0,1,.072.1l-.126.382a.155.155,0,0,1-.138.1Z" transform="translate(-298.791 -106.527)" fill="#009fd0"/>
      </g>
    </g>
    <g id="Group_5235" data-name="Group 5235" transform="translate(3.769 5.881)">
      <path id="Path_5878" data-name="Path 5878" d="M323.04,116.3c-.058,0-.082-.041-.054-.091l.221-.4a.2.2,0,0,1,.156-.092h3.121a.094.094,0,0,1,.095.1l-.036.372a.118.118,0,0,1-.115.1Z" transform="translate(-322.974 -115.721)" fill="#009fd0"/>
    </g>
    <g id="Group_5238" data-name="Group 5238" transform="translate(8.531)">
      <g id="Group_5237" data-name="Group 5237">
        <path id="Path_5879" data-name="Path 5879" d="M365.007,81.312c-.979.242-1.652.443-2.615.685-.238.06-.256.082-.456-.15a2.055,2.055,0,0,0-.731-.592,2.694,2.694,0,0,0-2.814.228,3.337,3.337,0,0,0-1.594,2.968,2.448,2.448,0,0,0,2.1,2.449,2.884,2.884,0,0,0,2.653-1.024c.148-.165.268-.356.427-.571h-3c-.325,0-.4-.2-.29-.468.2-.476.577-1.3.8-1.7a.428.428,0,0,1,.383-.256h5.676c-.028.423-.027.848-.088,1.263a6.608,6.608,0,0,1-1.279,3.062,6.437,6.437,0,0,1-4.436,2.645,5.509,5.509,0,0,1-4.185-1.035,4.914,4.914,0,0,1-1.981-3.457,6.1,6.1,0,0,1,1.319-4.566A6.9,6.9,0,0,1,359.26,78.1a5.417,5.417,0,0,1,4.126.758,4.939,4.939,0,0,1,1.8,2.2C365.246,81.192,365.182,81.269,365.007,81.312Z" transform="translate(-353.529 -77.988)" fill="#009fd0"/>
        <g id="Group_5236" data-name="Group 5236" transform="translate(11.069 0.125)">
          <path id="Path_5880" data-name="Path 5880" d="M430.11,90.611a5.78,5.78,0,0,1-3.8-1.372,4.89,4.89,0,0,1-1.683-3.01,5.959,5.959,0,0,1,1.27-4.709,6.581,6.581,0,0,1,4.359-2.607,5.743,5.743,0,0,1,4.437.8,4.809,4.809,0,0,1,2.194,3.471,6.018,6.018,0,0,1-1.794,5.287,7.056,7.056,0,0,1-3.739,1.992C430.947,90.546,430.525,90.564,430.11,90.611Zm3.718-6.3c-.017-.2-.017-.363-.045-.517a2.578,2.578,0,0,0-3.181-2.078,3.378,3.378,0,0,0-2.724,2.71,2.566,2.566,0,0,0,1.429,2.942,2.85,2.85,0,0,0,2.543-.1,3.381,3.381,0,0,0,1.978-2.959Z" transform="translate(-424.552 -78.787)" fill="#009fd0"/>
        </g>
      </g>
    </g>
  </g>
</svg>
