<svg id="Java" xmlns="http://www.w3.org/2000/svg" width="32" height="32" viewBox="0 0 32 32">
  <rect id="Rectangle_1676" data-name="Rectangle 1676" width="32" height="32" fill="none"/>
  <g id="Group_5290" data-name="Group 5290" transform="translate(4.07)">
    <path id="Path_5930" data-name="Path 5930" d="M66.965,267.1s-1.216.707.865.946a18.227,18.227,0,0,0,6.588-.279,11.5,11.5,0,0,0,1.75.855c-6.228,2.669-14.1-.155-9.2-1.522" transform="translate(-59.409 -242.497)" fill="#5382a1"/>
    <path id="Path_5931" data-name="Path 5931" d="M56.9,229.29s-1.363,1.01.718,1.225a25.7,25.7,0,0,0,8.5-.408,3.785,3.785,0,0,0,1.309.8c-7.53,2.2-15.917.172-10.527-1.616" transform="translate(-50.104 -208.17)" fill="#5382a1"/>
    <path id="Path_5932" data-name="Path 5932" d="M129.548,79.254c1.535,1.767-.4,3.357-.4,3.357s3.9-2.012,2.107-4.53c-1.671-2.349-2.953-3.516,3.986-7.54,0,0-10.89,2.72-5.689,8.714" transform="translate(-116.339 -64.043)" fill="#e76f00"/>
    <path id="Path_5933" data-name="Path 5933" d="M21.455,292.415s.9.741-.991,1.314c-3.6,1.089-14.961,1.418-18.119.043-1.135-.494.994-1.179,1.664-1.323a4.344,4.344,0,0,1,1.1-.123c-1.262-.889-8.159,1.746-3.5,2.5,12.7,2.06,23.145-.927,19.853-2.412" transform="translate(-0.007 -265.236)" fill="#5382a1"/>
    <path id="Path_5934" data-name="Path 5934" d="M33.315,190.059s-5.782,1.373-2.048,1.872a43.478,43.478,0,0,0,7.648-.082c2.393-.2,4.8-.631,4.8-.631a10.117,10.117,0,0,0-1.454.778c-5.871,1.544-17.214.826-13.948-.754a10.933,10.933,0,0,1,5.007-1.184" transform="translate(-25.175 -172.547)" fill="#5382a1"/>
    <path id="Path_5935" data-name="Path 5935" d="M199.819,192.878c5.969-3.1,3.209-6.082,1.283-5.68a4.5,4.5,0,0,0-.682.183,1.086,1.086,0,0,1,.51-.393c3.811-1.339,6.742,3.952-1.23,6.047a.546.546,0,0,0,.119-.157" transform="translate(-181.306 -169.569)" fill="#5382a1"/>
    <path id="Path_5936" data-name="Path 5936" d="M89.434,0S92.74,3.307,86.3,8.391c-5.165,4.079-1.178,6.4,0,9.062-3.015-2.72-5.227-5.115-3.743-7.343C84.733,6.838,90.768,5.252,89.434,0" transform="translate(-74.52)" fill="#e76f00"/>
    <path id="Path_5937" data-name="Path 5937" d="M50.418,315.564c5.729.367,14.527-.2,14.735-2.914,0,0-.4,1.028-4.734,1.844a47.113,47.113,0,0,1-14.5.223s.732.606,4.5.847" transform="translate(-41.691 -283.852)" fill="#5382a1"/>
  </g>
</svg>
