<svg xmlns="http://www.w3.org/2000/svg" width="31.08" height="31.999" viewBox="0 0 31.08 31.999">
  <path id="Laravel" d="M117.638,93.535c0-.015-.013-.028-.017-.042a.586.586,0,0,0-.032-.078.423.423,0,0,0-.034-.045.562.562,0,0,0-.045-.058.512.512,0,0,0-.049-.038.39.39,0,0,0-.055-.042h0l-6.015-3.464a.5.5,0,0,0-.5,0l-6.015,3.464h0a.5.5,0,0,0-.055.042.512.512,0,0,0-.049.038.564.564,0,0,0-.045.058.422.422,0,0,0-.034.045.465.465,0,0,0-.032.078.273.273,0,0,0-.017.042.5.5,0,0,0-.017.131v6.579l-5.013,2.887V90.26a.5.5,0,0,0-.017-.131c0-.015-.013-.028-.017-.042a.587.587,0,0,0-.032-.078.42.42,0,0,0-.034-.045.563.563,0,0,0-.045-.058.513.513,0,0,0-.049-.038.391.391,0,0,0-.055-.042h0L93.35,86.362a.5.5,0,0,0-.5,0l-6.02,3.464h0a.5.5,0,0,0-.055.042.512.512,0,0,0-.049.038.562.562,0,0,0-.045.058.423.423,0,0,0-.034.045.464.464,0,0,0-.032.078.273.273,0,0,0-.017.042.5.5,0,0,0-.017.131v20.6a.5.5,0,0,0,.251.435l12.032,6.927a.571.571,0,0,0,.083.034l.039.016a.488.488,0,0,0,.257,0c.011,0,.022-.01.033-.014a.578.578,0,0,0,.087-.036L111.4,111.3a.5.5,0,0,0,.251-.435v-6.579l5.764-3.319a.5.5,0,0,0,.251-.435V93.665a1.2,1.2,0,0,0-.023-.13ZM99.1,110.289l-5-2.832,5.255-3.025h0l5.765-3.319L110.129,104l-3.675,2.1ZM110.632,97.42v5.712l-2.106-1.212-2.909-1.674V94.533l2.106,1.212Zm.5-6.639,5.011,2.886-5.011,2.886-5.011-2.886ZM95.7,105.382l-2.106,1.212V94.014L96.5,92.34l2.106-1.212v12.579ZM93.09,87.376l5.01,2.886-5.01,2.885-5.011-2.886Zm-5.515,3.751L89.68,92.34l2.909,1.674V107.46h0a.443.443,0,0,0,.008.056.537.537,0,0,0,.01.073h0a.488.488,0,0,0,.024.056.6.6,0,0,0,.026.063h0a.5.5,0,0,0,.038.048.467.467,0,0,0,.041.053h0a.532.532,0,0,0,.048.037.611.611,0,0,0,.054.041h0l5.762,3.261v5.768l-11.033-6.349Zm23.062,19.448-11.03,6.35v-5.769l8.168-4.663,2.861-1.633Zm6.015-10.331-5.013,2.887V97.419l2.909-1.674,2.106-1.212v5.712Z" transform="translate(-86.58 -86.295)" fill="#ff2d20"/>
</svg>
