<svg xmlns="http://www.w3.org/2000/svg" xmlns:xlink="http://www.w3.org/1999/xlink" width="32" height="32" viewBox="0 0 32 32">
  <defs>
    <clipPath id="clip-path">
      <rect id="Rectangle_1709" data-name="Rectangle 1709" width="32" height="32" transform="translate(-18595 -8759)" fill="#fff" stroke="#707070" stroke-width="1"/>
    </clipPath>
  </defs>
  <g id="ML" transform="translate(18594.999 8759)" clip-path="url(#clip-path)">
    <g id="Page-1" transform="translate(-18595 -8759)">
      <g id="_005---Coding-Thinking" data-name="005---Coding-Thinking">
        <path id="Path" d="M1.655,2.207H16V29.793H1.655A1.655,1.655,0,0,1,0,28.138V3.862A1.655,1.655,0,0,1,1.655,2.207Z" fill="#464f5d" fill-rule="evenodd"/>
        <rect id="Rectangle" width="32" height="2.207" rx="1.103" transform="translate(17.103) rotate(90)" fill="#bdc3c7"/>
        <g id="Group_5318" data-name="Group 5318">
          <path id="Path-2" data-name="Path" d="M2.207,8.276a.552.552,0,0,1-.331-.993L3.494,6.069,1.876,4.855a.552.552,0,1,1,.662-.883L4.745,5.628a.552.552,0,0,1,0,.883L2.538,8.166a.552.552,0,0,1-.331.11Z" fill="#65ddb9" fill-rule="evenodd"/>
          <path id="Path-3" data-name="Path" d="M8.828,8.276H6.621a.552.552,0,1,1,0-1.1H8.828a.552.552,0,1,1,0,1.1Z" fill="#65ddb9" fill-rule="evenodd"/>
          <path id="Path-4" data-name="Path" d="M3.862,11.586H2.207a.552.552,0,1,1,0-1.1H3.862a.552.552,0,1,1,0,1.1Z" fill="#65ddb9" fill-rule="evenodd"/>
          <path id="Path-5" data-name="Path" d="M3.862,13.793H2.207a.552.552,0,1,1,0-1.1H3.862a.552.552,0,1,1,0,1.1Z" fill="#65ddb9" fill-rule="evenodd"/>
          <path id="Path-6" data-name="Path" d="M3.862,16H2.207a.552.552,0,1,1,0-1.1H3.862a.552.552,0,1,1,0,1.1Z" fill="#65ddb9" fill-rule="evenodd"/>
          <path id="Path-7" data-name="Path" d="M3.862,18.207H2.207a.552.552,0,1,1,0-1.1H3.862a.552.552,0,1,1,0,1.1Z" fill="#65ddb9" fill-rule="evenodd"/>
          <path id="Path-8" data-name="Path" d="M3.862,20.414H2.207a.552.552,0,0,1,0-1.1H3.862a.552.552,0,0,1,0,1.1Z" fill="#65ddb9" fill-rule="evenodd"/>
          <path id="Path-9" data-name="Path" d="M3.862,22.621H2.207a.552.552,0,0,1,0-1.1H3.862a.552.552,0,0,1,0,1.1Z" fill="#65ddb9" fill-rule="evenodd"/>
          <path id="Path-10" data-name="Path" d="M3.862,24.828H2.207a.552.552,0,1,1,0-1.1H3.862a.552.552,0,1,1,0,1.1Z" fill="#65ddb9" fill-rule="evenodd"/>
          <path id="Path-11" data-name="Path" d="M3.862,27.034H2.207a.552.552,0,0,1,0-1.1H3.862a.552.552,0,0,1,0,1.1Z" fill="#65ddb9" fill-rule="evenodd"/>
          <path id="Path-12" data-name="Path" d="M12.69,11.586H6.069a.552.552,0,1,1,0-1.1H12.69a.552.552,0,0,1,0,1.1Z" fill="#65ddb9" fill-rule="evenodd"/>
          <path id="Path-13" data-name="Path" d="M11.586,13.793H7.172a.552.552,0,1,1,0-1.1h4.414a.552.552,0,1,1,0,1.1Z" fill="#65ddb9" fill-rule="evenodd"/>
          <path id="Path-14" data-name="Path" d="M12.69,16H6.069a.552.552,0,1,1,0-1.1H12.69a.552.552,0,0,1,0,1.1Z" fill="#65ddb9" fill-rule="evenodd"/>
          <path id="Path-15" data-name="Path" d="M11.586,18.207H7.172a.552.552,0,1,1,0-1.1h4.414a.552.552,0,1,1,0,1.1Z" fill="#65ddb9" fill-rule="evenodd"/>
          <path id="Path-16" data-name="Path" d="M12.69,20.414H6.069a.552.552,0,0,1,0-1.1H12.69a.552.552,0,0,1,0,1.1Z" fill="#65ddb9" fill-rule="evenodd"/>
          <path id="Path-17" data-name="Path" d="M11.586,22.621H7.172a.552.552,0,1,1,0-1.1h4.414a.552.552,0,1,1,0,1.1Z" fill="#65ddb9" fill-rule="evenodd"/>
          <path id="Path-18" data-name="Path" d="M12.69,24.828H6.069a.552.552,0,1,1,0-1.1H12.69a.552.552,0,0,1,0,1.1Z" fill="#65ddb9" fill-rule="evenodd"/>
          <path id="Path-19" data-name="Path" d="M11.586,27.034H7.172a.552.552,0,1,1,0-1.1h4.414a.552.552,0,1,1,0,1.1Z" fill="#65ddb9" fill-rule="evenodd"/>
        </g>
        <path id="Path-20" data-name="Path" d="M27.034,4.966h-4.69a.552.552,0,0,1,0-1.1h4.69a.552.552,0,0,0,.552-.552V1.1a.552.552,0,0,1,1.1,0V3.31A1.655,1.655,0,0,1,27.034,4.966Z" fill="#3b97d3" fill-rule="evenodd"/>
        <path id="Path-21" data-name="Path" d="M28.138,31.724a.552.552,0,0,1-.552-.552V28.69a.552.552,0,0,0-.552-.552h-3.31a.552.552,0,1,1,0-1.1h3.31A1.655,1.655,0,0,1,28.69,28.69v2.483a.552.552,0,0,1-.552.552Z" fill="#3b97d3" fill-rule="evenodd"/>
        <path id="Path-22" data-name="Path" d="M30.9,28.69a.552.552,0,0,1-.552-.552V26.483a.552.552,0,0,0-.552-.552H25.931a.552.552,0,0,1,0-1.1h3.862a1.655,1.655,0,0,1,1.655,1.655v1.655A.552.552,0,0,1,30.9,28.69Z" fill="#3b97d3" fill-rule="evenodd"/>
        <path id="Path-23" data-name="Path" d="M29.793,7.172H24.11a.552.552,0,1,1,0-1.1h5.683a.552.552,0,0,0,.552-.552V3.559a.552.552,0,0,1,1.1,0V5.517A1.655,1.655,0,0,1,29.793,7.172Z" fill="#3b97d3" fill-rule="evenodd"/>
        <path id="Path-24" data-name="Path" d="M29.423,19.139a2.814,2.814,0,0,1,.37,1.4,2.878,2.878,0,0,1-2.665,2.869,3.093,3.093,0,0,1,.359,1.457,3.169,3.169,0,0,1-3.172,3.172A3.752,3.752,0,0,1,17.1,26.593V4.386s0-4.2,5.479-.828c.447.276.932.6,1.457.988l.006.006a.338.338,0,0,1,.066.028,2.574,2.574,0,0,1,1.644,2.406,2.7,2.7,0,0,1-.017.3,2.657,2.657,0,0,1-.408,1.131c-.006.006-.006.011-.011.017A3.46,3.46,0,0,1,28.64,11.89a3.421,3.421,0,0,1-.127.927,3.752,3.752,0,0,1,.188,5.468l.011.011a2.632,2.632,0,0,1,.712.844Z" fill="#ff5364" fill-rule="evenodd"/>
        <path id="Path-25" data-name="Path" d="M25.738,7.283a2.657,2.657,0,0,1-.408,1.131,3.51,3.51,0,0,0-3.062,3.476.552.552,0,0,1-1.1,0,4.612,4.612,0,0,1,4.574-4.607Z" fill="#df4d60" fill-rule="evenodd"/>
        <path id="Path-26" data-name="Path" d="M29.423,19.139A5.458,5.458,0,0,1,26.041,20.3a.552.552,0,0,1,0-1.1,4.365,4.365,0,0,0,2.67-.9,2.632,2.632,0,0,1,.712.844Z" fill="#df4d60" fill-rule="evenodd"/>
        <path id="Path-27" data-name="Path" d="M24.11,4.579a2.4,2.4,0,0,0-.53-.061,2.469,2.469,0,0,0-2.466,2.466.552.552,0,0,1-1.1,0,3.571,3.571,0,0,1,2.571-3.426c.447.276.932.6,1.457.988l.006.006a.338.338,0,0,1,.066.028Z" fill="#df4d60" fill-rule="evenodd"/>
        <path id="Path-28" data-name="Path" d="M25.121,18.188a.56.56,0,0,0,.061,0,.552.552,0,0,0,.059-1.1,2.051,2.051,0,0,1-1.682-1.308A4.3,4.3,0,0,0,26.882,11.6a.552.552,0,1,0-1.1,0,3.2,3.2,0,0,1-5.459,2.262.552.552,0,0,0-.78.78,4.269,4.269,0,0,0,2.89,1.252,3.165,3.165,0,0,0,2.691,2.295Z" fill="#df4d60" fill-rule="evenodd"/>
        <path id="Path-29" data-name="Path" d="M25.178,23.448a4,4,0,0,0-.607.051c0-.025,0-.05,0-.076a4.017,4.017,0,0,0-4.012-4.013.552.552,0,0,0,0,1.1,2.912,2.912,0,0,1,2.909,2.909,2.855,2.855,0,0,1-.036.428,4.014,4.014,0,0,0-2.271,3.609.552.552,0,1,0,1.1,0,2.912,2.912,0,0,1,2.909-2.909.552.552,0,1,0,0-1.1Z" fill="#df4d60" fill-rule="evenodd"/>
        <path id="Path-30" data-name="Path" d="M18.836,11.31a.552.552,0,0,1-.552.552A1.182,1.182,0,0,0,17.1,13.043V11.1a2.217,2.217,0,0,1,1.181-.337.552.552,0,0,1,.552.552Z" fill="#df4d60" fill-rule="evenodd"/>
        <path id="Path-31" data-name="Path" d="M20.855,22.847a.552.552,0,0,1-.552.552,3.2,3.2,0,0,0-3.2,3.194V23.73A4.27,4.27,0,0,1,20.3,22.3a.552.552,0,0,1,.552.552Z" fill="#df4d60" fill-rule="evenodd"/>
        <circle id="Oval" cx="1.103" cy="1.103" r="1.103" transform="translate(27.034)" fill="#f0c419"/>
        <circle id="Oval-2" data-name="Oval" cx="1.103" cy="1.103" r="1.103" transform="translate(29.793 2.759)" fill="#f0c419"/>
        <circle id="Oval-3" data-name="Oval" cx="1.103" cy="1.103" r="1.103" transform="translate(27.034 29.793)" fill="#f0c419"/>
        <circle id="Oval-4" data-name="Oval" cx="1.103" cy="1.103" r="1.103" transform="translate(29.793 27.034)" fill="#f0c419"/>
      </g>
    </g>
  </g>
</svg>
