<svg id="Node.js" xmlns="http://www.w3.org/2000/svg" width="32" height="32" viewBox="0 0 32 32">
  <rect id="Rectangle_1677" data-name="Rectangle 1677" width="32" height="32" fill="none"/>
  <g id="Group_5291" data-name="Group 5291" transform="translate(1.6)">
    <path id="Path_5946" data-name="Path 5946" d="M13.812.926a2.683,2.683,0,0,1,2.62,0Q22.414,4.306,28.4,7.684a2.463,2.463,0,0,1,1.244,2.121V23.364A2.49,2.49,0,0,1,28.3,25.532q-5.963,3.362-11.923,6.726a2.607,2.607,0,0,1-2.649-.074q-1.788-1.036-3.577-2.069a2.106,2.106,0,0,1-.69-.5c.152-.2.424-.23.645-.32a8.35,8.35,0,0,0,1.411-.659.329.329,0,0,1,.367.022c1.019.584,2.029,1.186,3.052,1.764.218.126.439-.041.625-.145q5.851-3.307,11.707-6.606a.387.387,0,0,0,.213-.381q0-6.709,0-13.419a.419.419,0,0,0-.25-.418q-5.942-3.346-11.881-6.7a.413.413,0,0,0-.467,0Q8.942,6.1,3,9.453a.414.414,0,0,0-.251.416V23.288a.379.379,0,0,0,.215.376q1.585.9,3.173,1.792a2.452,2.452,0,0,0,1.984.266A1.5,1.5,0,0,0,9.1,24.315q.008-6.671,0-13.34a.335.335,0,0,1,.365-.342c.508,0,1.016-.007,1.524,0a.352.352,0,0,1,.332.407q0,6.712,0,13.424a3.4,3.4,0,0,1-1.592,3.074,4.9,4.9,0,0,1-4.381-.12c-1.162-.58-2.271-1.265-3.413-1.886A2.484,2.484,0,0,1,.6,23.364V9.806A2.468,2.468,0,0,1,1.89,7.658Q7.852,4.293,13.812.926Z" transform="translate(-0.603 -0.584)" fill="#8cc84b"/>
    <path id="Path_5947" data-name="Path 5947" d="M109.582,85.646a9.406,9.406,0,0,1,5.149.788,3.894,3.894,0,0,1,1.9,3.37.365.365,0,0,1-.4.268c-.5,0-1.006.007-1.509,0a.389.389,0,0,1-.364-.377,2.3,2.3,0,0,0-1.1-1.587,6.514,6.514,0,0,0-3.015-.431,4.092,4.092,0,0,0-2.158.537,1.367,1.367,0,0,0-.455,1.528c.162.384.6.508.967.622,2.089.546,4.3.492,6.352,1.211a2.99,2.99,0,0,1,1.969,1.751,3.741,3.741,0,0,1-.634,3.569,5,5,0,0,1-2.685,1.447,12.9,12.9,0,0,1-4.053.172,6.387,6.387,0,0,1-3.565-1.341,3.741,3.741,0,0,1-1.2-2.951.338.338,0,0,1,.37-.3c.506,0,1.013,0,1.519,0a.355.355,0,0,1,.363.351,2.3,2.3,0,0,0,.857,1.616,6.5,6.5,0,0,0,3.5.637,4.753,4.753,0,0,0,2.869-.7,1.585,1.585,0,0,0,.431-1.514c-.123-.447-.591-.656-.993-.792-2.062-.652-4.3-.416-6.343-1.153a3.087,3.087,0,0,1-1.949-1.7,3.48,3.48,0,0,1,.695-3.62,5.609,5.609,0,0,1,3.482-1.4Z" transform="translate(-92.906 -75.913)" fill="#8cc84b"/>
  </g>
</svg>
