<svg xmlns="http://www.w3.org/2000/svg" xmlns:xlink="http://www.w3.org/1999/xlink" width="32" height="32" viewBox="0 0 32 32">
  <defs>
    <clipPath id="clip-path">
      <rect id="Rectangle_1678" data-name="Rectangle 1678" width="32" height="32" transform="translate(24 24)" fill="none"/>
    </clipPath>
  </defs>
  <g id="PHP" transform="translate(-24 -24)" clip-path="url(#clip-path)">
    <g id="Group_5292" data-name="Group 5292" transform="translate(24 32)">
      <path id="Path_5948" data-name="Path 5948" d="M2.532,10.123H7.278a3.672,3.672,0,0,1,3.028,1.2,4.037,4.037,0,0,1,.62,3.241,6.216,6.216,0,0,1-.549,1.842,5.474,5.474,0,0,1-1.133,1.629A3.956,3.956,0,0,1,7.349,19.2a8.724,8.724,0,0,1-2.09.248H3.134L2.461,22.82H0l2.532-12.7h0M4.6,12.142,3.542,17.454a1.3,1.3,0,0,0,.212.018H4a9.311,9.311,0,0,0,2.833-.336q1.133-.372,1.523-2.585.319-1.859-.637-2.143a7.946,7.946,0,0,0-2.355-.266q-.212.018-.407.018H4.586l.018-.018" transform="translate(0 -6.741)"/>
      <path id="Path_5949" data-name="Path 5949" d="M36.011,0h2.444l-.691,3.382h2.2a4.409,4.409,0,0,1,2.692.744q.9.708.531,2.692L42,12.714H39.517L40.65,7.083a1.6,1.6,0,0,0-.106-1.257,1.5,1.5,0,0,0-1.222-.372l-1.966-.018L35.9,12.714H33.461L36.011,0h0" transform="translate(-22.281)"/>
      <path id="Path_5950" data-name="Path 5950" d="M65.365,10.123h4.746a3.672,3.672,0,0,1,3.028,1.2,4.037,4.037,0,0,1,.62,3.241,6.215,6.215,0,0,1-.549,1.842,5.474,5.474,0,0,1-1.133,1.629A3.956,3.956,0,0,1,70.182,19.2a8.724,8.724,0,0,1-2.09.248H65.967l-.673,3.365H62.833l2.532-12.7h0m2.072,2.019-1.062,5.312a1.3,1.3,0,0,0,.212.018h.248a9.311,9.311,0,0,0,2.833-.336q1.133-.372,1.523-2.585.319-1.859-.637-2.143a7.946,7.946,0,0,0-2.355-.266q-.213.018-.407.018H67.42l.018-.018" transform="translate(-41.84 -6.741)"/>
    </g>
  </g>
</svg>
