<svg xmlns="http://www.w3.org/2000/svg" xmlns:xlink="http://www.w3.org/1999/xlink" width="32" height="32" viewBox="0 0 32 32">
  <defs>
    <clipPath id="clip-path">
      <rect id="Rectangle_1702" data-name="Rectangle 1702" width="32" height="32" transform="translate(-18938 -8759)" fill="#fff" stroke="#707070" stroke-width="1"/>
    </clipPath>
  </defs>
  <g id="PostgreSQL" transform="translate(18937.999 8759)" clip-path="url(#clip-path)">
    <g id="Layer_x0020_3" transform="translate(-18937.561 -8759)">
      <path id="Path_6134" data-name="Path 6134" d="M23.218,23.292c.2-1.7.143-1.944,1.405-1.669l.321.028a7.305,7.305,0,0,0,2.988-.5c1.606-.745,2.559-1.99.975-1.663-3.613.745-3.862-.478-3.862-.478C28.86,13.346,30.455,6.159,29.079,4.4,25.324-.4,18.824,1.871,18.715,1.93l-.035.006a12.88,12.88,0,0,0-2.41-.251,5.954,5.954,0,0,0-3.817,1.143S.858-1.949,1.4,8.836C1.512,11.13,4.686,26.2,8.471,21.645c1.384-1.664,2.721-3.071,2.721-3.071a3.509,3.509,0,0,0,2.292.585l.064-.055a2.513,2.513,0,0,0,.026.648c-.975,1.09-.688,1.281-2.638,1.682-1.972.407-.814,1.13-.057,1.319A4.008,4.008,0,0,0,15.353,21.3l-.057.229c.383.306.357,2.2.411,3.553a12.786,12.786,0,0,0,.421,3.36c.276.744.6,2.662,3.163,2.112,2.141-.459,3.779-1.119,3.928-7.263" stroke="#000" stroke-width="2.686"/>
      <path id="Path_6135" data-name="Path 6135" d="M28.907,19.485c-3.614.745-3.862-.478-3.862-.478C28.86,13.345,30.455,6.159,29.079,4.4,25.324-.4,18.824,1.871,18.716,1.93l-.035.006a12.887,12.887,0,0,0-2.411-.251,5.954,5.954,0,0,0-3.817,1.142S.858-1.949,1.4,8.835c.115,2.294,3.288,17.36,7.074,12.81,1.384-1.664,2.72-3.071,2.72-3.071a3.509,3.509,0,0,0,2.292.585l.065-.055a2.526,2.526,0,0,0,.026.648c-.975,1.09-.689,1.281-2.638,1.682-1.973.407-.814,1.13-.057,1.319A4.008,4.008,0,0,0,15.352,21.3l-.057.229c.382.306.65,1.991.605,3.518a9.687,9.687,0,0,0,.226,3.395c.3.819.6,2.662,3.164,2.112,2.141-.459,3.251-1.648,3.405-3.632.11-1.41.357-1.2.373-2.463l.2-.6c.229-1.912.036-2.528,1.356-2.242l.321.028a7.306,7.306,0,0,0,2.988-.5c1.606-.745,2.559-1.99.975-1.663Z" fill="#336791"/>
      <path id="Path_6136" data-name="Path 6136" d="M15.507,20.58c-.1,3.557.025,7.139.373,8.01A2.858,2.858,0,0,0,19.537,30.6c2.141-.459,2.92-1.347,3.258-3.308.249-1.443.729-5.449.791-6.27" fill="none" stroke="#fff" stroke-linecap="round" stroke-linejoin="round" stroke-width="0.895"/>
      <path id="Path_6137" data-name="Path 6137" d="M12.435,2.748S.832-1.994,1.372,8.79C1.486,11.085,4.66,26.151,8.446,21.6c1.383-1.664,2.634-2.969,2.634-2.969" fill="none" stroke="#fff" stroke-linecap="round" stroke-linejoin="round" stroke-width="0.895"/>
      <path id="Path_6138" data-name="Path 6138" d="M18.7,1.883c-.4.126,6.454-2.506,10.351,2.472,1.376,1.759-.219,8.945-4.034,14.607" fill="none" stroke="#fff" stroke-linecap="round" stroke-linejoin="round" stroke-width="0.895"/>
      <path id="Path_6139" data-name="Path 6139" d="M25.02,18.962s.249,1.224,3.862.478c1.583-.327.63.918-.975,1.663-1.318.612-4.272.768-4.321-.077-.124-2.181,1.555-1.518,1.434-2.065-.11-.492-.861-.975-1.357-2.179-.434-1.051-5.948-9.113,1.529-7.915.274-.057-1.95-7.112-8.948-7.227s-6.766,8.6-6.766,8.6" fill="none" stroke="#fff" stroke-linecap="round" stroke-linejoin="bevel" stroke-width="0.895"/>
      <path id="Path_6140" data-name="Path 6140" d="M13.549,19.708c-.975,1.089-.688,1.281-2.638,1.682-1.973.407-.814,1.13-.057,1.319a4.007,4.007,0,0,0,4.473-1.453,1.339,1.339,0,0,0-.6-1.835.886.886,0,0,0-1.175.287Z" fill="none" stroke="#fff" stroke-linecap="round" stroke-linejoin="round" stroke-width="0.895"/>
      <path id="Path_6141" data-name="Path 6141" d="M13.485,19.688a5.154,5.154,0,0,1,.541-2.295c.5-1.338,1.645-2.676.727-6.921-.684-3.163-5.273-.658-5.275-.229A21.528,21.528,0,0,1,9.4,14.45a3.957,3.957,0,0,0,4.057,4.665" fill="none" stroke="#fff" stroke-linecap="round" stroke-linejoin="round" stroke-width="0.895"/>
      <path id="Path_6142" data-name="Path 6142" d="M12.393,10.179c-.021.146.268.537.645.59a.694.694,0,0,0,.718-.4c.02-.146-.268-.308-.645-.36s-.7.024-.718.17Z" fill="#fff" stroke="#fff" stroke-width="0.298"/>
      <path id="Path_6143" data-name="Path 6143" d="M23.846,9.881c.02.146-.268.537-.645.59a.7.7,0,0,1-.719-.4c-.02-.146.269-.308.645-.36s.7.024.719.17Z" fill="#fff" stroke="#fff" stroke-width="0.149"/>
      <path id="Path_6144" data-name="Path 6144" d="M25.192,8.867c.062,1.149-.247,1.932-.286,3.155-.058,1.778.848,3.813-.517,5.85" fill="none" stroke="#fff" stroke-linecap="round" stroke-linejoin="round" stroke-width="0.895"/>
      <path id="Path_6145" data-name="Path 6145" d="M0,4.327" fill="none" stroke="#fff" stroke-linecap="round" stroke-linejoin="round" stroke-width="0.216"/>
    </g>
  </g>
</svg>
