<svg id="React" xmlns="http://www.w3.org/2000/svg" width="32" height="32" viewBox="0 0 32 32">
  <rect id="Rectangle_1682" data-name="Rectangle 1682" width="31.652" height="32" fill="none"/>
  <g id="Group_5297" data-name="Group 5297" transform="translate(0.164 1.713)">
    <path id="Path_5959" data-name="Path 5959" d="M207.536,92.179c0-2.109-2.641-4.108-6.69-5.347.934-4.127.519-7.411-1.311-8.462a2.845,2.845,0,0,0-1.454-.363v1.447a1.5,1.5,0,0,1,.74.169c.883.506,1.265,2.433.967,4.912-.071.61-.188,1.252-.331,1.908a31.448,31.448,0,0,0-4.121-.707,31.643,31.643,0,0,0-2.7-3.245c2.116-1.966,4.1-3.043,5.451-3.043V78h0c-1.785,0-4.121,1.272-6.483,3.478-2.362-2.193-4.7-3.452-6.483-3.452v1.447c1.343,0,3.335,1.071,5.451,3.024a30.646,30.646,0,0,0-2.68,3.238,30.3,30.3,0,0,0-4.127.714c-.149-.649-.26-1.278-.337-1.882-.3-2.479.071-4.406.947-4.919a1.444,1.444,0,0,1,.746-.169V78.032h0a2.893,2.893,0,0,0-1.467.363c-1.824,1.051-2.232,4.328-1.291,8.442-4.036,1.246-6.664,3.238-6.664,5.341s2.641,4.108,6.69,5.347c-.934,4.127-.519,7.411,1.311,8.462a2.853,2.853,0,0,0,1.46.363c1.785,0,4.121-1.272,6.483-3.478,2.362,2.193,4.7,3.452,6.483,3.452a2.893,2.893,0,0,0,1.467-.363c1.824-1.051,2.232-4.328,1.291-8.442C204.908,96.28,207.536,94.281,207.536,92.179Zm-8.449-4.328c-.24.837-.539,1.7-.876,2.563-.266-.519-.545-1.038-.85-1.557s-.617-1.025-.934-1.518c.921.135,1.81.3,2.66.512Zm-2.972,6.911c-.506.876-1.025,1.707-1.564,2.479-.967.084-1.947.13-2.933.13s-1.96-.045-2.92-.123q-.808-1.158-1.57-2.466-.74-1.275-1.35-2.583c.4-.87.857-1.739,1.343-2.589.506-.876,1.025-1.707,1.564-2.479.967-.084,1.947-.13,2.933-.13s1.96.045,2.92.123q.808,1.158,1.57,2.466.74,1.275,1.35,2.583c-.408.869-.858,1.739-1.343,2.589Zm2.1-.844c.35.87.649,1.739.9,2.583-.85.208-1.746.383-2.674.519.318-.5.636-1.012.934-1.538s.57-1.045.836-1.564Zm-6.58,6.924a26.757,26.757,0,0,1-1.8-2.077c.584.026,1.181.045,1.785.045s1.214-.013,1.8-.045a25.331,25.331,0,0,1-1.789,2.077ZM186.8,97.02c-.921-.136-1.811-.3-2.661-.513.24-.837.539-1.7.876-2.563.266.519.545,1.038.85,1.557S186.485,96.527,186.8,97.02Zm4.8-13.5a26.739,26.739,0,0,1,1.8,2.077c-.584-.026-1.181-.045-1.785-.045s-1.214.013-1.8.045a25.331,25.331,0,0,1,1.785-2.081Zm-4.8,3.822c-.318.5-.636,1.012-.934,1.538s-.578,1.038-.844,1.557c-.35-.87-.649-1.739-.9-2.583.851-.2,1.747-.38,2.678-.516Zm-5.873,8.124c-2.3-.98-3.783-2.265-3.783-3.284s1.486-2.31,3.783-3.284c.558-.24,1.168-.454,1.8-.655a31.162,31.162,0,0,0,1.46,3.952,30.721,30.721,0,0,0-1.441,3.932c-.646-.2-1.258-.427-1.822-.665Zm3.491,9.273c-.883-.506-1.265-2.433-.967-4.912.071-.61.188-1.252.331-1.908a31.446,31.446,0,0,0,4.121.707,31.657,31.657,0,0,0,2.7,3.245c-2.115,1.966-4.1,3.043-5.451,3.043a1.549,1.549,0,0,1-.737-.178Zm15.392-4.945c.3,2.479-.071,4.406-.947,4.919a1.444,1.444,0,0,1-.746.169c-1.343,0-3.335-1.071-5.451-3.024a30.646,30.646,0,0,0,2.68-3.238,30.3,30.3,0,0,0,4.127-.714,18.174,18.174,0,0,1,.335,1.885Zm2.5-4.328c-.558.24-1.168.454-1.8.655a31.165,31.165,0,0,0-1.46-3.952,30.733,30.733,0,0,0,1.441-3.932c.642.2,1.252.422,1.823.662,2.3.98,3.783,2.265,3.783,3.284s-1.5,2.306-3.791,3.279Z" transform="translate(-175.7 -78)" fill="#61dafb"/>
    <path id="Path_5960" data-name="Path 5960" d="M320.8,78.4Z" transform="translate(-311.384 -78.374)" fill="#61dafb"/>
    <circle id="Ellipse_508" data-name="Ellipse 508" cx="2.966" cy="2.966" r="2.966" transform="translate(12.946 11.213)" fill="#61dafb"/>
    <path id="Path_5961" data-name="Path 5961" d="M520.5,78.1Z" transform="translate(-498.125 -78.094)" fill="#61dafb"/>
  </g>
</svg>
