<svg xmlns="http://www.w3.org/2000/svg" viewBox="0 0 200 200"><defs><style>.cls-1{fill:#00d8ff;}.cls-2{fill:none;}</style></defs><g id="Layer_2" data-name="Layer 2"><g id="Layer_1-2" data-name="Layer 1"><path class="cls-1" d="M147.62,38.33A84.6,84.6,0,0,1,145,58.87c-.26,1-.26,1,.74,1.29a87.58,87.58,0,0,1,15.8,6,45,45,0,0,1,12,8.42,19.3,19.3,0,0,1,4.34,6.46c1.82,4.67.62,8.84-2.16,12.71-3,4.22-7.16,7.2-11.58,9.78a79.42,79.42,0,0,1-18,7.49c-1,.3-1.07.34-.8,1.39a82.29,82.29,0,0,1,2.34,13.85c.48,6,.31,12-1.54,17.88a17.24,17.24,0,0,1-5.58,8.77,12.15,12.15,0,0,1-7.12,2.49,26.21,26.21,0,0,1-11.91-2.64A65.63,65.63,0,0,1,105.28,142c-1.53-1.33-3-2.68-4.44-4.14-.44-.47-.69-.36-1.09,0a80.38,80.38,0,0,1-13.36,10.75,44.64,44.64,0,0,1-13.67,6.08,20,20,0,0,1-7.92.45c-4.82-.8-7.87-3.79-9.85-8A31.31,31.31,0,0,1,52.4,136c-.55-7.86.71-15.51,2.57-23.09.29-1.19.29-1.2-.92-1.54a79.41,79.41,0,0,1-15.53-6.1,44.62,44.62,0,0,1-12.35-9.12C23.53,93.28,21.55,90,21.29,86A12.26,12.26,0,0,1,23,79.27a28.05,28.05,0,0,1,9-9.29,71.48,71.48,0,0,1,20.13-9.22c.81-.25,1.63-.5,2.46-.7.62-.15.79-.44.63-1.08a96.77,96.77,0,0,1-2.18-11c-.3-2.43-.48-4.87-.61-7.32a46,46,0,0,1,.71-10.49,22.18,22.18,0,0,1,3.45-8.88A12,12,0,0,1,66,15.93c4.31-.31,8.29.86,12.17,2.51A66.86,66.86,0,0,1,95.24,29.56c1.36,1.16,2.68,2.36,4,3.62.82.81,1,.8,1.82,0a83.78,83.78,0,0,1,11.47-9.54,46.54,46.54,0,0,1,15.28-7.3,19.31,19.31,0,0,1,7.14-.43c4.45.6,7.43,3.25,9.46,7.09a28.6,28.6,0,0,1,2.91,10.24A40.81,40.81,0,0,1,147.62,38.33Zm-47.82,20c-4.74-.1-9.66.12-14.58.47a1.33,1.33,0,0,0-1.07.7c-3.28,4.77-6.3,9.7-9.12,14.75-2,3.51-3.86,7.06-5.56,10.71a1.4,1.4,0,0,0,0,1.29c1.6,3.46,3.4,6.81,5.26,10.14,2.93,5.27,6.06,10.41,9.49,15.37a1.44,1.44,0,0,0,1.18.66c2.94.27,5.9.38,8.85.42,6.63.1,13.26.1,19.89-.4a2.5,2.5,0,0,0,2.17-1.26,236.65,236.65,0,0,0,14.25-24.89,1.57,1.57,0,0,0,0-1.57q-2.72-5.47-5.74-10.8-4.18-7.41-9-14.47a1.17,1.17,0,0,0-.94-.64c-1.49-.08-3-.23-4.46-.3C107,58.36,103.48,58.29,99.8,58.35ZM25.21,85.47a9.41,9.41,0,0,0,1.27,4.58,26.56,26.56,0,0,0,8.33,8.48A70.12,70.12,0,0,0,55.6,107.8c.55.16.77,0,.92-.52.33-1.12.69-2.24,1-3.35a170.92,170.92,0,0,1,6.94-17.54,1.8,1.8,0,0,0,0-1.66,157.44,157.44,0,0,1-7.84-20.44c-.17-.58-.45-.69-1-.53a80.65,80.65,0,0,0-17.57,7,33.77,33.77,0,0,0-10,7.88C26.47,80.61,25.19,82.78,25.21,85.47Zm42.32,66.07c.75-.06,1.49-.1,2.23-.19a29.51,29.51,0,0,0,9.38-3,71.75,71.75,0,0,0,17.92-13.11c.44-.42.38-.69,0-1.11-2.26-2.41-4.44-4.88-6.53-7.44-2.64-3.22-5.17-6.51-7.56-9.91a1.27,1.27,0,0,0-1-.63c-1.65-.14-3.29-.31-4.93-.47A141.3,141.3,0,0,1,60.2,113c-1.16-.26-1.17-.27-1.45.86-1.68,6.9-2.86,13.86-2.51,21A30.32,30.32,0,0,0,58,144.38C60.08,149.76,62.89,151.45,67.53,151.54ZM144.07,131c-.09-1.3-.19-3.06-.32-4.81a79.23,79.23,0,0,0-2.23-13.06c-.14-.57-.43-.72-1-.56-.75.21-1.5.37-2.26.53A153.11,153.11,0,0,1,118.86,116a2.24,2.24,0,0,0-1.84,1,144.72,144.72,0,0,1-13.55,17.08c-.34.37-.36.67,0,1,.79.72,1.56,1.46,2.33,2.19a70.65,70.65,0,0,0,12.66,9.57c3.94,2.29,8,4.18,12.65,4.67,3,.32,5.87-.18,8.08-2.52a13.09,13.09,0,0,0,2.48-3.89C143.56,140.74,143.92,136.1,144.07,131ZM56.26,39.2c0,1,0,2.42.13,3.86A88,88,0,0,0,58.92,58c.17.71.49.79,1.13.64,3.86-.94,7.77-1.63,11.7-2.22,3.16-.47,6.32-.9,9.51-1.14a2.28,2.28,0,0,0,1.85-1A150.62,150.62,0,0,1,96.86,37.35c.43-.46.34-.7,0-1.1a78.86,78.86,0,0,0-13.63-10.8c-4.34-2.68-8.87-4.91-14-5.56a11,11,0,0,0-6,.6,9.51,9.51,0,0,0-4.83,5.42C56.64,30,56.18,34.34,56.26,39.2Zm87.49.08a45.48,45.48,0,0,0-.5-6.76A21.46,21.46,0,0,0,140,23.26a8.21,8.21,0,0,0-6.85-3.63,20.34,20.34,0,0,0-8.4,1.71c-8.33,3.35-15.16,8.88-21.52,15.07-.34.33-.26.56,0,.86.56.57,1.09,1.17,1.63,1.76a148.37,148.37,0,0,1,12.24,15.46,2,2,0,0,0,1.64.79c1.24.13,2.49.22,3.73.38a154.91,154.91,0,0,1,17.62,3.06c.64.15.92,0,1.08-.65A81.61,81.61,0,0,0,143.75,39.28Zm31,46.23a9.92,9.92,0,0,0-2.49-6.35,31.83,31.83,0,0,0-8.83-7.42,79.42,79.42,0,0,0-19-7.9c-.65-.18-.87,0-1,.63a153.68,153.68,0,0,1-7.88,20.33,1.45,1.45,0,0,0,0,1.36,162.65,162.65,0,0,1,8.16,20.48c.32,1,.32,1,1.31.72a79.13,79.13,0,0,0,16.81-7,34.29,34.29,0,0,0,10.25-8.29A10.43,10.43,0,0,0,174.79,85.51Zm-53.24,26.27v0c1.82-.23,3.65-.44,5.47-.7,4.19-.58,8.36-1.35,12.48-2.32.61-.14.7-.4.52-1A153.31,153.31,0,0,0,133.51,91c-.11-.25-.15-.67-.49-.65s-.36.43-.49.68c-2.18,4.3-4.49,8.53-7,12.67-1.51,2.51-3.08,5-4.61,7.48-.11.18-.34.35-.22.56s.38,0,.58,0ZM67.06,90.28c-.13.27-.22.43-.29.59a154.88,154.88,0,0,0-6.33,16.91c-.36,1.18-.37,1.17.85,1.44a156.05,156.05,0,0,0,17.2,2.68c.3,0,.7.19.89-.11s-.18-.52-.33-.76a191.84,191.84,0,0,1-9.86-16.72ZM87.8,116.5l-.09.21c1.06,1.4,2.11,2.8,3.18,4.18q4.13,5.31,8.69,10.22c.66.71.68.76,1.34,0q3.42-3.69,6.51-7.67c1.65-2.12,3.24-4.29,4.85-6.45.11-.14.29-.28.2-.49s-.22-.12-.35-.1a34.36,34.36,0,0,1-3.66.17c-3,.24-6,.17-8.94.17C95.62,116.78,91.71,116.81,87.8,116.5Zm-.25-61.81c.38,0,.53,0,.68,0,2.87-.11,5.74-.24,8.62-.33,3.78-.11,7.55.1,11.33.16,1.23,0,2.45.14,3.67.21.17,0,.39.15.5-.07s-.1-.34-.21-.48c-.57-.78-1.14-1.54-1.72-2.31-3-4-6.18-7.8-9.53-11.48-.76-.83-.83-.85-1.42-.2-3.38,3.69-6.63,7.49-9.65,11.48Zm33,4.75c.15.28.21.43.29.56a216.78,216.78,0,0,1,11.75,20.23c.1.18.13.47.38.46s.29-.29.37-.48c1.2-2.73,2.36-5.48,3.4-8.27s2-5.61,2.91-8.46c.18-.6.11-.93-.55-1-.18,0-.36-.08-.55-.13-4.25-1-8.55-1.74-12.88-2.34A47.13,47.13,0,0,0,120.58,59.44ZM67.06,81A210.31,210.31,0,0,1,79.55,59.36a157.69,157.69,0,0,0-18.63,3.06c-.61.14-.68.44-.5,1,.73,2.31,1.47,4.62,2.3,6.9C64,73.85,65.42,77.36,67.06,81Z"/><path class="cls-1" d="M101.63,170.74c-.21.27-.11.57-.11.85q0,5.63,0,11.27c0,.35.15.85-.3,1a2.67,2.67,0,0,1-1.72,0c-.25-.1-.22-.41-.22-.65q0-7.54,0-15.11c0-.53.2-.78.75-.77,2.59.06,2-.42,3.23,1.84q3,5.61,6,11.23c0,.09.12.17.22.32a1.51,1.51,0,0,0,.12-.89q0-5.67,0-11.35c0-.38-.15-.89.33-1.06a2.43,2.43,0,0,1,1.64,0c.4.16.26.61.26.93q0,6.28,0,12.56c0,.74,0,1.49,0,2.23,0,.57-.18.87-.78.82h-.08c-2.11.06-2.11.07-3.09-1.77l-5.66-10.66C102,171.23,102,170.9,101.63,170.74Z"/><path class="cls-1" d="M36.07,176.12c2.37,1.93,3.07,4.77,4.46,7.2.22.38.1.56-.36.61-1.55.17-1.7.09-2.41-1.31-.6-1.19-1.22-2.37-1.8-3.56a3.58,3.58,0,0,0-3.38-2.14c-2.95,0-2.32-.31-2.38,2.15q0,2,0,4c0,.67-.25.94-.89.87a3.84,3.84,0,0,0-.48,0c-.64.07-.94-.19-.9-.86s0-1.28,0-1.92c0-4.26,0-8.53,0-12.79,0-1,0-1.08,1.08-1.06a49.22,49.22,0,0,1,5.43.13,4.63,4.63,0,0,1,3.83,6.65A4.06,4.06,0,0,1,36.07,176.12Zm-5.87-4h0c0,.72,0,1.43,0,2.15,0,.52.17.8.73.78a20.67,20.67,0,0,0,2.94-.13,2.87,2.87,0,0,0,.22-5.62,15.57,15.57,0,0,0-3.34-.12c-.42,0-.54.26-.54.62Z"/><path class="cls-1" d="M64.25,182.21a5.19,5.19,0,0,1-6,1.77,3.55,3.55,0,0,1-2.52-3.43A3.8,3.8,0,0,1,58,176.66a6.84,6.84,0,0,1,2.72-.58h2.88c.49,0,.65-.23.58-.71a2.76,2.76,0,0,0-2.28-2.28,7.62,7.62,0,0,0-4.37.52c-.81.35-.78.34-.84-.55a1.14,1.14,0,0,1,1-1.37,11.09,11.09,0,0,1,4.09-.46c3,.45,4.39,1.91,4.51,4.95.09,2.34,0,4.69,0,7,0,.79-.52.73-1,.72s-1.09.13-1.06-.69C64.26,183,64.25,182.72,64.25,182.21Zm-3.78.27a3.84,3.84,0,0,0,3.77-4.23c0-.35-.18-.54-.54-.55a15.41,15.41,0,0,0-4.28.32A2,2,0,0,0,58,179.4C57.46,181.08,58.58,182.47,60.47,182.48Z"/><path class="cls-1" d="M123.68,182.35a5.07,5.07,0,0,1-4.62,1.89,3.75,3.75,0,0,1-3.61-3.05c-.35-2.31.47-3.92,2.42-4.66a7.91,7.91,0,0,1,2.82-.46c.61,0,1.23,0,1.84,0,1.28,0,1.53-.42,1-1.59A3.61,3.61,0,0,0,120,173a9.79,9.79,0,0,0-3,.71c-.51.22-.65,0-.7-.48a1.19,1.19,0,0,1,1-1.49,11.13,11.13,0,0,1,4.33-.45,4.54,4.54,0,0,1,4.25,4.66c0,2.39,0,4.79,0,7.19,0,.7-.32.87-.93.84s-1.25.11-1.17-.84A6.84,6.84,0,0,0,123.68,182.35ZM122,177.69A9.6,9.6,0,0,0,119,178c-1.22.37-1.61,1-1.53,2.44a2,2,0,0,0,1.78,2,3.56,3.56,0,0,0,4.37-2.93c.35-1.57.18-1.78-1.38-1.78Z"/><path class="cls-1" d="M48.56,178.18c-1.25,0-2.5,0-3.75,0-.84,0-1,.2-.79,1a3.88,3.88,0,0,0,3.89,3.25,8.76,8.76,0,0,0,4-.77c.54-.24.79-.24.83.49a1.31,1.31,0,0,1-1.1,1.54,9.79,9.79,0,0,1-6.28,0,5.59,5.59,0,0,1-3.66-5.17c-.2-2.47.3-4.74,2.43-6.33a6.21,6.21,0,0,1,6.51-.37c2.08,1.32,2.64,3.36,2.55,5.68,0,.51-.33.6-.75.6Zm-1-1.62c.93,0,1.86,0,2.79,0,.72,0,.87-.3.74-.95a3.23,3.23,0,0,0-3.3-2.67c-2.08.08-3.53,1.28-3.73,3.05,0,.46.17.56.54.56Z"/><path class="cls-1" d="M164.66,178.18c-1.25,0-2.5,0-3.76,0-.78,0-.92.2-.77,1a3.89,3.89,0,0,0,3.93,3.31,8.76,8.76,0,0,0,4-.78c.59-.27.77-.15.8.52a1.27,1.27,0,0,1-1.05,1.5,11,11,0,0,1-5.28.38,5.65,5.65,0,0,1-4.61-4.8c-.39-2.61-.08-5.07,2.11-6.82a5.74,5.74,0,0,1,6.61-.62c2.2,1.18,2.75,3.32,2.67,5.67,0,.55-.32.66-.77.66-1.31,0-2.61,0-3.92,0Zm-1-1.62c.93,0,1.86,0,2.79,0,.71,0,.87-.3.74-.94a3.23,3.23,0,0,0-3.3-2.68,3.57,3.57,0,0,0-3.73,3c0,.47.17.57.54.57Z"/><path class="cls-1" d="M150,181.58c1-2.76,2.07-5.53,3.1-8.3.11-.3.22-.6.34-.89s.19-.92.82-.94c2,0,1.74,0,1.18,1.48-1.24,3.29-2.49,6.58-3.68,9.88a1.41,1.41,0,0,1-1.61,1.14c-1.8-.11-1.54.29-2.23-1.58-1.21-3.24-2.45-6.48-3.64-9.73-.13-.35-.64-.84,0-1.15a1.59,1.59,0,0,1,1.94.54c.66,1.72,1.29,3.44,1.93,5.17l1.65,4.39Z"/><path class="cls-1" d="M130,177.05c0-1.06,0-2.13,0-3.2,0-.51-.16-.82-.73-.79s-.73-.26-.73-.78.15-.88.76-.84.7-.24.7-.73c0-.7,0-1.39,0-2.08s.55-.7,1.05-.7,1.06-.09,1,.71c0,.64,0,1.28,0,1.92s.2.92.88.89c.87,0,1.75,0,2.63,0,.59,0,.79.29.8.84s-.26.8-.83.79c-.88,0-1.75,0-2.63,0-.56,0-.85.19-.84.79,0,2.07,0,4.15,0,6.23,0,1.73.46,2.07,2.2,2.08.37,0,.75,0,1.12,0,.67,0,.95.22,1,.92s-.37.89-1,.86a20.83,20.83,0,0,1-3-.15,2.73,2.73,0,0,1-2.28-2.36,6.13,6.13,0,0,1-.15-.94c0-1.15,0-2.29,0-3.44Z"/><path class="cls-1" d="M75.89,184.25c-3.67,0-6-2.15-6.22-5.71a7,7,0,0,1,1.65-5.63c1.86-2,5.38-2.13,7.67-1.13a1.71,1.71,0,0,1,.37,1.85c-.23.22-.45,0-.65-.08a6.8,6.8,0,0,0-3.59-.51,3.35,3.35,0,0,0-2.65,1.83,6.15,6.15,0,0,0,0,5.69A4,4,0,0,0,77,182.4a7.93,7.93,0,0,0,1.9-.6c.36-.17.52-.12.56.32.13,1.19,0,1.43-1.16,1.79A7.16,7.16,0,0,1,75.89,184.25Z"/><path class="cls-1" d="M83,177.42c0-1.36,0-2.45,0-3.55,0-.5-.12-.84-.71-.8s-.76-.31-.76-.85.21-.81.76-.77.72-.3.71-.81,0-1.33,0-2,.53-.72,1-.71,1.08-.12,1.06.69,0,1.34,0,2,.25.85.86.83c.85,0,1.7,0,2.55,0,.62,0,.78.29.77.85s-.19.79-.75.78c-.88,0-1.76,0-2.63,0-.59,0-.8.23-.8.81,0,2.08,0,4.16,0,6.23,0,1.67.46,2.05,2.14,2.06h1c.92,0,1.08.23,1,1.19,0,.34-.16.57-.53.56a14,14,0,0,1-3.42-.16,2.68,2.68,0,0,1-2.14-2.21A27.13,27.13,0,0,1,83,177.42Z"/><path class="cls-1" d="M141,177.76c0,1.76,0,3.52,0,5.28,0,.89-.47.89-1.12.9s-1-.16-1-.93c0-3.54,0-7.09,0-10.63,0-.84.38-.94,1.07-.95s1.07.18,1.05,1C141,174.19,141,176,141,177.76Z"/><path class="cls-1" d="M141,168c0,1.21-.41,1.52-1.62,1.24a.49.49,0,0,1-.45-.48c0-.53,0-1.07,0-1.6,0-.32.22-.44.53-.48C140.81,166.44,141,166.64,141,168Z"/><path class="cls-1" d="M100,71.13A14.33,14.33,0,1,1,85.68,85.47,14.26,14.26,0,0,1,100,71.13Z"/><rect class="cls-2" width="200" height="200"/></g></g></svg>