<svg xmlns="http://www.w3.org/2000/svg" xmlns:xlink="http://www.w3.org/1999/xlink" width="100" height="100" viewBox="0 0 100 100">
  <defs>
    <clipPath id="clip-path">
      <rect id="Rectangle_1852" data-name="Rectangle 1852" width="100" height="100" transform="translate(-15.891 15)" fill="#fff" stroke="#707070" stroke-width="1"/>
    </clipPath>
  </defs>
  <g id="Mask_Group_5489" data-name="Mask Group 5489" transform="translate(15.891 -15)" clip-path="url(#clip-path)">
    <g id="iOS_Swift" data-name="iOS Swift" transform="translate(-15.891 15)">
      <rect id="Rectangle_1688" data-name="Rectangle 1688" width="100" height="100" fill="none"/>
      <path id="Path_2546" data-name="Path 2546" d="M35.143,28a7.143,7.143,0,1,0,7.143,7.143A7.164,7.164,0,0,0,35.143,28Zm25-25h-50A7.141,7.141,0,0,0,3,10.143v50a7.141,7.141,0,0,0,7.143,7.143h50a7.141,7.141,0,0,0,7.143-7.143v-50A7.141,7.141,0,0,0,60.143,3Zm-6.25,32.143a18.075,18.075,0,0,1-.179,2.429L59,41.714a1.262,1.262,0,0,1,.286,1.607l-5,8.643a1.264,1.264,0,0,1-1.536.536L46.536,50a19.154,19.154,0,0,1-4.214,2.464l-.929,6.607a1.3,1.3,0,0,1-1.25,1.071h-10a1.3,1.3,0,0,1-1.25-1.036L27.964,52.5a18.365,18.365,0,0,1-4.214-2.464l-6.214,2.5A1.264,1.264,0,0,1,16,52l-5-8.643a1.262,1.262,0,0,1,.286-1.607l5.286-4.143a19.062,19.062,0,0,1-.179-2.464,18.075,18.075,0,0,1,.179-2.429l-5.286-4.143A1.262,1.262,0,0,1,11,26.964l5-8.643a1.264,1.264,0,0,1,1.536-.536l6.214,2.5a19.154,19.154,0,0,1,4.214-2.464l.929-6.607a1.3,1.3,0,0,1,1.25-1.071h10a1.3,1.3,0,0,1,1.25,1.036l.929,6.607a18.365,18.365,0,0,1,4.214,2.464l6.214-2.5a1.264,1.264,0,0,1,1.536.536l5,8.643A1.262,1.262,0,0,1,59,28.536l-5.286,4.143a19.062,19.062,0,0,1,.179,2.464Z" transform="translate(14.857 14.857)" fill="#41bfad"/>
    </g>
  </g>
</svg>
