<svg id="Ruby_on_Rails" data-name="Ruby on Rails" xmlns="http://www.w3.org/2000/svg" width="32" height="32" viewBox="0 0 32 32">
  <rect id="Rectangle_1683" data-name="Rectangle 1683" width="32" height="32" fill="none"/>
  <g id="Group_5298" data-name="Group 5298" transform="translate(0 6.667)">
    <path id="Path_5962" data-name="Path 5962" d="M9,28.67H20.146s-2.13-9.721,4.924-13.658c1.538-.748,6.434-3.541,14.448,2.384.254-.212.494-.381.494-.381s-7.337-7.323-15.506-6.5c-4.106.367-9.157,4.106-12.12,9.044A24.405,24.405,0,0,0,9,28.67Z" transform="translate(-8.012 -9.03)" fill="#c00"/>
    <path id="Path_5963" data-name="Path 5963" d="M9,28.67H20.146s-2.13-9.721,4.924-13.658c1.538-.748,6.434-3.541,14.448,2.384.254-.212.494-.381.494-.381s-7.337-7.323-15.506-6.5c-4.106.367-9.157,4.106-12.12,9.044A24.405,24.405,0,0,0,9,28.67Z" transform="translate(-8.012 -9.03)" fill="#c00"/>
    <path id="Path_5964" data-name="Path 5964" d="M9,28.67H20.146s-2.13-9.721,4.924-13.658c1.538-.748,6.434-3.541,14.448,2.384.254-.212.494-.381.494-.381s-7.337-7.323-15.506-6.5c-4.12.367-9.171,4.106-12.134,9.044A24.206,24.206,0,0,0,9,28.67Z" transform="translate(-8.012 -9.03)" fill="#c00"/>
    <path id="Path_5965" data-name="Path 5965" d="M165.269,7.739l.056-.945a6.9,6.9,0,0,0-1.369-.494l-.056.931C164.366,7.386,164.817,7.556,165.269,7.739Z" transform="translate(-141.057 -5.467)" fill="#c00"/>
    <path id="Path_5966" data-name="Path 5966" d="M163.756,37.7l-.056.889a7.868,7.868,0,0,1,1.4.169l.056-.875A9.989,9.989,0,0,0,163.756,37.7Z" transform="translate(-140.885 -32.437)" fill="#c00"/>
    <path id="Path_5967" data-name="Path 5967" d="M118,1.261h.141L117.855.4A11.258,11.258,0,0,0,116.5.485l.268.832A11.911,11.911,0,0,1,118,1.261Z" transform="translate(-100.345 -0.4)" fill="#c00"/>
    <path id="Path_5968" data-name="Path 5968" d="M131.9,40.551l.324.974a8.928,8.928,0,0,1,1.228-.494l-.31-.931A10.235,10.235,0,0,0,131.9,40.551Z" transform="translate(-113.572 -34.499)" fill="#c00"/>
    <path id="Path_5969" data-name="Path 5969" d="M75.935,11.074,75.3,10.1c-.353.183-.72.381-1.1.607l.649.988C75.216,11.469,75.569,11.257,75.935,11.074Z" transform="translate(-64.013 -8.731)" fill="#c00"/>
    <path id="Path_5970" data-name="Path 5970" d="M107,56.245l.677,1.016a7.833,7.833,0,0,1,.832-1l-.635-.959a7.8,7.8,0,0,0-.874.943Z" transform="translate(-92.185 -47.554)" fill="#c00"/>
    <path id="Path_5971" data-name="Path 5971" d="M92.5,84.752l1.143.9a11.27,11.27,0,0,1,.3-1.651l-1.016-.8A13.407,13.407,0,0,0,92.5,84.752Z" transform="translate(-79.731 -71.517)" fill="#c00"/>
    <path id="Path_5972" data-name="Path 5972" d="M36.246,41.375l-1-.875c-.367.353-.72.705-1.044,1.058l1.086.931a14.289,14.289,0,0,1,.958-1.114Z" transform="translate(-29.657 -34.842)" fill="#c00"/>
    <path id="Path_5973" data-name="Path 5973" d="M4.328,87.793,2.7,87.2c-.268.607-.564,1.312-.7,1.693l1.623.593C3.806,89.006,4.1,88.315,4.328,87.793Z" transform="translate(-2 -74.953)" fill="#c00"/>
    <path id="Path_5974" data-name="Path 5974" d="M91,119.6a14.333,14.333,0,0,0,.169,1.778l1.693.607q-.215-.908-.339-1.834Z" transform="translate(-78.443 -102.782)" fill="#c00"/>
  </g>
</svg>
